<?xml version="1.0" encoding="UTF-8" standalone="no"?>
<!DOCTYPE svg PUBLIC "-//W3C//DTD SVG 1.1//EN" "http://www.w3.org/Graphics/SVG/1.1/DTD/svg11.dtd">
<svg xmlns="http://www.w3.org/2000/svg" version="1.1" viewBox="0 0 360 427">
<g stroke-width="2.00" fill="none" stroke-linecap="butt">
<path stroke="#000000" stroke-opacity="0.557" d="
  M 349.46 261.75
  L 343.00 268.71"
/>
<path stroke="#000000" stroke-opacity="0.557" d="
  M 337.71 274.00
  L 326.75 285.46"
/>
<path stroke="#000000" stroke-opacity="0.557" d="
  M 295.75 317.29
  L 277.75 335.96"
/>
<path stroke="#000000" stroke-opacity="0.557" d="
  M 209.71 406.00
  L 205.38 410.51"
/>
<path stroke="#000000" stroke-opacity="0.557" d="
  M 81.75 333.71
  L 73.04 325.50"
/>
<path stroke="#000000" stroke-opacity="0.557" d="
  M 64.75 317.21
  L 57.84 310.23"
/>
</g>
<path fill="#000000" d="
  M 96.06 0.00
  L 268.06 0.00
  C 279.22 1.35 278.26 8.40 278.26 18.19
  Q 278.24 127.94 278.25 237.60
  A 0.41 0.41 0.0 0 0 278.66 238.01
  Q 314.22 237.97 349.69 238.03
  Q 354.65 238.04 358.82 241.39
  A 1.78 1.73 11.0 0 1 359.37 242.18
  L 360.00 244.06
  L 360.00 246.56
  C 358.47 252.64 353.65 257.37 349.46 261.75
  L 343.00 268.71
  L 337.71 274.00
  L 326.75 285.46
  L 295.75 317.29
  L 277.75 335.96
  L 209.71 406.00
  L 205.38 410.51
  C 198.28 417.83 192.10 425.98 185.44 427.00
  L 181.69 427.00
  Q 176.38 425.91 173.19 422.81
  Q 127.41 378.32 81.75 333.71
  L 73.04 325.50
  L 64.75 317.21
  L 57.84 310.23
  Q 25.54 279.46 4.50 258.00
  Q 1.31 254.74 0.00 249.44
  L 0.00 247.44
  C 1.00 243.50 4.92 242.50 8.25 242.50
  Q 45.75 242.50 83.25 242.50
  A 0.50 0.50 0.0 0 0 83.75 242.00
  Q 83.74 126.00 83.75 10.00
  C 83.75 2.79 89.53 -0.05 96.06 0.00
  Z"
/>
<path fill="#010000" fill-opacity="0.110" d="
  M 343.00 268.71
  L 349.46 261.75
  Q 350.20 262.64 351.28 262.41
  A 0.70 0.69 -3.1 0 0 351.82 261.82
  Q 352.09 259.35 354.51 258.44
  Q 355.15 258.20 355.00 258.86
  Q 354.82 259.71 354.10 260.28
  A 0.91 0.89 -19.9 0 0 353.75 261.01
  L 353.75 263.11
  A 0.91 0.90 17.1 0 0 354.15 263.86
  Q 355.09 264.48 355.28 265.43
  A 0.46 0.45 -5.5 0 1 354.82 265.98
  Q 353.71 265.96 353.57 266.98
  A 0.75 0.74 -2.3 0 1 352.98 267.61
  L 350.31 268.14
  A 0.63 0.62 -2.6 0 0 349.81 268.68
  L 349.51 271.32
  A 0.56 0.54 3.8 0 1 348.93 271.81
  L 342.71 271.55
  Q 341.86 271.51 342.46 270.91
  L 343.45 269.90
  A 0.64 0.64 0.0 0 0 343.52 269.08
  Q 343.36 268.85 343.00 268.71
  Z"
/>
<path fill="#010000" fill-opacity="0.110" d="
  M 337.71 274.00
  Q 339.47 276.58 342.57 276.31
  A 0.72 0.71 82.1 0 1 343.34 276.90
  L 343.47 277.55
  A 0.97 0.96 -28.9 0 1 343.22 278.39
  Q 341.93 279.77 340.11 279.98
  A 0.60 0.59 85.5 0 0 339.58 280.61
  C 339.67 282.38 337.61 281.14 337.45 282.95
  A 0.54 0.53 88.7 0 1 337.00 283.43
  L 334.13 283.87
  A 0.64 0.63 -3.3 0 0 333.59 284.47
  L 333.47 287.28
  A 0.50 0.49 1.2 0 1 332.97 287.75
  L 328.82 287.75
  A 0.51 0.51 0.0 0 1 328.31 287.28
  Q 328.20 285.94 326.75 285.46
  L 337.71 274.00
  Z"
/>
<path fill="#010000" fill-opacity="0.110" d="
  M 51.80 307.70
  L 49.01 305.25
  A 1.56 1.55 -20.4 0 0 48.17 304.87
  Q 44.06 304.32 40.58 302.13
  A 1.20 1.17 -80.9 0 1 40.05 301.38
  L 39.78 300.08
  A 0.70 0.70 0.0 0 1 40.16 299.30
  Q 40.97 298.90 41.23 298.01
  A 0.70 0.69 12.2 0 1 41.99 297.53
  Q 44.16 297.84 45.35 299.87
  Q 45.60 300.29 45.62 300.79
  Q 45.68 302.22 47.17 302.25
  A 1.54 1.53 67.3 0 1 48.16 302.66
  L 53.14 307.43
  A 0.51 0.50 49.6 0 1 53.08 308.21
  Q 52.62 308.53 52.36 308.20
  Q 52.34 308.17 51.80 307.70
  Z"
/>
<path fill="#010000" fill-opacity="0.110" d="
  M 57.84 310.23
  L 64.75 317.21
  C 63.10 316.81 63.87 318.53 64.06 319.14
  A 0.32 0.31 80.8 0 1 63.77 319.55
  L 57.93 319.75
  A 1.48 1.46 63.3 0 1 56.95 319.42
  Q 55.80 318.50 56.28 316.85
  A 0.72 0.72 0.0 0 0 56.00 316.05
  Q 54.48 314.98 55.52 313.23
  Q 56.02 312.40 57.84 310.23
  Z"
/>
<path fill="#010000" fill-opacity="0.110" d="
  M 295.75 317.29
  L 295.75 317.59
  A 0.35 0.34 5.0 0 0 296.04 317.93
  L 297.24 318.11
  Q 298.05 318.23 297.48 318.83
  L 296.02 320.35
  A 1.04 1.03 -29.7 0 0 295.75 321.31
  Q 295.94 322.16 295.42 322.72
  A 1.10 1.09 -27.7 0 0 295.14 323.61
  L 295.59 327.16
  A 0.52 0.52 0.0 0 1 295.08 327.75
  L 289.01 327.75
  A 1.07 1.06 -70.6 0 0 288.18 328.15
  L 286.57 330.16
  A 0.45 0.45 0.0 0 0 286.79 330.87
  Q 287.22 331.00 287.60 331.27
  Q 288.60 332.00 287.36 332.00
  L 284.52 332.00
  A 1.01 1.00 19.3 0 0 283.74 332.37
  C 282.50 333.90 283.90 334.52 283.80 336.01
  A 1.23 1.18 73.0 0 1 283.38 336.84
  L 281.16 338.76
  A 0.97 0.96 -56.7 0 1 280.26 338.95
  L 279.48 338.73
  A 0.55 0.55 0.0 0 1 279.09 338.14
  Q 279.23 336.62 277.75 335.96
  L 295.75 317.29
  Z"
/>
<path fill="#010000" fill-opacity="0.110" d="
  M 73.04 325.50
  L 81.75 333.71
  L 81.42 333.73
  A 0.36 0.36 0.0 0 0 81.09 334.11
  L 81.27 337.51
  A 1.21 1.21 0.0 0 1 79.96 338.78
  C 76.55 338.47 76.97 335.12 72.75 335.68
  A 0.38 0.38 0.0 0 1 72.33 335.26
  Q 72.52 333.63 71.96 332.26
  C 71.02 329.98 70.61 328.50 72.57 326.97
  A 1.13 1.07 -18.4 0 0 72.99 326.18
  L 73.04 325.50
  Z"
/>
<path fill="#010000" fill-opacity="0.110" d="
  M 209.71 406.00
  L 209.74 406.31
  A 0.50 0.49 87.3 0 0 210.22 406.75
  L 210.55 406.75
  A 0.61 0.60 -2.7 0 1 211.14 407.28
  L 211.58 411.09
  A 0.64 0.64 0.0 0 1 211.09 411.79
  Q 207.91 412.54 205.38 410.51
  L 209.71 406.00
  Z"
/>
</svg>
