<?xml version="1.0" encoding="UTF-8" standalone="no"?>
<!DOCTYPE svg PUBLIC "-//W3C//DTD SVG 1.1//EN" "http://www.w3.org/Graphics/SVG/1.1/DTD/svg11.dtd">
<svg xmlns="http://www.w3.org/2000/svg" version="1.1" viewBox="0 0 499 499">
<path fill="#000000" d="
  M 385.98 71.39
  C 351.81 42.66 309.04 32.28 265.06 33.06
  C 202.76 34.17 144.20 63.52 106.03 112.30
  C 62.46 167.98 47.79 243.19 58.55 312.26
  C 71.35 394.41 132.58 455.24 216.51 463.37
  C 261.04 467.68 306.85 461.04 346.65 440.25
  A 1.01 1.00 65.9 0 1 348.05 440.79
  L 358.74 469.41
  A 1.01 1.00 -24.0 0 1 358.26 470.65
  Q 315.29 492.81 267.40 496.99
  C 259.23 497.71 248.33 497.90 238.73 498.24
  C 119.03 502.55 25.74 418.73 15.64 299.31
  C 3.60 156.89 92.27 20.83 239.82 2.66
  C 253.76 0.94 268.45 2.30 282.83 1.64
  C 315.89 0.12 350.09 8.88 379.64 24.04
  C 462.66 66.62 494.40 157.41 481.52 246.01
  C 472.63 307.15 434.67 371.09 366.45 377.18
  C 326.16 380.78 303.03 356.33 304.04 316.74
  C 304.09 314.90 302.94 313.67 301.18 315.03
  Q 300.21 315.78 299.58 316.82
  C 277.50 353.43 245.40 377.59 201.24 377.64
  C 150.80 377.71 122.79 334.88 122.92 288.26
  C 123.12 218.40 165.08 153.89 231.00 129.00
  C 273.61 112.91 325.77 113.85 367.95 132.26
  A 1.02 1.02 0.0 0 1 368.55 133.09
  Q 368.75 135.37 368.34 137.52
  Q 355.38 204.48 343.18 271.58
  C 339.90 289.56 334.75 329.80 355.76 340.18
  C 366.82 345.64 383.52 341.11 393.47 334.44
  C 424.07 313.91 438.15 274.61 442.22 238.74
  C 449.09 178.30 434.42 112.11 385.98 71.39
  Z
  M 169.87 289.44
  C 170.89 319.11 189.64 341.30 220.95 338.93
  C 242.20 337.32 261.96 321.74 274.94 305.43
  Q 298.38 275.99 305.33 238.91
  Q 312.23 202.10 318.99 165.24
  Q 319.47 162.60 319.40 161.06
  A 1.01 1.00 5.5 0 0 318.64 160.14
  Q 300.70 155.59 285.25 155.51
  C 214.21 155.18 167.64 224.29 169.87 289.44
  Z"
/>
</svg>
