<?xml version="1.0" encoding="UTF-8" ?>
<!DOCTYPE svg PUBLIC "-//W3C//DTD SVG 1.1//EN" "http://www.w3.org/Graphics/SVG/1.1/DTD/svg11.dtd">
<svg width="20" height="20" viewBox="0 0 20 20" version="1.1" xmlns="http://www.w3.org/2000/svg">
<g id="#020202c9">
<path fill="#020202" opacity="0.79" d=" M 8.37 0.00 L 13.79 0.00 C 19.43 1.80 21.52 9.34 17.81 13.82 C 16.25 15.83 13.69 14.87 11.74 14.16 C 9.95 14.55 8.13 15.52 6.27 14.87 C 3.86 12.49 4.82 8.28 7.24 6.26 C 9.31 4.23 12.42 4.97 15.03 4.80 C 14.38 7.99 14.09 11.26 14.36 14.52 C 17.19 12.55 18.84 9.05 17.40 5.70 C 15.76 0.80 8.89 0.27 5.42 3.46 C 1.47 6.90 1.00 14.32 5.58 17.43 C 8.53 19.12 12.01 18.07 15.18 17.88 C 14.38 18.58 13.57 19.29 12.77 20.00 L 6.91 20.00 C 3.92 18.73 0.98 16.44 0.66 12.95 C -0.50 7.38 3.01 1.73 8.37 0.00 M 8.63 7.55 C 7.00 8.87 7.15 11.14 6.77 13.00 C 11.34 14.82 12.40 9.38 12.99 6.17 C 11.53 6.55 9.79 6.44 8.63 7.55 Z" />
</g>
</svg>
