<?xml version="1.0" encoding="UTF-8" standalone="no"?>
<!DOCTYPE svg PUBLIC "-//W3C//DTD SVG 1.1//EN" "http://www.w3.org/Graphics/SVG/1.1/DTD/svg11.dtd">
<svg xmlns="http://www.w3.org/2000/svg" version="1.1" viewBox="0 0 271 271">
<path fill="#606060" d="
  M 191.31 0.00
  L 195.31 0.00
  Q 222.71 1.66 240.66 20.30
  C 262.27 42.75 265.32 77.46 247.68 103.13
  Q 244.16 108.27 234.40 118.04
  Q 165.66 186.86 96.84 255.60
  Q 82.54 269.88 62.19 271.00
  L 58.94 271.00
  C 17.66 269.11 -4.66 222.67 20.25 189.52
  Q 22.31 186.78 33.70 175.40
  Q 84.43 124.71 135.13 73.99
  Q 143.67 65.44 148.44 62.79
  C 179.79 45.36 213.90 81.07 195.93 111.68
  C 193.25 116.25 189.16 120.08 185.15 124.09
  Q 145.06 164.23 104.92 204.32
  C 95.00 214.23 81.97 201.20 92.30 190.85
  Q 132.96 150.13 173.67 109.45
  Q 179.53 103.60 181.04 100.01
  C 186.91 86.08 172.41 72.45 158.75 78.33
  Q 155.49 79.73 151.28 83.94
  Q 96.90 138.20 42.63 192.56
  Q 34.35 200.85 32.01 205.36
  C 20.72 227.05 36.63 252.92 61.15 252.48
  C 71.19 252.30 78.12 248.18 85.56 240.76
  Q 152.71 173.76 219.74 106.64
  Q 229.91 96.46 233.01 91.72
  Q 242.25 77.57 240.25 60.50
  C 236.34 27.23 201.19 8.90 171.45 23.74
  Q 164.82 27.05 158.18 33.68
  Q 102.11 89.63 46.20 145.76
  C 36.22 155.78 24.41 141.48 31.69 134.20
  Q 85.88 79.96 140.12 25.77
  Q 150.18 15.73 154.92 12.36
  Q 170.84 1.02 191.31 0.00
  Z"
/>
</svg>
