<?xml version="1.0" encoding="UTF-8" standalone="no"?>
<!DOCTYPE svg PUBLIC "-//W3C//DTD SVG 1.1//EN" "http://www.w3.org/Graphics/SVG/1.1/DTD/svg11.dtd">
<svg xmlns="http://www.w3.org/2000/svg" version="1.1" viewBox="0 0 512 258">
<g stroke-width="2.00" fill="none" stroke-linecap="butt">
<path stroke="#cccccc" stroke-opacity="0.627" d="
  M 17.56 34.52
  C 15.88 25.89 17.69 13.75 27.75 11.63
  Q 37.36 9.61 45.77 15.94
  A 0.30 0.30 0.0 0 0 46.25 15.70
  L 46.25 10.74
  Q 46.25 10.21 45.81 9.92
  C 26.20 -2.61 5.78 13.69 11.04 35.45
  C 15.01 51.88 32.29 56.36 45.81 47.86
  Q 46.25 47.58 46.25 47.05
  L 46.25 42.27
  A 0.41 0.40 70.6 0 0 45.59 41.95
  C 35.75 49.92 20.39 48.98 17.56 34.52"
/>
<path stroke="#cccccc" stroke-opacity="0.627" d="
  M 61.50 30.47
  A 0.49 0.49 0.0 0 1 61.99 29.98
  L 82.76 30.01
  A 0.49 0.49 0.0 0 1 83.25 30.50
  L 83.25 50.52
  A 0.49 0.49 0.0 0 0 83.71 51.01
  L 88.74 51.28
  A 0.49 0.49 0.0 0 0 89.26 50.79
  L 89.25 7.19
  A 0.49 0.49 0.0 0 0 88.77 6.70
  L 83.75 6.60
  A 0.49 0.49 0.0 0 0 83.25 7.09
  L 83.25 24.51
  A 0.49 0.49 0.0 0 1 82.76 25.00
  L 61.99 25.00
  A 0.49 0.49 0.0 0 1 61.50 24.51
  L 61.50 7.26
  A 0.49 0.49 0.0 0 0 61.02 6.77
  L 56.00 6.66
  A 0.49 0.49 0.0 0 0 55.50 7.15
  L 55.50 50.51
  A 0.49 0.49 0.0 0 0 55.99 51.00
  L 61.01 51.00
  A 0.49 0.49 0.0 0 0 61.50 50.51
  L 61.50 30.47"
/>
<path stroke="#cccccc" stroke-opacity="0.627" d="
  M 129.97 50.70
  A 0.74 0.74 0.0 0 0 130.66 51.20
  L 135.51 51.26
  A 0.74 0.74 0.0 0 0 136.21 50.25
  L 119.79 7.31
  A 0.74 0.74 0.0 0 0 119.14 6.84
  L 113.23 6.56
  A 0.74 0.74 0.0 0 0 112.51 7.04
  L 96.02 50.17
  A 0.74 0.74 0.0 0 0 96.71 51.18
  L 101.53 51.22
  A 0.74 0.74 0.0 0 0 102.23 50.73
  L 106.02 40.24
  A 0.74 0.74 0.0 0 1 106.72 39.75
  L 125.60 39.75
  A 0.74 0.74 0.0 0 1 126.29 40.24
  L 129.97 50.70"
/>
<path stroke="#cccccc" stroke-opacity="0.627" d="
  M 147.20 11.75
  A 0.55 0.55 0.0 0 1 147.75 12.30
  L 147.75 50.66
  A 0.55 0.55 0.0 0 0 148.31 51.21
  L 153.46 51.16
  A 0.55 0.55 0.0 0 0 154.00 50.61
  L 153.99 12.30
  A 0.55 0.55 0.0 0 1 154.54 11.75
  L 168.95 11.75
  A 0.55 0.55 0.0 0 0 169.50 11.20
  L 169.50 7.37
  A 0.55 0.55 0.0 0 0 168.96 6.82
  L 132.60 6.46
  A 0.55 0.55 0.0 0 0 132.04 7.00
  L 131.98 11.19
  A 0.55 0.55 0.0 0 0 132.53 11.75
  L 147.20 11.75"
/>
<path stroke="#2d8db7" stroke-opacity="0.627" d="
  M 177.75 98.21
  C 177.81 124.14 177.72 150.07 178.13 176.00
  C 178.36 190.52 185.17 207.69 199.83 212.96
  Q 204.08 214.49 212.85 214.66
  Q 252.76 215.47 292.69 215.50
  C 311.10 215.51 326.64 208.84 332.35 190.79
  Q 334.22 184.86 334.62 170.99
  C 335.28 147.80 334.60 124.75 334.62 101.58
  Q 334.64 88.64 333.78 83.75
  C 328.90 55.93 309.86 50.05 284.69 50.21
  Q 269.72 50.31 254.75 50.53
  C 245.21 50.66 235.55 50.09 228.57 45.43
  Q 210.64 33.47 193.68 25.82
  C 190.03 24.17 184.06 21.92 179.51 23.21
  Q 179.00 23.35 178.77 23.83
  C 176.63 28.42 178.32 35.14 179.60 39.22
  C 181.53 45.37 187.92 61.98 184.69 67.41
  C 178.78 77.34 177.72 85.60 177.75 98.21"
/>
<path stroke="#2d8db7" stroke-opacity="0.627" d="
  M 447.51 54.40
  C 427.43 54.18 407.34 54.47 387.26 54.41
  C 366.46 54.34 346.58 60.40 340.04 82.48
  Q 338.11 89.01 338.23 94.50
  C 338.63 113.03 337.87 131.65 338.08 150.00
  Q 338.24 164.72 338.23 179.44
  C 338.22 190.56 342.63 196.86 349.08 205.15
  A 1.13 1.12 -55.6 0 1 349.27 206.17
  Q 344.04 223.37 338.48 240.34
  C 336.42 246.63 338.90 251.66 346.25 249.57
  Q 366.92 243.71 382.71 227.96
  Q 392.48 218.22 405.86 212.06
  C 408.51 210.84 411.19 211.05 414.00 211.08
  Q 436.35 211.31 458.69 210.45
  Q 481.75 209.56 494.21 190.49
  Q 502.32 178.09 502.48 164.25
  Q 502.66 149.77 502.45 107.83
  Q 502.39 94.42 500.88 88.69
  C 496.67 72.74 483.07 60.19 467.36 56.13
  Q 461.21 54.55 447.51 54.40"
/>
<path stroke="#2d8db7" stroke-opacity="0.627" d="
  M 158.65 200.56
  C 166.83 193.10 173.57 182.18 174.18 170.99
  Q 174.94 157.04 174.27 105.63
  Q 174.15 96.24 173.48 92.41
  C 170.05 72.73 151.68 58.28 132.97 55.93
  Q 129.01 55.43 113.00 55.56
  Q 86.10 55.79 59.20 55.80
  C 52.72 55.80 44.29 56.23 39.25 57.49
  C 24.84 61.09 13.91 72.99 11.07 87.31
  Q 10.16 91.89 10.69 101.75
  C 12.06 127.15 10.34 152.80 10.25 176.54
  C 10.20 189.44 13.81 195.25 20.47 205.51
  Q 21.58 207.22 21.25 208.25
  Q 15.87 225.01 10.51 241.78
  C 7.84 250.13 13.00 252.37 20.24 250.09
  Q 37.53 244.63 49.68 233.68
  C 62.19 222.42 73.89 211.19 89.75 211.49
  Q 107.32 211.83 124.89 212.01
  C 138.16 212.15 149.54 208.88 158.65 200.56"
/>
<path stroke="#cccccc" stroke-opacity="0.627" d="
  M 108.21 34.25
  A 0.32 0.32 0.0 0 0 108.51 34.68
  L 123.67 34.68
  A 0.32 0.32 0.0 0 0 123.97 34.25
  L 116.39 13.69
  A 0.32 0.32 0.0 0 0 115.79 13.69
  L 108.21 34.25"
/>
<path stroke="#9cd8f2" d="
  M 237.08 157.29
  L 275.18 157.23
  A 1.60 1.60 0.0 0 1 276.78 158.86
  Q 276.56 170.32 277.15 181.68
  C 278.15 200.89 299.46 195.56 299.48 179.48
  Q 299.54 136.74 299.48 93.98
  Q 299.46 85.57 298.22 82.79
  C 294.04 73.51 276.61 76.02 276.71 88.16
  Q 276.91 112.40 276.63 136.78
  Q 276.62 137.45 275.96 137.45
  L 238.48 137.52
  Q 236.77 137.52 236.76 135.81
  Q 236.74 112.28 236.17 88.57
  C 235.89 76.99 219.76 71.97 215.21 83.41
  Q 214.29 85.73 214.20 91.20
  Q 213.42 135.19 213.33 179.19
  C 213.32 184.37 215.10 189.98 219.93 192.40
  C 224.73 194.80 233.12 193.12 235.03 187.26
  C 237.88 178.53 236.46 167.35 236.49 157.88
  Q 236.50 157.29 237.08 157.29"
/>
<path stroke="#9cd8f2" d="
  M 387.75 145.51
  C 408.39 144.67 429.27 145.30 449.95 145.20
  Q 458.49 145.15 462.07 144.07
  C 477.56 139.39 479.52 122.90 477.91 109.28
  C 475.76 91.13 470.29 79.36 449.54 78.36
  Q 419.66 76.91 389.75 77.66
  C 370.55 78.13 366.81 88.28 366.80 105.25
  Q 366.77 152.36 367.00 173.46
  C 367.03 176.86 367.56 179.32 368.52 182.45
  C 372.36 195.01 386.75 189.61 386.74 177.89
  C 386.73 167.90 385.65 155.80 387.13 146.06
  Q 387.21 145.53 387.75 145.51"
/>
<path stroke="#9cd8f2" d="
  M 149.05 127.00
  C 151.51 107.55 149.52 80.37 123.43 78.94
  Q 96.00 77.43 68.53 78.30
  Q 54.75 78.73 50.12 80.83
  Q 39.33 85.74 39.29 101.02
  Q 39.12 161.11 39.30 178.19
  C 39.36 184.73 45.15 192.71 52.39 189.91
  C 58.94 187.39 58.46 179.44 58.69 172.75
  Q 59.15 159.79 58.97 146.99
  A 0.46 0.46 0.0 0 1 59.42 146.52
  Q 89.23 145.56 118.98 145.72
  C 135.06 145.80 146.75 145.14 149.05 127.00"
/>
<path stroke="#9cd8f2" d="
  M 455.34 124.72
  Q 455.99 123.95 456.14 122.95
  Q 457.48 114.13 456.29 104.57
  C 455.49 98.20 449.22 96.54 443.74 96.56
  Q 415.81 96.67 387.75 96.79
  Q 387.25 96.79 387.25 97.29
  L 387.25 125.25
  A 1.09 1.09 0.0 0 0 388.35 126.34
  Q 421.10 126.10 453.19 125.77
  Q 454.48 125.76 455.34 124.72"
/>
<path stroke="#9cd8f2" d="
  M 127.31 101.93
  C 125.47 98.04 117.65 97.62 113.25 97.57
  Q 86.40 97.29 59.99 97.80
  A 1.02 1.02 0.0 0 0 58.99 98.82
  L 59.02 125.41
  Q 59.03 126.92 60.47 127.41
  C 62.95 128.24 66.66 127.51 68.80 127.50
  Q 95.40 127.43 122.00 127.77
  C 125.91 127.83 127.96 126.12 128.70 122.20
  C 129.91 115.78 130.18 107.97 127.31 101.93"
/>
</g>
<path fill="#000000" fill-opacity="0.251" d="
  M 25.31 0.00
  L 40.81 0.00
  L 46.77 2.07
  Q 47.27 2.25 47.49 2.73
  Q 47.94 3.74 49.19 3.50
  Q 49.62 3.41 49.97 3.14
  L 53.23 0.61
  Q 53.66 0.27 54.21 0.26
  C 60.48 0.18 67.86 -0.80 68.16 8.00
  Q 68.31 12.59 68.24 17.18
  Q 68.23 17.75 68.80 17.75
  L 75.66 17.74
  Q 76.48 17.74 76.38 16.92
  Q 75.75 11.24 77.00 5.93
  C 78.52 -0.46 83.55 -0.09 88.76 0.33
  Q 96.02 0.93 96.00 9.26
  Q 95.97 18.35 96.01 27.48
  Q 96.02 27.99 96.53 28.00
  Q 96.66 28.00 96.78 28.00
  Q 97.06 27.99 97.15 27.73
  Q 100.49 18.84 103.95 9.99
  Q 106.13 4.41 109.17 1.09
  Q 109.51 0.72 110.01 0.64
  Q 116.79 -0.51 123.31 1.74
  Q 123.77 1.89 124.11 2.24
  Q 124.77 2.92 125.79 3.01
  Q 126.30 3.05 126.65 2.68
  Q 129.03 0.25 131.50 0.25
  C 144.57 0.25 158.00 -0.34 171.01 0.67
  C 172.78 0.81 173.59 1.63 174.86 2.67
  Q 175.26 3.00 175.37 3.49
  C 176.13 6.65 176.83 13.17 174.81 15.96
  C 172.51 19.13 165.04 18.67 161.63 18.81
  A 1.27 1.27 0.0 0 0 160.41 20.10
  C 160.52 29.27 160.19 38.69 160.58 48.05
  Q 160.77 52.63 157.91 56.16
  A 1.26 1.26 0.0 0 0 158.16 57.99
  C 164.25 62.27 169.29 66.53 173.06 73.03
  A 0.62 0.61 41.6 0 0 174.16 72.97
  C 176.55 67.41 179.89 63.51 177.82 56.84
  C 175.21 48.44 163.12 17.75 180.08 16.09
  Q 186.97 15.42 193.49 18.00
  C 206.60 23.18 219.48 30.57 231.20 38.53
  C 237.14 42.56 242.71 43.26 250.50 43.77
  Q 257.43 44.23 266.00 43.76
  Q 284.75 42.73 305.75 44.72
  Q 306.34 44.77 306.58 45.15
  Q 306.83 45.53 307.28 45.59
  C 320.71 47.58 330.39 55.39 336.15 67.75
  A 1.33 1.33 0.0 0 0 338.39 68.03
  C 340.35 65.59 342.14 62.97 344.56 61.00
  Q 349.29 57.15 354.64 54.30
  C 362.53 50.11 371.94 49.71 379.89 48.53
  C 388.31 47.29 397.71 48.00 406.26 47.99
  Q 411.24 47.99 420.23 48.60
  C 433.73 49.51 449.43 47.38 460.56 48.12
  Q 465.37 48.45 473.55 50.75
  C 481.70 53.05 490.53 58.97 495.80 64.96
  Q 505.67 76.17 507.99 90.49
  C 508.46 93.39 509.15 96.21 509.21 98.80
  Q 510.13 143.03 509.14 167.07
  C 508.99 170.58 507.16 176.04 505.87 180.70
  C 501.39 196.80 491.11 208.22 475.82 213.93
  Q 467.50 217.03 459.49 216.73
  Q 458.35 216.69 457.78 217.17
  Q 457.41 217.48 456.93 217.49
  Q 440.34 217.59 418.00 217.19
  C 408.68 217.02 399.47 222.19 392.48 228.36
  C 382.28 237.37 373.07 246.79 360.57 251.84
  Q 357.27 253.18 347.45 256.24
  C 345.10 256.97 342.94 256.75 340.53 256.75
  Q 340.02 256.75 339.63 256.43
  Q 338.62 255.59 337.23 255.59
  Q 336.75 255.59 336.38 255.30
  Q 333.07 252.75 332.70 251.55
  Q 330.33 243.89 332.53 236.50
  Q 334.94 228.34 341.71 208.02
  Q 341.86 207.59 341.58 207.22
  L 337.15 201.26
  A 0.85 0.85 0.0 0 0 335.75 201.30
  Q 326.78 214.90 312.93 219.65
  Q 310.34 220.54 305.38 221.08
  C 301.97 221.46 298.55 222.23 295.17 222.24
  Q 277.22 222.26 259.25 222.18
  C 257.75 222.18 256.18 221.78 254.82 221.77
  Q 240.73 221.73 226.63 221.76
  C 225.42 221.76 224.14 220.99 223.19 221.00
  Q 212.15 221.13 201.12 220.80
  Q 200.64 220.79 200.26 220.48
  C 199.30 219.71 198.13 219.77 197.29 219.50
  C 190.44 217.27 186.94 213.81 182.78 209.39
  C 178.86 205.24 176.90 199.87 174.71 194.84
  A 1.03 1.02 -39.4 0 0 172.93 194.67
  C 165.38 205.63 154.94 213.75 141.85 216.55
  Q 131.84 218.69 127.31 218.69
  Q 107.11 218.68 86.91 218.39
  Q 83.58 218.34 80.89 219.39
  C 68.20 224.37 60.18 234.90 48.85 242.86
  C 40.16 248.97 31.22 254.89 21.50 256.78
  C 18.58 257.34 11.03 257.48 8.05 255.87
  Q 3.80 253.58 3.57 247.93
  Q 3.55 247.43 3.27 247.03
  C 1.96 245.17 4.92 236.91 5.82 234.07
  Q 8.85 224.47 11.88 214.88
  C 12.98 211.40 14.41 209.79 12.06 206.12
  Q 7.28 198.67 4.66 190.22
  C 4.15 188.61 4.63 186.52 3.52 184.76
  Q 3.25 184.33 3.25 183.83
  Q 3.26 166.48 3.24 149.16
  C 3.24 147.60 4.23 146.57 4.24 145.07
  Q 4.27 125.17 4.24 105.26
  Q 4.24 104.42 3.65 102.36
  C 2.26 97.48 4.42 90.98 4.84 86.33
  C 5.86 75.05 12.35 65.62 21.09 58.07
  A 0.57 0.57 0.0 0 0 21.14 57.25
  Q 20.45 56.48 19.32 56.77
  Q 18.80 56.90 18.37 56.56
  L 10.63 50.46
  Q 10.27 50.17 10.28 49.71
  Q 10.30 48.77 9.40 48.47
  Q 8.89 48.30 8.62 47.83
  C 7.04 45.06 5.66 42.72 5.05 39.48
  C 4.37 35.82 3.45 32.02 3.47 28.47
  C 3.55 14.72 10.73 2.03 25.31 0.00
  Z
  M 17.56 34.52
  C 15.88 25.89 17.69 13.75 27.75 11.63
  Q 37.36 9.61 45.77 15.94
  A 0.30 0.30 0.0 0 0 46.25 15.70
  L 46.25 10.74
  Q 46.25 10.21 45.81 9.92
  C 26.20 -2.61 5.78 13.69 11.04 35.45
  C 15.01 51.88 32.29 56.36 45.81 47.86
  Q 46.25 47.58 46.25 47.05
  L 46.25 42.27
  A 0.41 0.40 70.6 0 0 45.59 41.95
  C 35.75 49.92 20.39 48.98 17.56 34.52
  Z
  M 61.50 30.47
  A 0.49 0.49 0.0 0 1 61.99 29.98
  L 82.76 30.01
  A 0.49 0.49 0.0 0 1 83.25 30.50
  L 83.25 50.52
  A 0.49 0.49 0.0 0 0 83.71 51.01
  L 88.74 51.28
  A 0.49 0.49 0.0 0 0 89.26 50.79
  L 89.25 7.19
  A 0.49 0.49 0.0 0 0 88.77 6.70
  L 83.75 6.60
  A 0.49 0.49 0.0 0 0 83.25 7.09
  L 83.25 24.51
  A 0.49 0.49 0.0 0 1 82.76 25.00
  L 61.99 25.00
  A 0.49 0.49 0.0 0 1 61.50 24.51
  L 61.50 7.26
  A 0.49 0.49 0.0 0 0 61.02 6.77
  L 56.00 6.66
  A 0.49 0.49 0.0 0 0 55.50 7.15
  L 55.50 50.51
  A 0.49 0.49 0.0 0 0 55.99 51.00
  L 61.01 51.00
  A 0.49 0.49 0.0 0 0 61.50 50.51
  L 61.50 30.47
  Z
  M 129.97 50.70
  A 0.74 0.74 0.0 0 0 130.66 51.20
  L 135.51 51.26
  A 0.74 0.74 0.0 0 0 136.21 50.25
  L 119.79 7.31
  A 0.74 0.74 0.0 0 0 119.14 6.84
  L 113.23 6.56
  A 0.74 0.74 0.0 0 0 112.51 7.04
  L 96.02 50.17
  A 0.74 0.74 0.0 0 0 96.71 51.18
  L 101.53 51.22
  A 0.74 0.74 0.0 0 0 102.23 50.73
  L 106.02 40.24
  A 0.74 0.74 0.0 0 1 106.72 39.75
  L 125.60 39.75
  A 0.74 0.74 0.0 0 1 126.29 40.24
  L 129.97 50.70
  Z
  M 147.20 11.75
  A 0.55 0.55 0.0 0 1 147.75 12.30
  L 147.75 50.66
  A 0.55 0.55 0.0 0 0 148.31 51.21
  L 153.46 51.16
  A 0.55 0.55 0.0 0 0 154.00 50.61
  L 153.99 12.30
  A 0.55 0.55 0.0 0 1 154.54 11.75
  L 168.95 11.75
  A 0.55 0.55 0.0 0 0 169.50 11.20
  L 169.50 7.37
  A 0.55 0.55 0.0 0 0 168.96 6.82
  L 132.60 6.46
  A 0.55 0.55 0.0 0 0 132.04 7.00
  L 131.98 11.19
  A 0.55 0.55 0.0 0 0 132.53 11.75
  L 147.20 11.75
  Z
  M 37.06 38.92
  C 41.45 36.49 43.29 35.38 47.79 35.78
  A 1.11 1.11 0.0 0 0 49.00 34.67
  L 49.00 22.56
  A 0.93 0.93 0.0 0 0 47.94 21.64
  Q 42.74 22.35 38.54 19.86
  C 27.47 13.28 21.29 24.53 24.47 33.98
  C 26.35 39.60 31.86 41.79 37.06 38.92
  Z
  M 137.10 33.80
  Q 138.20 37.91 140.48 41.64
  A 0.42 0.41 29.5 0 0 141.25 41.43
  L 141.25 19.56
  Q 141.25 18.86 140.56 18.83
  L 133.46 18.49
  A 1.32 1.32 0.0 0 0 132.16 20.28
  Q 134.62 26.70 136.75 33.25
  Q 136.81 33.44 136.81 33.44
  Q 136.91 33.47 137.00 33.50
  Q 137.02 33.51 137.10 33.80
  Z
  M 177.75 98.21
  C 177.81 124.14 177.72 150.07 178.13 176.00
  C 178.36 190.52 185.17 207.69 199.83 212.96
  Q 204.08 214.49 212.85 214.66
  Q 252.76 215.47 292.69 215.50
  C 311.10 215.51 326.64 208.84 332.35 190.79
  Q 334.22 184.86 334.62 170.99
  C 335.28 147.80 334.60 124.75 334.62 101.58
  Q 334.64 88.64 333.78 83.75
  C 328.90 55.93 309.86 50.05 284.69 50.21
  Q 269.72 50.31 254.75 50.53
  C 245.21 50.66 235.55 50.09 228.57 45.43
  Q 210.64 33.47 193.68 25.82
  C 190.03 24.17 184.06 21.92 179.51 23.21
  Q 179.00 23.35 178.77 23.83
  C 176.63 28.42 178.32 35.14 179.60 39.22
  C 181.53 45.37 187.92 61.98 184.69 67.41
  C 178.78 77.34 177.72 85.60 177.75 98.21
  Z
  M 76.2243 37.8085
  A 1.10 1.10 0.0 0 0 75.1185 36.7143
  L 69.0786 36.7459
  A 1.10 1.10 0.0 0 0 67.9844 37.8516
  L 68.0357 47.6515
  A 1.10 1.10 0.0 0 0 69.1415 48.7457
  L 75.1814 48.7141
  A 1.10 1.10 0.0 0 0 76.2756 47.6084
  L 76.2243 37.8085
  Z
  M 121.27 47.63
  C 121.38 44.49 112.77 46.04 111.16 46.89
  A 1.10 1.10 0.0 0 0 111.57 48.96
  Q 116.24 49.40 120.68 48.34
  Q 121.24 48.21 121.27 47.63
  Z
  M 447.51 54.40
  C 427.43 54.18 407.34 54.47 387.26 54.41
  C 366.46 54.34 346.58 60.40 340.04 82.48
  Q 338.11 89.01 338.23 94.50
  C 338.63 113.03 337.87 131.65 338.08 150.00
  Q 338.24 164.72 338.23 179.44
  C 338.22 190.56 342.63 196.86 349.08 205.15
  A 1.13 1.12 -55.6 0 1 349.27 206.17
  Q 344.04 223.37 338.48 240.34
  C 336.42 246.63 338.90 251.66 346.25 249.57
  Q 366.92 243.71 382.71 227.96
  Q 392.48 218.22 405.86 212.06
  C 408.51 210.84 411.19 211.05 414.00 211.08
  Q 436.35 211.31 458.69 210.45
  Q 481.75 209.56 494.21 190.49
  Q 502.32 178.09 502.48 164.25
  Q 502.66 149.77 502.45 107.83
  Q 502.39 94.42 500.88 88.69
  C 496.67 72.74 483.07 60.19 467.36 56.13
  Q 461.21 54.55 447.51 54.40
  Z
  M 158.65 200.56
  C 166.83 193.10 173.57 182.18 174.18 170.99
  Q 174.94 157.04 174.27 105.63
  Q 174.15 96.24 173.48 92.41
  C 170.05 72.73 151.68 58.28 132.97 55.93
  Q 129.01 55.43 113.00 55.56
  Q 86.10 55.79 59.20 55.80
  C 52.72 55.80 44.29 56.23 39.25 57.49
  C 24.84 61.09 13.91 72.99 11.07 87.31
  Q 10.16 91.89 10.69 101.75
  C 12.06 127.15 10.34 152.80 10.25 176.54
  C 10.20 189.44 13.81 195.25 20.47 205.51
  Q 21.58 207.22 21.25 208.25
  Q 15.87 225.01 10.51 241.78
  C 7.84 250.13 13.00 252.37 20.24 250.09
  Q 37.53 244.63 49.68 233.68
  C 62.19 222.42 73.89 211.19 89.75 211.49
  Q 107.32 211.83 124.89 212.01
  C 138.16 212.15 149.54 208.88 158.65 200.56
  Z"
/>
<path fill="#ffffff" d="
  M 27.75 11.63
  C 17.69 13.75 15.88 25.89 17.56 34.52
  C 20.39 48.98 35.75 49.92 45.59 41.95
  A 0.41 0.40 70.6 0 1 46.25 42.27
  L 46.25 47.05
  Q 46.25 47.58 45.81 47.86
  C 32.29 56.36 15.01 51.88 11.04 35.45
  C 5.78 13.69 26.20 -2.61 45.81 9.92
  Q 46.25 10.21 46.25 10.74
  L 46.25 15.70
  A 0.30 0.30 0.0 0 1 45.77 15.94
  Q 37.36 9.61 27.75 11.63
  Z"
/>
<path fill="#ffffff" d="
  M 61.50 30.47
  L 61.50 50.51
  A 0.49 0.49 0.0 0 1 61.01 51.00
  L 55.99 51.00
  A 0.49 0.49 0.0 0 1 55.50 50.51
  L 55.50 7.15
  A 0.49 0.49 0.0 0 1 56.00 6.66
  L 61.02 6.77
  A 0.49 0.49 0.0 0 1 61.50 7.26
  L 61.50 24.51
  A 0.49 0.49 0.0 0 0 61.99 25.00
  L 82.76 25.00
  A 0.49 0.49 0.0 0 0 83.25 24.51
  L 83.25 7.09
  A 0.49 0.49 0.0 0 1 83.75 6.60
  L 88.77 6.70
  A 0.49 0.49 0.0 0 1 89.25 7.19
  L 89.26 50.79
  A 0.49 0.49 0.0 0 1 88.74 51.28
  L 83.71 51.01
  A 0.49 0.49 0.0 0 1 83.25 50.52
  L 83.25 30.50
  A 0.49 0.49 0.0 0 0 82.76 30.01
  L 61.99 29.98
  A 0.49 0.49 0.0 0 0 61.50 30.47
  Z"
/>
<path fill="#ffffff" d="
  M 129.97 50.70
  L 126.29 40.24
  A 0.74 0.74 0.0 0 0 125.60 39.75
  L 106.72 39.75
  A 0.74 0.74 0.0 0 0 106.02 40.24
  L 102.23 50.73
  A 0.74 0.74 0.0 0 1 101.53 51.22
  L 96.71 51.18
  A 0.74 0.74 0.0 0 1 96.02 50.17
  L 112.51 7.04
  A 0.74 0.74 0.0 0 1 113.23 6.56
  L 119.14 6.84
  A 0.74 0.74 0.0 0 1 119.79 7.31
  L 136.21 50.25
  A 0.74 0.74 0.0 0 1 135.51 51.26
  L 130.66 51.20
  A 0.74 0.74 0.0 0 1 129.97 50.70
  Z
  M 108.21 34.25
  A 0.32 0.32 0.0 0 0 108.51 34.68
  L 123.67 34.68
  A 0.32 0.32 0.0 0 0 123.97 34.25
  L 116.39 13.69
  A 0.32 0.32 0.0 0 0 115.79 13.69
  L 108.21 34.25
  Z"
/>
<path fill="#ffffff" d="
  M 147.20 11.75
  L 132.53 11.75
  A 0.55 0.55 0.0 0 1 131.98 11.19
  L 132.04 7.00
  A 0.55 0.55 0.0 0 1 132.60 6.46
  L 168.96 6.82
  A 0.55 0.55 0.0 0 1 169.50 7.37
  L 169.50 11.20
  A 0.55 0.55 0.0 0 1 168.95 11.75
  L 154.54 11.75
  A 0.55 0.55 0.0 0 0 153.99 12.30
  L 154.00 50.61
  A 0.55 0.55 0.0 0 1 153.46 51.16
  L 148.31 51.21
  A 0.55 0.55 0.0 0 1 147.75 50.66
  L 147.75 12.30
  A 0.55 0.55 0.0 0 0 147.20 11.75
  Z"
/>
<path fill="#000000" fill-opacity="0.251" d="
  M 108.21 34.25
  L 115.79 13.69
  A 0.32 0.32 0.0 0 1 116.39 13.69
  L 123.97 34.25
  A 0.32 0.32 0.0 0 1 123.67 34.68
  L 108.51 34.68
  A 0.32 0.32 0.0 0 1 108.21 34.25
  Z"
/>
<path fill="#38b0e5" d="
  M 178.13 176.00
  C 177.72 150.07 177.81 124.14 177.75 98.21
  C 177.72 85.60 178.78 77.34 184.69 67.41
  C 187.92 61.98 181.53 45.37 179.60 39.22
  C 178.32 35.14 176.63 28.42 178.77 23.83
  Q 179.00 23.35 179.51 23.21
  C 184.06 21.92 190.03 24.17 193.68 25.82
  Q 210.64 33.47 228.57 45.43
  C 235.55 50.09 245.21 50.66 254.75 50.53
  Q 269.72 50.31 284.69 50.21
  C 309.86 50.05 328.90 55.93 333.78 83.75
  Q 334.64 88.64 334.62 101.58
  C 334.60 124.75 335.28 147.80 334.62 170.99
  Q 334.22 184.86 332.35 190.79
  C 326.64 208.84 311.10 215.51 292.69 215.50
  Q 252.76 215.47 212.85 214.66
  Q 204.08 214.49 199.83 212.96
  C 185.17 207.69 178.36 190.52 178.13 176.00
  Z
  M 237.08 157.29
  L 275.18 157.23
  A 1.60 1.60 0.0 0 1 276.78 158.86
  Q 276.56 170.32 277.15 181.68
  C 278.15 200.89 299.46 195.56 299.48 179.48
  Q 299.54 136.74 299.48 93.98
  Q 299.46 85.57 298.22 82.79
  C 294.04 73.51 276.61 76.02 276.71 88.16
  Q 276.91 112.40 276.63 136.78
  Q 276.62 137.45 275.96 137.45
  L 238.48 137.52
  Q 236.77 137.52 236.76 135.81
  Q 236.74 112.28 236.17 88.57
  C 235.89 76.99 219.76 71.97 215.21 83.41
  Q 214.29 85.73 214.20 91.20
  Q 213.42 135.19 213.33 179.19
  C 213.32 184.37 215.10 189.98 219.93 192.40
  C 224.73 194.80 233.12 193.12 235.03 187.26
  C 237.88 178.53 236.46 167.35 236.49 157.88
  Q 236.50 157.29 237.08 157.29
  Z"
/>
<path fill="#38b0e5" d="
  M 387.26 54.41
  C 407.34 54.47 427.43 54.18 447.51 54.40
  Q 461.21 54.55 467.36 56.13
  C 483.07 60.19 496.67 72.74 500.88 88.69
  Q 502.39 94.42 502.45 107.83
  Q 502.66 149.77 502.48 164.25
  Q 502.32 178.09 494.21 190.49
  Q 481.75 209.56 458.69 210.45
  Q 436.35 211.31 414.00 211.08
  C 411.19 211.05 408.51 210.84 405.86 212.06
  Q 392.48 218.22 382.71 227.96
  Q 366.92 243.71 346.25 249.57
  C 338.90 251.66 336.42 246.63 338.48 240.34
  Q 344.04 223.37 349.27 206.17
  A 1.13 1.12 -55.6 0 0 349.08 205.15
  C 342.63 196.86 338.22 190.56 338.23 179.44
  Q 338.24 164.72 338.08 150.00
  C 337.87 131.65 338.63 113.03 338.23 94.50
  Q 338.11 89.01 340.04 82.48
  C 346.58 60.40 366.46 54.34 387.26 54.41
  Z
  M 387.75 145.51
  C 408.39 144.67 429.27 145.30 449.95 145.20
  Q 458.49 145.15 462.07 144.07
  C 477.56 139.39 479.52 122.90 477.91 109.28
  C 475.76 91.13 470.29 79.36 449.54 78.36
  Q 419.66 76.91 389.75 77.66
  C 370.55 78.13 366.81 88.28 366.80 105.25
  Q 366.77 152.36 367.00 173.46
  C 367.03 176.86 367.56 179.32 368.52 182.45
  C 372.36 195.01 386.75 189.61 386.74 177.89
  C 386.73 167.90 385.65 155.80 387.13 146.06
  Q 387.21 145.53 387.75 145.51
  Z"
/>
<path fill="#38b0e5" d="
  M 158.65 200.56
  C 149.54 208.88 138.16 212.15 124.89 212.01
  Q 107.32 211.83 89.75 211.49
  C 73.89 211.19 62.19 222.42 49.68 233.68
  Q 37.53 244.63 20.24 250.09
  C 13.00 252.37 7.84 250.13 10.51 241.78
  Q 15.87 225.01 21.25 208.25
  Q 21.58 207.22 20.47 205.51
  C 13.81 195.25 10.20 189.44 10.25 176.54
  C 10.34 152.80 12.06 127.15 10.69 101.75
  Q 10.16 91.89 11.07 87.31
  C 13.91 72.99 24.84 61.09 39.25 57.49
  C 44.29 56.23 52.72 55.80 59.20 55.80
  Q 86.10 55.79 113.00 55.56
  Q 129.01 55.43 132.97 55.93
  C 151.68 58.28 170.05 72.73 173.48 92.41
  Q 174.15 96.24 174.27 105.63
  Q 174.94 157.04 174.18 170.99
  C 173.57 182.18 166.83 193.10 158.65 200.56
  Z
  M 149.05 127.00
  C 151.51 107.55 149.52 80.37 123.43 78.94
  Q 96.00 77.43 68.53 78.30
  Q 54.75 78.73 50.12 80.83
  Q 39.33 85.74 39.29 101.02
  Q 39.12 161.11 39.30 178.19
  C 39.36 184.73 45.15 192.71 52.39 189.91
  C 58.94 187.39 58.46 179.44 58.69 172.75
  Q 59.15 159.79 58.97 146.99
  A 0.46 0.46 0.0 0 1 59.42 146.52
  Q 89.23 145.56 118.98 145.72
  C 135.06 145.80 146.75 145.14 149.05 127.00
  Z"
/>
<path fill="#ffffff" d="
  M 236.49 157.88
  C 236.46 167.35 237.88 178.53 235.03 187.26
  C 233.12 193.12 224.73 194.80 219.93 192.40
  C 215.10 189.98 213.32 184.37 213.33 179.19
  Q 213.42 135.19 214.20 91.20
  Q 214.29 85.73 215.21 83.41
  C 219.76 71.97 235.89 76.99 236.17 88.57
  Q 236.74 112.28 236.76 135.81
  Q 236.77 137.52 238.48 137.52
  L 275.96 137.45
  Q 276.62 137.45 276.63 136.78
  Q 276.91 112.40 276.71 88.16
  C 276.61 76.02 294.04 73.51 298.22 82.79
  Q 299.46 85.57 299.48 93.98
  Q 299.54 136.74 299.48 179.48
  C 299.46 195.56 278.15 200.89 277.15 181.68
  Q 276.56 170.32 276.78 158.86
  A 1.60 1.60 0.0 0 0 275.18 157.23
  L 237.08 157.29
  Q 236.50 157.29 236.49 157.88
  Z"
/>
<path fill="#ffffff" d="
  M 387.13 146.06
  C 385.65 155.80 386.73 167.90 386.74 177.89
  C 386.75 189.61 372.36 195.01 368.52 182.45
  C 367.56 179.32 367.03 176.86 367.00 173.46
  Q 366.77 152.36 366.80 105.25
  C 366.81 88.28 370.55 78.13 389.75 77.66
  Q 419.66 76.91 449.54 78.36
  C 470.29 79.36 475.76 91.13 477.91 109.28
  C 479.52 122.90 477.56 139.39 462.07 144.07
  Q 458.49 145.15 449.95 145.20
  C 429.27 145.30 408.39 144.67 387.75 145.51
  Q 387.21 145.53 387.13 146.06
  Z
  M 455.34 124.72
  Q 455.99 123.95 456.14 122.95
  Q 457.48 114.13 456.29 104.57
  C 455.49 98.20 449.22 96.54 443.74 96.56
  Q 415.81 96.67 387.75 96.79
  Q 387.25 96.79 387.25 97.29
  L 387.25 125.25
  A 1.09 1.09 0.0 0 0 388.35 126.34
  Q 421.10 126.10 453.19 125.77
  Q 454.48 125.76 455.34 124.72
  Z"
/>
<path fill="#ffffff" d="
  M 123.43 78.94
  C 149.52 80.37 151.51 107.55 149.05 127.00
  C 146.75 145.14 135.06 145.80 118.98 145.72
  Q 89.23 145.56 59.42 146.52
  A 0.46 0.46 0.0 0 0 58.97 146.99
  Q 59.15 159.79 58.69 172.75
  C 58.46 179.44 58.94 187.39 52.39 189.91
  C 45.15 192.71 39.36 184.73 39.30 178.19
  Q 39.12 161.11 39.29 101.02
  Q 39.33 85.74 50.12 80.83
  Q 54.75 78.73 68.53 78.30
  Q 96.00 77.43 123.43 78.94
  Z
  M 127.31 101.93
  C 125.47 98.04 117.65 97.62 113.25 97.57
  Q 86.40 97.29 59.99 97.80
  A 1.02 1.02 0.0 0 0 58.99 98.82
  L 59.02 125.41
  Q 59.03 126.92 60.47 127.41
  C 62.95 128.24 66.66 127.51 68.80 127.50
  Q 95.40 127.43 122.00 127.77
  C 125.91 127.83 127.96 126.12 128.70 122.20
  C 129.91 115.78 130.18 107.97 127.31 101.93
  Z"
/>
<path fill="#38b0e5" d="
  M 455.34 124.72
  Q 454.48 125.76 453.19 125.77
  Q 421.10 126.10 388.35 126.34
  A 1.09 1.09 0.0 0 1 387.25 125.25
  L 387.25 97.29
  Q 387.25 96.79 387.75 96.79
  Q 415.81 96.67 443.74 96.56
  C 449.22 96.54 455.49 98.20 456.29 104.57
  Q 457.48 114.13 456.14 122.95
  Q 455.99 123.95 455.34 124.72
  Z"
/>
<path fill="#38b0e5" d="
  M 113.25 97.57
  C 117.65 97.62 125.47 98.04 127.31 101.93
  C 130.18 107.97 129.91 115.78 128.70 122.20
  C 127.96 126.12 125.91 127.83 122.00 127.77
  Q 95.40 127.43 68.80 127.50
  C 66.66 127.51 62.95 128.24 60.47 127.41
  Q 59.03 126.92 59.02 125.41
  L 58.99 98.82
  A 1.02 1.02 0.0 0 1 59.99 97.80
  Q 86.40 97.29 113.25 97.57
  Z"
/>
</svg>
