<?xml version="1.0" encoding="UTF-8" standalone="no"?>
<!DOCTYPE svg PUBLIC "-//W3C//DTD SVG 1.1//EN" "http://www.w3.org/Graphics/SVG/1.1/DTD/svg11.dtd">
<svg xmlns="http://www.w3.org/2000/svg" version="1.1" viewBox="0 0 1024 515">
<g stroke-width="2.00" fill="none" stroke-linecap="butt">
<path stroke="#28517B" d="
  M 434.44 385.81
  C 445.00 393.77 460.93 391.46 467.59 379.99
  C 471.16 373.84 472.13 363.36 472.24 355.75
  Q 472.47 340.19 471.51 321.94
  Q 471.40 319.75 471.89 317.50
  Q 472.00 317.01 472.46 316.82
  Q 473.76 316.28 474.81 316.27
  Q 490.22 316.19 551.69 316.27
  C 553.50 316.27 554.54 317.56 554.52 319.40
  Q 554.33 342.42 555.17 365.44
  Q 555.40 371.51 557.37 377.14
  C 563.53 394.68 582.55 395.78 593.55 382.46
  C 599.93 374.74 601.24 365.83 601.24 355.76
  Q 601.27 271.03 601.23 186.31
  C 601.23 178.96 600.95 171.38 599.02 165.49
  C 593.22 147.78 562.85 149.33 555.85 165.46
  Q 554.49 168.61 554.49 174.73
  Q 554.51 224.59 554.49 273.99
  A 1.76 1.76 0.0 0 1 552.73 275.75
  L 474.30 275.75
  A 1.70 1.70 0.0 0 1 472.60 274.05
  Q 472.50 225.65 471.41 177.32
  C 471.13 164.79 463.44 153.73 450.40 152.40
  C 440.62 151.40 431.17 157.14 427.84 166.40
  Q 426.34 170.60 426.18 181.77
  Q 424.81 277.46 424.75 362.00
  C 424.75 370.32 427.43 380.53 434.44 385.81"
/>
<path stroke="#28517B" d="
  M 780.58 293.50
  Q 780.94 291.99 782.49 291.99
  Q 846.25 292.02 909.79 291.98
  Q 919.74 291.98 924.57 291.36
  C 975.57 284.85 970.93 226.61 961.22 190.75
  C 953.96 163.96 928.19 155.50 903.24 154.55
  Q 848.42 152.44 793.58 153.64
  Q 778.75 153.97 777.43 154.09
  C 747.18 156.82 739.02 176.97 738.99 204.16
  Q 738.91 300.01 739.37 352.31
  C 739.45 361.59 742.76 374.07 750.22 379.50
  C 761.14 387.47 775.43 378.39 778.93 367.13
  Q 780.15 363.21 779.82 353.29
  Q 778.89 324.63 780.30 296.00
  Q 780.39 294.27 780.58 293.50"
/>
<path stroke="#28517B" d="
  M 265.09 162.72
  C 253.88 157.15 239.67 156.02 226.25 155.48
  C 189.25 153.98 155.66 154.38 122.04 155.21
  C 108.46 155.55 99.59 155.38 90.01 159.76
  C 74.95 166.63 67.93 182.00 67.97 198.01
  Q 68.04 227.75 67.67 257.48
  Q 67.67 257.87 67.88 258.20
  Q 68.03 258.44 68.03 258.75
  Q 67.92 308.41 68.13 358.05
  Q 68.20 373.43 79.93 381.23
  C 93.51 390.25 106.75 377.68 107.34 364.00
  Q 108.83 329.65 108.43 296.01
  A 1.89 1.89 0.0 0 1 110.27 294.10
  Q 179.14 292.24 247.33 293.01
  C 294.32 293.54 297.09 253.35 293.77 218.11
  C 291.74 196.62 286.34 173.28 265.09 162.72"
/>
<path stroke="#28517B" d="
  M 780.75 194.24
  L 780.75 250.94
  Q 780.75 252.20 782.00 252.38
  Q 785.24 252.85 787.50 252.85
  Q 849.50 252.70 911.50 252.52
  C 917.69 252.50 921.59 251.17 922.24 244.25
  Q 924.01 225.31 922.38 209.70
  C 920.63 192.91 902.84 191.76 889.58 191.97
  Q 836.12 192.82 782.21 192.78
  A 1.46 1.46 0.0 0 0 780.75 194.24"
/>
<path stroke="#28517B" d="
  M 248.31 203.20
  C 242.11 193.91 225.38 194.27 216.50 194.25
  Q 163.25 194.16 110.17 194.73
  A 1.68 1.68 0.0 0 0 108.51 196.41
  Q 108.48 223.17 108.51 249.86
  C 108.52 253.22 109.52 256.08 113.25 256.02
  Q 174.41 255.02 220.56 256.16
  C 228.30 256.35 238.23 257.41 245.44 254.15
  C 249.96 252.12 250.46 249.09 251.34 244.09
  C 253.20 233.46 254.67 212.74 248.31 203.20"
/>
</g>
<path fill="#ffffff" d="
  M 22.69 62.57
  C 26.65 94.82 61.23 98.36 81.63 79.99
  Q 82.25 79.43 82.25 80.26
  L 82.25 91.78
  Q 82.25 92.27 81.83 92.53
  C 68.69 100.59 52.99 103.75 38.53 99.06
  C 23.87 94.31 14.21 83.83 10.73 68.50
  C 3.97 38.77 16.95 8.17 51.09 6.95
  Q 67.37 6.36 81.84 15.09
  Q 82.22 15.32 82.22 15.75
  L 82.32 27.57
  Q 82.33 28.56 81.60 27.89
  Q 71.45 18.59 58.08 17.28
  C 29.18 14.45 19.64 37.82 22.69 62.57
  Z"
/>
<path fill="#ffffff" d="
  M 113.75 56.38
  L 113.75 98.87
  A 0.38 0.38 0.0 0 1 113.37 99.25
  L 101.67 99.25
  A 0.38 0.38 0.0 0 1 101.29 98.87
  L 101.23 8.88
  A 0.38 0.38 0.0 0 1 101.61 8.50
  L 113.37 8.50
  A 0.38 0.38 0.0 0 1 113.75 8.88
  L 113.75 45.56
  A 0.38 0.38 0.0 0 0 114.13 45.94
  L 157.87 45.71
  A 0.38 0.38 0.0 0 0 158.25 45.33
  L 158.25 8.88
  A 0.38 0.38 0.0 0 1 158.63 8.50
  L 170.11 8.50
  A 0.38 0.38 0.0 0 1 170.49 8.88
  L 170.51 98.84
  A 0.38 0.38 0.0 0 1 170.13 99.22
  L 158.63 99.31
  A 0.38 0.38 0.0 0 1 158.25 98.93
  L 158.25 56.38
  A 0.38 0.38 0.0 0 0 157.87 56.00
  L 114.13 56.00
  A 0.38 0.38 0.0 0 0 113.75 56.38
  Z"
/>
<path fill="#ffffff" d="
  M 204.98 76.21
  L 196.89 99.04
  A 0.32 0.32 0.0 0 1 196.58 99.25
  L 184.27 99.25
  A 0.32 0.32 0.0 0 1 183.97 98.82
  L 218.45 8.71
  A 0.32 0.32 0.0 0 1 218.75 8.50
  L 232.07 8.50
  A 0.32 0.32 0.0 0 1 232.37 8.71
  L 266.82 98.83
  A 0.32 0.32 0.0 0 1 266.52 99.27
  L 254.40 99.24
  A 0.32 0.32 0.0 0 1 254.09 99.03
  L 246.04 76.21
  A 0.32 0.32 0.0 0 0 245.73 76.00
  L 205.29 76.00
  A 0.32 0.32 0.0 0 0 204.98 76.21
  Z
  M 208.87 65.57
  A 0.32 0.32 0.0 0 0 209.17 66.00
  L 241.67 66.00
  A 0.32 0.32 0.0 0 0 241.97 65.57
  L 225.72 21.29
  A 0.32 0.32 0.0 0 0 225.12 21.29
  L 208.87 65.57
  Z"
/>
<path fill="#ffffff" d="
  M 302.62 19.28
  L 302.64 98.80
  Q 302.64 99.25 302.20 99.25
  L 290.75 99.25
  Q 290.25 99.25 290.25 98.75
  L 290.25 19.25
  A 0.50 0.50 0.0 0 0 289.75 18.75
  L 258.50 18.75
  A 0.50 0.50 0.0 0 1 258.00 18.25
  L 258.00 9.01
  Q 258.00 8.50 258.51 8.50
  C 283.44 8.44 308.69 9.44 333.55 8.34
  A 1.38 1.38 0.0 0 1 335.00 9.72
  L 335.00 18.25
  Q 335.00 18.75 334.50 18.75
  L 303.15 18.75
  A 0.53 0.53 0.0 0 0 302.62 19.28
  Z"
/>
<path fill="#28517B" d="
  M 405.75 432.52
  C 372.54 426.88 357.55 394.76 353.08 364.87
  Q 352.01 357.71 352.02 344.93
  Q 352.09 268.47 351.76 192.00
  C 351.66 169.24 354.36 151.92 366.48 131.95
  C 370.86 124.76 365.86 109.05 362.86 99.83
  C 359.49 89.49 346.24 52.98 354.01 43.69
  C 360.60 35.80 386.36 48.21 395.37 52.71
  Q 424.48 67.25 451.75 84.99
  C 461.95 91.63 469.41 95.04 480.50 96.54
  C 507.31 100.16 535.33 98.17 562.32 97.38
  C 582.74 96.78 605.11 97.52 624.24 104.01
  C 648.86 112.37 665.65 135.43 669.98 160.50
  Q 672.58 175.57 672.85 195.06
  Q 673.77 263.69 672.71 354.25
  C 672.17 400.30 646.95 431.31 599.40 434.98
  Q 594.19 435.38 583.94 435.37
  Q 504.81 435.25 425.68 433.55
  Q 409.84 433.21 405.75 432.52
  Z
  M 434.44 385.81
  C 445.00 393.77 460.93 391.46 467.59 379.99
  C 471.16 373.84 472.13 363.36 472.24 355.75
  Q 472.47 340.19 471.51 321.94
  Q 471.40 319.75 471.89 317.50
  Q 472.00 317.01 472.46 316.82
  Q 473.76 316.28 474.81 316.27
  Q 490.22 316.19 551.69 316.27
  C 553.50 316.27 554.54 317.56 554.52 319.40
  Q 554.33 342.42 555.17 365.44
  Q 555.40 371.51 557.37 377.14
  C 563.53 394.68 582.55 395.78 593.55 382.46
  C 599.93 374.74 601.24 365.83 601.24 355.76
  Q 601.27 271.03 601.23 186.31
  C 601.23 178.96 600.95 171.38 599.02 165.49
  C 593.22 147.78 562.85 149.33 555.85 165.46
  Q 554.49 168.61 554.49 174.73
  Q 554.51 224.59 554.49 273.99
  A 1.76 1.76 0.0 0 1 552.73 275.75
  L 474.30 275.75
  A 1.70 1.70 0.0 0 1 472.60 274.05
  Q 472.50 225.65 471.41 177.32
  C 471.13 164.79 463.44 153.73 450.40 152.40
  C 440.62 151.40 431.17 157.14 427.84 166.40
  Q 426.34 170.60 426.18 181.77
  Q 424.81 277.46 424.75 362.00
  C 424.75 370.32 427.43 380.53 434.44 385.81
  Z"
/>
<path fill="#28517B" d="
  M 693.52 505.79
  C 683.43 508.44 676.71 498.43 679.73 489.48
  Q 691.97 453.24 702.79 416.51
  C 703.53 414.00 696.09 405.90 694.36 403.67
  C 678.61 383.29 679.97 363.92 680.42 337.32
  Q 681.67 263.28 680.41 189.25
  C 680.29 182.52 681.88 174.00 683.30 167.31
  C 689.51 138.02 708.71 120.25 736.72 112.13
  Q 756.06 106.52 774.06 106.54
  Q 842.90 106.59 911.74 106.25
  Q 924.71 106.18 931.70 107.12
  C 979.92 113.55 1017.05 152.15 1016.97 201.81
  Q 1016.88 251.57 1016.73 301.33
  C 1016.70 310.63 1017.38 325.46 1016.22 337.50
  C 1012.24 378.40 983.24 418.05 940.26 423.24
  Q 926.72 424.88 918.69 425.06
  Q 872.97 426.12 827.25 425.65
  C 823.67 425.61 815.98 428.99 811.92 431.16
  Q 790.23 442.77 772.40 459.60
  Q 760.03 471.28 758.64 472.44
  Q 730.00 496.19 693.52 505.79
  Z
  M 780.58 293.50
  Q 780.94 291.99 782.49 291.99
  Q 846.25 292.02 909.79 291.98
  Q 919.74 291.98 924.57 291.36
  C 975.57 284.85 970.93 226.61 961.22 190.75
  C 953.96 163.96 928.19 155.50 903.24 154.55
  Q 848.42 152.44 793.58 153.64
  Q 778.75 153.97 777.43 154.09
  C 747.18 156.82 739.02 176.97 738.99 204.16
  Q 738.91 300.01 739.37 352.31
  C 739.45 361.59 742.76 374.07 750.22 379.50
  C 761.14 387.47 775.43 378.39 778.93 367.13
  Q 780.15 363.21 779.82 353.29
  Q 778.89 324.63 780.30 296.00
  Q 780.39 294.27 780.58 293.50
  Z"
/>
<path fill="#28517B" d="
  M 247.00 108.23
  C 293.05 108.12 336.62 141.11 343.72 187.62
  Q 344.72 194.18 344.73 207.56
  Q 344.76 269.03 344.76 330.51
  Q 344.76 343.82 343.61 350.43
  C 338.35 380.37 317.17 406.71 289.95 419.50
  C 279.81 424.26 267.77 426.35 256.51 427.28
  C 238.77 428.75 219.47 427.97 203.18 427.72
  C 181.72 427.39 158.53 423.56 139.23 434.02
  C 122.06 443.34 107.93 456.33 93.31 469.07
  C 73.20 486.60 50.06 500.31 23.54 507.53
  C 16.75 509.38 9.00 506.76 7.57 499.35
  Q 7.02 496.48 8.67 491.27
  Q 19.90 455.74 31.25 420.25
  C 31.54 419.35 31.10 417.42 30.45 416.45
  C 18.12 397.95 8.23 382.95 8.47 360.25
  C 9.08 303.21 12.64 246.31 9.15 194.56
  C 7.35 167.82 18.45 143.12 39.20 126.44
  C 50.16 117.64 61.49 113.22 76.12 111.07
  Q 90.38 108.97 103.19 108.84
  Q 139.27 108.49 247.00 108.23
  Z
  M 265.09 162.72
  C 253.88 157.15 239.67 156.02 226.25 155.48
  C 189.25 153.98 155.66 154.38 122.04 155.21
  C 108.46 155.55 99.59 155.38 90.01 159.76
  C 74.95 166.63 67.93 182.00 67.97 198.01
  Q 68.04 227.75 67.67 257.48
  Q 67.67 257.87 67.88 258.20
  Q 68.03 258.44 68.03 258.75
  Q 67.92 308.41 68.13 358.05
  Q 68.20 373.43 79.93 381.23
  C 93.51 390.25 106.75 377.68 107.34 364.00
  Q 108.83 329.65 108.43 296.01
  A 1.89 1.89 0.0 0 1 110.27 294.10
  Q 179.14 292.24 247.33 293.01
  C 294.32 293.54 297.09 253.35 293.77 218.11
  C 291.74 196.62 286.34 173.28 265.09 162.72
  Z"
/>
<path fill="#ffffff" d="
  M 434.44 385.81
  C 427.43 380.53 424.75 370.32 424.75 362.00
  Q 424.81 277.46 426.18 181.77
  Q 426.34 170.60 427.84 166.40
  C 431.17 157.14 440.62 151.40 450.40 152.40
  C 463.44 153.73 471.13 164.79 471.41 177.32
  Q 472.50 225.65 472.60 274.05
  A 1.70 1.70 0.0 0 0 474.30 275.75
  L 552.73 275.75
  A 1.76 1.76 0.0 0 0 554.49 273.99
  Q 554.51 224.59 554.49 174.73
  Q 554.49 168.61 555.85 165.46
  C 562.85 149.33 593.22 147.78 599.02 165.49
  C 600.95 171.38 601.23 178.96 601.23 186.31
  Q 601.27 271.03 601.24 355.76
  C 601.24 365.83 599.93 374.74 593.55 382.46
  C 582.55 395.78 563.53 394.68 557.37 377.14
  Q 555.40 371.51 555.17 365.44
  Q 554.33 342.42 554.52 319.40
  C 554.54 317.56 553.50 316.27 551.69 316.27
  Q 490.22 316.19 474.81 316.27
  Q 473.76 316.28 472.46 316.82
  Q 472.00 317.01 471.89 317.50
  Q 471.40 319.75 471.51 321.94
  Q 472.47 340.19 472.24 355.75
  C 472.13 363.36 471.16 373.84 467.59 379.99
  C 460.93 391.46 445.00 393.77 434.44 385.81
  Z"
/>
<path fill="#ffffff" d="
  M 780.58 293.50
  Q 780.39 294.27 780.30 296.00
  Q 778.89 324.63 779.82 353.29
  Q 780.15 363.21 778.93 367.13
  C 775.43 378.39 761.14 387.47 750.22 379.50
  C 742.76 374.07 739.45 361.59 739.37 352.31
  Q 738.91 300.01 738.99 204.16
  C 739.02 176.97 747.18 156.82 777.43 154.09
  Q 778.75 153.97 793.58 153.64
  Q 848.42 152.44 903.24 154.55
  C 928.19 155.50 953.96 163.96 961.22 190.75
  C 970.93 226.61 975.57 284.85 924.57 291.36
  Q 919.74 291.98 909.79 291.98
  Q 846.25 292.02 782.49 291.99
  Q 780.94 291.99 780.58 293.50
  Z
  M 780.75 194.24
  L 780.75 250.94
  Q 780.75 252.20 782.00 252.38
  Q 785.24 252.85 787.50 252.85
  Q 849.50 252.70 911.50 252.52
  C 917.69 252.50 921.59 251.17 922.24 244.25
  Q 924.01 225.31 922.38 209.70
  C 920.63 192.91 902.84 191.76 889.58 191.97
  Q 836.12 192.82 782.21 192.78
  A 1.46 1.46 0.0 0 0 780.75 194.24
  Z"
/>
<path fill="#ffffff" d="
  M 265.09 162.72
  C 286.34 173.28 291.74 196.62 293.77 218.11
  C 297.09 253.35 294.32 293.54 247.33 293.01
  Q 179.14 292.24 110.27 294.10
  A 1.89 1.89 0.0 0 0 108.43 296.01
  Q 108.83 329.65 107.34 364.00
  C 106.75 377.68 93.51 390.25 79.93 381.23
  Q 68.20 373.43 68.13 358.05
  Q 67.92 308.41 68.03 258.75
  Q 68.03 258.44 67.88 258.20
  Q 67.67 257.87 67.67 257.48
  Q 68.04 227.75 67.97 198.01
  C 67.93 182.00 74.95 166.63 90.01 159.76
  C 99.59 155.38 108.46 155.55 122.04 155.21
  C 155.66 154.38 189.25 153.98 226.25 155.48
  C 239.67 156.02 253.88 157.15 265.09 162.72
  Z
  M 248.31 203.20
  C 242.11 193.91 225.38 194.27 216.50 194.25
  Q 163.25 194.16 110.17 194.73
  A 1.68 1.68 0.0 0 0 108.51 196.41
  Q 108.48 223.17 108.51 249.86
  C 108.52 253.22 109.52 256.08 113.25 256.02
  Q 174.41 255.02 220.56 256.16
  C 228.30 256.35 238.23 257.41 245.44 254.15
  C 249.96 252.12 250.46 249.09 251.34 244.09
  C 253.20 233.46 254.67 212.74 248.31 203.20
  Z"
/>
<path fill="#28517B" d="
  M 780.75 194.24
  A 1.46 1.46 0.0 0 1 782.21 192.78
  Q 836.12 192.82 889.58 191.97
  C 902.84 191.76 920.63 192.91 922.38 209.70
  Q 924.01 225.31 922.24 244.25
  C 921.59 251.17 917.69 252.50 911.50 252.52
  Q 849.50 252.70 787.50 252.85
  Q 785.24 252.85 782.00 252.38
  Q 780.75 252.20 780.75 250.94
  L 780.75 194.24
  Z"
/>
<path fill="#28517B" d="
  M 248.31 203.20
  C 254.67 212.74 253.20 233.46 251.34 244.09
  C 250.46 249.09 249.96 252.12 245.44 254.15
  C 238.23 257.41 228.30 256.35 220.56 256.16
  Q 174.41 255.02 113.25 256.02
  C 109.52 256.08 108.52 253.22 108.51 249.86
  Q 108.48 223.17 108.51 196.41
  A 1.68 1.68 0.0 0 1 110.17 194.73
  Q 163.25 194.16 216.50 194.25
  C 225.38 194.27 242.11 193.91 248.31 203.20
  Z"
/>
</svg>
