<?xml version="1.0" encoding="UTF-8" ?>
<!DOCTYPE svg PUBLIC "-//W3C//DTD SVG 1.1//EN" "http://www.w3.org/Graphics/SVG/1.1/DTD/svg11.dtd">
<svg width="128pt" height="109pt" viewBox="0 0 128 109" version="1.1" xmlns="http://www.w3.org/2000/svg">
<g xmlns="http://www.w3.org/2000/svg" id="#1a7a2fff">
<path fill="#31a2e6" opacity="1.00" d=" M 41.41 10.39 C 43.53 7.18 46.75 3.70 50.95 3.99 C 71.65 4.01 92.35 4.03 113.05 3.98 C 118.76 3.50 122.68 8.79 124.59 13.51 C 126.16 16.44 125.60 19.84 125.66 23.01 C 125.51 32.61 125.83 42.22 125.54 51.81 C 124.18 56.30 121.57 60.90 117.35 63.25 C 111.45 65.19 105.14 63.20 99.11 64.19 C 96.00 65.05 93.34 66.99 90.58 68.60 C 90.13 73.44 89.94 78.67 86.70 82.61 C 84.50 85.58 81.04 87.37 77.59 88.47 C 70.15 89.18 62.61 88.08 55.17 88.95 C 56.19 94.76 57.86 100.44 58.69 106.29 C 54.19 105.05 50.78 101.61 46.96 99.11 C 42.59 96.22 39.24 91.96 34.74 89.32 C 28.38 88.56 21.92 89.21 15.58 88.36 C 8.71 86.40 3.31 79.31 3.97 72.03 C 4.08 61.99 3.89 51.95 4.08 41.91 C 3.71 35.00 9.11 27.98 16.12 27.25 C 23.70 26.35 31.35 27.67 38.94 26.87 C 39.65 21.38 38.18 15.30 41.41 10.39 Z"/>
</g>
<g id="#001e00ff">
<path fill="#2b5278" opacity="1.00" d=" M 41.79 9.85 C 43.89 6.86 47.02 3.56 51.01 3.98 C 58.25 4.02 65.50 3.99 72.74 4.00 C 79.75 10.03 86.97 15.83 93.73 22.15 C 91.93 26.89 88.82 30.94 86.53 35.43 C 81.87 44.05 79.03 53.46 75.83 62.68 C 73.68 60.63 71.71 58.40 69.91 56.05 C 64.56 49.17 58.38 42.99 52.05 37.04 C 48.03 33.28 43.85 29.66 39.13 26.80 C 39.32 21.11 38.23 14.78 41.79 9.85 Z" />
<path fill="#2b5278" opacity="1.00" d=" M 76.74 4.01 C 87.10 4.00 97.47 3.98 107.83 4.02 C 104.12 9.64 99.94 14.93 95.75 20.19 C 88.83 15.55 83.00 9.48 76.74 4.01 Z" />
<path fill="#2b5278" opacity="1.00" d=" M 111.29 3.98 C 119.02 2.52 124.31 10.30 125.55 16.95 C 125.46 28.33 125.58 39.71 125.51 51.09 C 124.19 56.03 121.70 61.47 116.63 63.51 C 110.63 65.14 104.36 63.01 98.34 64.34 C 95.59 65.51 93.09 67.19 90.44 68.55 C 84.51 71.72 79.18 75.87 73.26 79.06 C 74.87 72.43 77.55 66.12 79.31 59.53 C 80.21 56.89 80.75 53.87 82.80 51.83 C 84.99 50.85 87.41 50.66 89.75 50.27 C 101.34 48.52 113.06 47.53 124.78 47.55 C 124.75 47.04 124.68 46.01 124.64 45.50 C 117.43 45.38 110.20 45.39 103.04 46.26 C 96.41 46.64 89.94 48.30 83.31 48.62 C 88.88 31.71 100.35 17.71 111.29 3.98 Z" />
<path fill="#2b5278" opacity="1.00" d=" M 40.00 29.50 C 53.31 39.05 64.05 51.59 74.38 64.18 C 67.59 64.33 60.79 64.16 53.99 64.24 C 46.50 64.17 40.27 57.37 39.95 50.04 C 39.68 43.20 39.73 36.34 40.00 29.50 Z" />
</g>
<g id="#004b00ff">
<path fill="#31a2e6" opacity="1.00" d=" M 72.74 4.00 C 74.07 4.00 75.40 4.01 76.74 4.01 C 83.00 9.48 88.83 15.55 95.75 20.19 C 99.94 14.93 104.12 9.64 107.83 4.02 C 108.99 4.01 110.14 4.00 111.29 3.98 C 100.35 17.71 88.88 31.71 83.31 48.62 C 89.94 48.30 96.41 46.64 103.04 46.26 C 110.20 45.39 117.43 45.38 124.64 45.50 C 124.68 46.01 124.75 47.04 124.78 47.55 C 113.06 47.53 101.34 48.52 89.75 50.27 C 87.41 50.66 84.99 50.85 82.80 51.83 C 80.75 53.87 80.21 56.89 79.31 59.53 C 77.55 66.12 74.87 72.43 73.26 79.06 C 79.18 75.87 84.51 71.72 90.44 68.55 C 90.44 74.35 89.37 80.77 84.73 84.74 C 81.89 86.75 78.64 88.77 75.03 88.65 C 68.37 88.62 61.70 88.56 55.04 88.57 C 56.18 94.69 58.10 100.68 58.53 106.92 C 49.99 101.93 42.40 95.61 34.99 89.12 C 29.63 89.09 24.28 88.75 18.91 88.76 C 11.76 88.91 5.64 82.67 4.17 76.01 C 3.87 64.97 4.15 53.91 4.01 42.86 C 3.99 35.71 9.07 28.93 15.89 26.98 C 23.61 26.39 31.40 27.79 39.13 26.80 C 43.85 29.66 48.03 33.28 52.05 37.04 C 58.38 42.99 64.56 49.17 69.91 56.05 C 71.71 58.40 73.68 60.63 75.83 62.68 C 79.03 53.46 81.87 44.05 86.53 35.43 C 88.82 30.94 91.93 26.89 93.73 22.15 C 86.97 15.83 79.75 10.03 72.74 4.00 M 40.00 29.50 C 39.73 36.34 39.68 43.20 39.95 50.04 C 40.27 57.37 46.50 64.17 53.99 64.24 C 60.79 64.16 67.59 64.33 74.38 64.18 C 64.05 51.59 53.31 39.05 40.00 29.50 Z" />
</g>
</svg>
