<?xml version="1.0" encoding="UTF-8" standalone="no"?>
<!DOCTYPE svg PUBLIC "-//W3C//DTD SVG 1.1//EN" "http://www.w3.org/Graphics/SVG/1.1/DTD/svg11.dtd">
<svg xmlns="http://www.w3.org/2000/svg" version="1.1" viewBox="0 0 256 128">
<g stroke-width="2.00" fill="none" stroke-linecap="butt">
<path stroke="#9cd8f2" d="
  M 138.50 73.73
  Q 138.44 79.41 138.65 85.06
  C 139.00 94.68 149.94 93.10 149.97 83.69
  Q 150.03 62.18 150.00 40.63
  Q 149.99 36.51 149.09 34.99
  C 146.77 31.03 138.44 32.47 138.48 37.52
  Q 138.59 49.94 138.46 62.50
  Q 138.45 63.00 137.96 63.00
  L 118.80 63.00
  Q 118.31 63.00 118.30 62.51
  Q 118.20 50.82 118.01 39.06
  C 117.86 30.30 106.99 30.75 106.88 38.19
  Q 106.53 61.09 106.48 84.00
  Q 106.47 86.84 107.55 88.71
  C 109.48 92.08 114.59 92.12 116.83 89.11
  C 118.97 86.23 117.97 77.27 118.03 73.55
  A 0.55 0.55 0.0 0 1 118.58 73.00
  L 137.78 73.00
  Q 138.51 73.00 138.50 73.73"
/>
<path stroke="#9cd8f2" d="
  M 194.75 67.01
  Q 210.93 66.98 227.12 66.98
  C 241.43 66.98 241.50 54.04 239.09 43.16
  C 237.45 35.74 231.72 33.51 224.33 33.15
  Q 212.65 32.58 195.20 32.94
  C 186.28 33.13 183.98 37.68 183.99 45.94
  Q 183.99 63.10 184.02 80.26
  C 184.03 82.80 184.41 85.98 185.81 87.68
  C 188.90 91.44 194.25 88.12 194.07 83.75
  Q 193.73 75.68 194.13 67.61
  Q 194.15 67.02 194.75 67.01"
/>
<path stroke="#9cd8f2" d="
  M 29.04 67.49
  Q 45.59 67.07 62.16 67.27
  C 73.80 67.41 74.75 59.47 74.28 49.93
  C 73.87 41.69 71.26 34.73 62.23 33.73
  Q 52.11 32.60 28.94 33.38
  C 21.87 33.62 18.52 37.74 18.50 44.54
  Q 18.47 63.86 18.54 83.19
  C 18.56 90.71 27.98 92.94 28.29 83.57
  Q 28.55 75.85 28.47 68.08
  Q 28.47 67.51 29.04 67.49"
/>
<path stroke="#9cd8f2" d="
  M 229.13 46.07
  C 228.72 42.76 224.28 42.34 221.75 42.36
  Q 208.25 42.47 194.74 42.54
  Q 194.25 42.54 194.25 43.03
  L 194.25 56.65
  Q 194.25 57.30 194.90 57.30
  L 227.28 57.23
  A 1.88 1.87 3.3 0 0 229.13 55.59
  Q 229.72 50.76 229.13 46.07"
/>
<path stroke="#9cd8f2" d="
  M 61.81 43.94
  Q 59.80 42.96 56.49 42.96
  Q 42.76 42.96 28.98 43.03
  A 0.48 0.48 0.0 0 0 28.50 43.51
  L 28.50 57.03
  A 1.07 1.06 89.5 0 0 29.58 58.10
  Q 45.54 57.86 59.86 58.18
  C 61.38 58.21 63.14 57.76 63.54 56.26
  C 64.13 54.06 65.00 45.48 61.81 43.94"
/>
</g>
<path fill="#38b0e5" d="
  M 104.07 101.85
  C 92.93 101.63 88.47 89.97 88.52 80.70
  Q 88.62 61.25 88.48 41.79
  C 88.44 35.57 89.31 32.29 92.26 27.26
  C 94.24 23.86 86.58 10.48 88.84 6.00
  C 90.98 1.77 110.83 14.32 114.66 16.91
  C 119.81 20.40 133.04 19.05 141.63 19.01
  C 152.91 18.96 161.68 20.23 165.98 30.96
  Q 167.49 34.73 167.61 42.26
  Q 167.94 62.76 167.63 83.27
  C 167.45 95.06 159.56 102.44 147.52 102.38
  Q 125.77 102.28 104.07 101.85
  Z
  M 138.50 73.73
  Q 138.44 79.41 138.65 85.06
  C 139.00 94.68 149.94 93.10 149.97 83.69
  Q 150.03 62.18 150.00 40.63
  Q 149.99 36.51 149.09 34.99
  C 146.77 31.03 138.44 32.47 138.48 37.52
  Q 138.59 49.94 138.46 62.50
  Q 138.45 63.00 137.96 63.00
  L 118.80 63.00
  Q 118.31 63.00 118.30 62.51
  Q 118.20 50.82 118.01 39.06
  C 117.86 30.30 106.99 30.75 106.88 38.19
  Q 106.53 61.09 106.48 84.00
  Q 106.47 86.84 107.55 88.71
  C 109.48 92.08 114.59 92.12 116.83 89.11
  C 118.97 86.23 117.97 77.27 118.03 73.55
  A 0.55 0.55 0.0 0 1 118.58 73.00
  L 137.78 73.00
  Q 138.51 73.00 138.50 73.73
  Z"
/>
<path fill="#38b0e5" d="
  M 172.99 119.69
  C 170.07 120.48 168.63 117.84 169.44 115.46
  Q 172.41 106.74 175.04 97.73
  Q 175.18 97.23 174.83 96.85
  C 171.24 92.92 169.36 89.21 169.45 83.58
  Q 169.84 60.00 169.56 44.01
  C 169.25 26.37 179.83 21.21 195.00 21.25
  Q 211.51 21.29 228.07 21.21
  C 241.47 21.16 252.60 31.18 252.53 44.89
  Q 252.46 60.07 252.51 75.25
  C 252.54 84.97 247.42 94.60 238.16 98.29
  Q 234.67 99.68 227.04 99.87
  Q 216.64 100.12 206.25 99.96
  C 202.23 99.90 193.90 106.63 192.29 108.29
  Q 184.10 116.71 172.99 119.69
  Z
  M 194.75 67.01
  Q 210.93 66.98 227.12 66.98
  C 241.43 66.98 241.50 54.04 239.09 43.16
  C 237.45 35.74 231.72 33.51 224.33 33.15
  Q 212.65 32.58 195.20 32.94
  C 186.28 33.13 183.98 37.68 183.99 45.94
  Q 183.99 63.10 184.02 80.26
  C 184.03 82.80 184.41 85.98 185.81 87.68
  C 188.90 91.44 194.25 88.12 194.07 83.75
  Q 193.73 75.68 194.13 67.61
  Q 194.15 67.02 194.75 67.01
  Z"
/>
<path fill="#38b0e5" d="
  M 3.99 42.75
  C 3.38 34.04 8.92 26.18 16.27 23.35
  Q 20.24 21.82 29.84 21.79
  Q 45.50 21.75 61.21 21.71
  Q 67.09 21.69 70.65 22.95
  C 79.83 26.19 86.84 34.51 86.79 44.67
  Q 86.70 61.58 86.77 78.51
  C 86.80 87.19 79.84 96.21 72.08 98.97
  C 64.36 101.71 50.60 100.19 41.71 100.35
  C 36.83 100.44 31.57 104.73 28.07 107.82
  C 21.85 113.32 16.41 117.80 7.57 120.17
  C 5.03 120.85 2.92 119.11 3.75 116.54
  Q 6.62 107.65 9.42 98.74
  Q 9.59 98.22 9.30 97.76
  C 6.34 93.02 3.88 90.30 3.87 83.93
  C 3.87 70.15 4.95 56.54 3.99 42.75
  Z
  M 29.04 67.49
  Q 45.59 67.07 62.16 67.27
  C 73.80 67.41 74.75 59.47 74.28 49.93
  C 73.87 41.69 71.26 34.73 62.23 33.73
  Q 52.11 32.60 28.94 33.38
  C 21.87 33.62 18.52 37.74 18.50 44.54
  Q 18.47 63.86 18.54 83.19
  C 18.56 90.71 27.98 92.94 28.29 83.57
  Q 28.55 75.85 28.47 68.08
  Q 28.47 67.51 29.04 67.49
  Z"
/>
<path fill="#ffffff" d="
  M 137.78 73.00
  L 118.58 73.00
  A 0.55 0.55 0.0 0 0 118.03 73.55
  C 117.97 77.27 118.97 86.23 116.83 89.11
  C 114.59 92.12 109.48 92.08 107.55 88.71
  Q 106.47 86.84 106.48 84.00
  Q 106.53 61.09 106.88 38.19
  C 106.99 30.75 117.86 30.30 118.01 39.06
  Q 118.20 50.82 118.30 62.51
  Q 118.31 63.00 118.80 63.00
  L 137.96 63.00
  Q 138.45 63.00 138.46 62.50
  Q 138.59 49.94 138.48 37.52
  C 138.44 32.47 146.77 31.03 149.09 34.99
  Q 149.99 36.51 150.00 40.63
  Q 150.03 62.18 149.97 83.69
  C 149.94 93.10 139.00 94.68 138.65 85.06
  Q 138.44 79.41 138.50 73.73
  Q 138.51 73.00 137.78 73.00
  Z"
/>
<path fill="#ffffff" d="
  M 194.13 67.61
  Q 193.73 75.68 194.07 83.75
  C 194.25 88.12 188.90 91.44 185.81 87.68
  C 184.41 85.98 184.03 82.80 184.02 80.26
  Q 183.99 63.10 183.99 45.94
  C 183.98 37.68 186.28 33.13 195.20 32.94
  Q 212.65 32.58 224.33 33.15
  C 231.72 33.51 237.45 35.74 239.09 43.16
  C 241.50 54.04 241.43 66.98 227.12 66.98
  Q 210.93 66.98 194.75 67.01
  Q 194.15 67.02 194.13 67.61
  Z
  M 229.13 46.07
  C 228.72 42.76 224.28 42.34 221.75 42.36
  Q 208.25 42.47 194.74 42.54
  Q 194.25 42.54 194.25 43.03
  L 194.25 56.65
  Q 194.25 57.30 194.90 57.30
  L 227.28 57.23
  A 1.88 1.87 3.3 0 0 229.13 55.59
  Q 229.72 50.76 229.13 46.07
  Z"
/>
<path fill="#ffffff" d="
  M 28.47 68.08
  Q 28.55 75.85 28.29 83.57
  C 27.98 92.94 18.56 90.71 18.54 83.19
  Q 18.47 63.86 18.50 44.54
  C 18.52 37.74 21.87 33.62 28.94 33.38
  Q 52.11 32.60 62.23 33.73
  C 71.26 34.73 73.87 41.69 74.28 49.93
  C 74.75 59.47 73.80 67.41 62.16 67.27
  Q 45.59 67.07 29.04 67.49
  Q 28.47 67.51 28.47 68.08
  Z
  M 61.81 43.94
  Q 59.80 42.96 56.49 42.96
  Q 42.76 42.96 28.98 43.03
  A 0.48 0.48 0.0 0 0 28.50 43.51
  L 28.50 57.03
  A 1.07 1.06 89.5 0 0 29.58 58.10
  Q 45.54 57.86 59.86 58.18
  C 61.38 58.21 63.14 57.76 63.54 56.26
  C 64.13 54.06 65.00 45.48 61.81 43.94
  Z"
/>
<path fill="#38b0e5" d="
  M 221.75 42.36
  C 224.28 42.34 228.72 42.76 229.13 46.07
  Q 229.72 50.76 229.13 55.59
  A 1.88 1.87 3.3 0 1 227.28 57.23
  L 194.90 57.30
  Q 194.25 57.30 194.25 56.65
  L 194.25 43.03
  Q 194.25 42.54 194.74 42.54
  Q 208.25 42.47 221.75 42.36
  Z"
/>
<path fill="#38b0e5" d="
  M 61.81 43.94
  C 65.00 45.48 64.13 54.06 63.54 56.26
  C 63.14 57.76 61.38 58.21 59.86 58.18
  Q 45.54 57.86 29.58 58.10
  A 1.07 1.06 89.5 0 1 28.50 57.03
  L 28.50 43.51
  A 0.48 0.48 0.0 0 1 28.98 43.03
  Q 42.76 42.96 56.49 42.96
  Q 59.80 42.96 61.81 43.94
  Z"
/>
</svg>
