<?xml version="1.0" encoding="UTF-8" ?>
<!DOCTYPE svg PUBLIC "-//W3C//DTD SVG 1.1//EN" "http://www.w3.org/Graphics/SVG/1.1/DTD/svg11.dtd">
<svg width="200pt" height="200pt" viewBox="0 0 200 200" version="1.1" xmlns="http://www.w3.org/2000/svg">
<g id="#000000ff">
<path fill="#fff" opacity="1.00" d=" M 92.43 6.64 C 110.72 4.87 129.51 8.57 145.71 17.27 C 165.78 27.95 181.75 46.17 189.46 67.58 C 196.88 87.53 197.16 110.05 190.24 130.17 C 184.10 148.59 171.96 164.89 156.18 176.18 C 139.98 187.88 119.93 194.12 99.96 193.75 C 78.84 193.50 57.92 185.79 41.67 172.31 C 25.87 159.29 14.49 140.95 10.04 120.94 C 4.76 98.12 8.40 73.36 20.17 53.10 C 34.91 27.16 62.70 9.24 92.43 6.64 M 92.37 25.41 C 71.22 27.86 51.45 39.87 39.49 57.47 C 27.68 74.51 23.47 96.57 28.22 116.75 C 31.64 131.96 39.99 146.00 51.70 156.30 C 64.88 168.03 82.32 174.85 99.97 175.06 C 115.06 175.44 130.19 171.04 142.79 162.75 C 155.87 154.13 166.20 141.35 171.67 126.66 C 178.16 109.68 178.16 90.31 171.68 73.33 C 165.52 56.82 153.23 42.71 137.80 34.22 C 124.08 26.57 107.95 23.55 92.37 25.41 Z" />
<path fill="#fff" opacity="1.00" d=" M 60.95 66.04 C 60.91 60.76 65.74 56.21 70.99 56.43 C 75.11 56.30 78.20 59.42 80.90 62.10 C 88.65 70.09 96.65 77.83 104.41 85.81 C 112.45 78.05 120.28 70.08 128.12 62.13 C 130.83 59.46 133.89 56.33 138.00 56.42 C 143.26 56.20 148.14 60.72 148.10 66.03 C 148.42 69.80 145.86 72.88 143.39 75.39 C 135.17 83.56 126.87 91.66 118.81 100.00 C 126.40 107.80 134.14 115.46 141.90 123.10 C 144.83 126.06 148.46 129.40 148.10 133.97 C 148.12 139.27 143.26 143.80 138.00 143.56 C 133.90 143.65 130.84 140.52 128.13 137.87 C 120.37 129.89 112.40 122.13 104.61 114.18 C 96.59 121.97 88.73 129.92 80.89 137.89 C 78.18 140.57 75.11 143.67 71.00 143.56 C 65.74 143.78 60.92 139.24 60.95 133.97 C 60.66 130.22 63.15 127.13 65.63 124.63 C 73.86 116.45 82.16 108.34 90.24 100.00 C 82.49 92.00 74.56 84.19 66.63 76.38 C 63.84 73.59 60.66 70.32 60.95 66.04 Z" />
</g>
</svg>
