<?xml version="1.0" encoding="UTF-8" standalone="no"?>
<!DOCTYPE svg PUBLIC "-//W3C//DTD SVG 1.1//EN" "http://www.w3.org/Graphics/SVG/1.1/DTD/svg11.dtd">
<svg xmlns="http://www.w3.org/2000/svg" version="1.1" viewBox="0 0 512 512">
<path fill="#fff" d="
  M 255.31 0.00
  L 257.06 0.00
  C 279.07 1.83 291.23 17.34 291.24 38.81
  Q 291.26 159.30 291.25 279.27
  Q 291.25 281.22 292.62 279.83
  Q 311.36 260.84 330.21 242.09
  Q 340.14 232.20 345.14 229.50
  C 362.29 220.23 384.14 227.14 392.87 244.65
  C 399.54 258.04 397.19 274.55 386.52 285.27
  Q 321.66 350.49 280.95 390.69
  C 269.79 401.71 252.73 404.21 239.03 396.60
  Q 234.48 394.07 225.80 385.40
  Q 144.04 303.74 125.95 285.55
  C 110.97 270.50 112.17 245.59 129.12 232.74
  C 141.57 223.30 157.27 222.97 170.44 231.55
  Q 172.98 233.21 179.65 239.85
  Q 199.73 259.85 219.61 279.75
  Q 221.02 281.16 220.98 279.17
  Q 220.56 259.92 220.78 240.68
  C 221.67 165.67 221.13 101.14 220.95 58.25
  Q 220.88 39.63 221.13 34.26
  C 222.04 14.87 236.15 1.13 255.31 0.00
  Z"
/>
<path fill="#fff" d="
  M 443.19 512.00
  L 68.69 512.00
  C 52.80 510.68 40.11 501.59 35.82 486.36
  Q 34.28 480.87 34.27 467.36
  Q 34.25 419.56 34.23 371.76
  Q 34.23 357.63 35.71 351.89
  C 39.76 336.27 53.92 325.18 70.45 325.61
  C 85.51 325.99 99.12 336.56 103.12 350.75
  Q 104.71 356.36 104.73 370.53
  Q 104.78 405.14 104.74 440.50
  A 1.00 1.00 0.0 0 0 105.74 441.50
  Q 241.89 441.49 377.11 441.51
  Q 377.20 441.51 391.88 441.78
  Q 399.09 441.91 406.29 441.53
  A 1.00 1.00 0.0 0 0 407.24 440.53
  Q 407.25 401.72 407.25 363.01
  Q 407.25 357.18 408.71 351.66
  C 417.72 317.69 466.43 316.90 476.15 351.02
  Q 477.71 356.50 477.73 370.26
  Q 477.78 421.50 477.74 472.75
  C 477.73 494.87 465.75 509.98 443.19 512.00
  Z"
/>
</svg>
