<?xml version="1.0" encoding="UTF-8" ?>
<!DOCTYPE svg PUBLIC "-//W3C//DTD SVG 1.1//EN" "http://www.w3.org/Graphics/SVG/1.1/DTD/svg11.dtd">
<svg width="512pt" height="512pt" viewBox="0 0 512 512" version="1.1" xmlns="http://www.w3.org/2000/svg">
<g id="#515151ff">
<path fill="#515151" opacity="1.00" d=" M 104.88 156.81 C 118.35 149.77 136.07 152.48 146.74 163.33 C 185.82 202.33 224.82 241.42 263.89 280.44 C 302.65 241.70 341.41 202.97 380.15 164.21 C 392.58 150.46 415.78 149.06 429.73 161.30 C 432.92 164.07 435.76 167.21 438.79 170.15 C 442.74 174.24 447.19 177.96 450.11 182.91 C 456.37 193.01 457.10 206.22 452.09 216.97 C 449.21 223.69 443.64 228.57 438.60 233.63 C 389.59 282.62 340.59 331.61 291.59 380.60 C 284.70 387.62 274.83 391.39 265.03 391.13 C 253.28 392.00 241.47 387.17 233.80 378.22 C 183.49 327.86 133.11 277.56 82.80 227.18 C 71.03 215.63 69.04 195.83 78.20 182.13 C 81.14 177.56 85.30 173.99 89.05 170.13 C 93.97 165.31 98.55 159.85 104.88 156.81 Z" />
</g>
</svg>
