<?xml version="1.0" encoding="UTF-8" standalone="no"?>
<!DOCTYPE svg PUBLIC "-//W3C//DTD SVG 1.1//EN" "http://www.w3.org/Graphics/SVG/1.1/DTD/svg11.dtd">
<svg xmlns="http://www.w3.org/2000/svg" version="1.1" viewBox="0 0 470 386">
<path fill="#000000" d="
  M 151.44 386.00
  L 19.94 386.00
  C 7.33 384.05 0.18 375.30 0.41 362.86
  C 1.86 284.83 47.59 217.30 119.49 187.13
  A 0.59 0.59 0.0 0 0 119.66 186.16
  C 92.60 160.65 80.30 122.71 87.90 86.02
  C 99.46 30.20 152.43 -6.76 208.74 1.24
  C 275.66 10.76 317.44 80.26 294.53 144.00
  C 279.97 184.51 242.24 212.86 199.19 215.15
  Q 197.00 215.27 190.06 215.39
  C 116.28 216.73 56.14 270.43 44.58 342.86
  A 0.36 0.35 -85.8 0 0 44.93 343.27
  Q 96.78 343.23 148.24 343.26
  C 176.41 343.28 179.13 382.15 151.44 386.00
  Z
  M 256.26 108.65
  A 63.93 63.93 0.0 0 0 192.33 44.72
  A 63.93 63.93 0.0 0 0 128.40 108.65
  A 63.93 63.93 0.0 0 0 192.33 172.58
  A 63.93 63.93 0.0 0 0 256.26 108.65
  Z"
/>
<path fill="#000000" d="
  M 235.94 386.00
  L 233.69 386.00
  Q 221.45 384.61 216.01 374.24
  C 212.50 367.55 213.56 361.78 216.07 354.14
  Q 236.34 292.57 242.03 276.30
  C 242.94 273.70 245.66 270.48 247.99 268.15
  Q 311.66 204.45 375.35 140.78
  Q 382.54 133.60 386.49 131.83
  C 395.21 127.92 404.18 130.43 411.02 137.24
  Q 434.54 160.69 458.05 184.16
  Q 465.65 191.74 467.62 195.88
  C 472.61 206.37 468.19 214.96 460.46 222.68
  Q 394.75 288.36 329.06 354.07
  Q 326.56 356.57 321.17 358.39
  Q 286.51 370.08 251.75 381.51
  Q 240.57 385.18 235.94 386.00
  Z
  M 417.44 203.80
  L 395.42 181.90
  Q 395.00 181.48 394.57 181.91
  Q 338.30 238.01 281.95 294.44
  Q 280.32 296.07 279.58 298.25
  Q 274.13 314.32 268.85 330.42
  A 0.28 0.28 0.0 0 0 269.20 330.77
  Q 285.42 325.47 301.51 319.95
  Q 303.69 319.20 305.32 317.57
  Q 361.60 261.26 417.39 205.49
  Q 418.26 204.62 417.44 203.80
  Z"
/>
</svg>
