<?xml version="1.0" encoding="UTF-8" standalone="no"?>
<!DOCTYPE svg PUBLIC "-//W3C//DTD SVG 1.1//EN" "http://www.w3.org/Graphics/SVG/1.1/DTD/svg11.dtd">
<svg xmlns="http://www.w3.org/2000/svg" version="1.1" viewBox="0.00 0.00 256.00 256.00">
<path fill="#000000" d="
  M 119.31 0.00
  L 137.06 0.00
  C 201.82 6.18 250.86 54.31 256.00 119.31
  L 256.00 136.56
  C 250.59 201.54 201.67 250.55 136.69 256.00
  L 119.19 256.00
  C 54.62 250.34 5.76 202.04 0.00 137.44
  L 0.00 119.19
  C 5.98 54.25 54.19 5.28 119.31 0.00
  Z
  M 110.06 93.34
  A 14.86 14.86 0.0 0 0 95.20 78.48
  A 14.86 14.86 0.0 0 0 80.34 93.34
  A 14.86 14.86 0.0 0 0 95.20 108.20
  A 14.86 14.86 0.0 0 0 110.06 93.34
  Z
  M 177.92 93.34
  A 14.86 14.86 0.0 0 0 163.06 78.48
  A 14.86 14.86 0.0 0 0 148.20 93.34
  A 14.86 14.86 0.0 0 0 163.06 108.20
  A 14.86 14.86 0.0 0 0 177.92 93.34
  Z
  M 164.33 158.46
  C 143.50 183.75 101.24 180.50 86.22 150.13
  Q 84.52 146.70 82.83 145.61
  C 78.54 142.86 71.97 146.18 71.93 151.29
  Q 71.91 153.90 74.07 157.88
  Q 89.96 187.16 123.51 189.73
  C 143.27 191.24 164.02 182.92 176.12 166.91
  C 178.93 163.20 186.36 153.08 183.17 148.30
  C 179.89 143.37 173.47 143.39 170.52 148.62
  C 168.58 152.06 166.68 155.61 164.33 158.46
  Z"
/>
</svg>
