<?xml version="1.0" encoding="UTF-8" standalone="no"?>
<!DOCTYPE svg PUBLIC "-//W3C//DTD SVG 1.1//EN" "http://www.w3.org/Graphics/SVG/1.1/DTD/svg11.dtd">
<svg xmlns="http://www.w3.org/2000/svg" version="1.1" viewBox="0.00 0.00 256.00 256.00">
<path fill="#000000" d="
  M 123.31 0.00
  L 132.56 0.00
  C 200.75 3.43 251.86 55.04 256.00 123.06
  L 256.00 132.56
  C 252.72 200.52 200.47 252.76 131.94 256.00
  L 123.44 256.00
  C 55.32 252.51 3.96 200.93 0.00 132.94
  L 0.00 122.69
  C 4.25 54.91 55.39 3.55 123.31 0.00
  Z
  M 236.25 128.01
  A 108.25 108.25 0.0 0 0 128.00 19.76
  A 108.25 108.25 0.0 0 0 19.75 128.01
  A 108.25 108.25 0.0 0 0 128.00 236.26
  A 108.25 108.25 0.0 0 0 236.25 128.01
  Z"
/>
<circle fill="#000000" cx="95.20" cy="93.34" r="14.87"/>
<circle fill="#000000" cx="163.06" cy="93.35" r="14.86"/>
<path fill="#000000" d="
  M 93.01 160.24
  C 116.20 184.86 155.38 178.79 170.54 148.73
  C 174.84 140.19 187.54 145.94 182.69 156.17
  C 161.58 200.67 96.48 200.87 74.13 157.95
  Q 71.96 153.76 71.98 151.13
  C 72.04 144.02 81.94 142.24 85.70 149.03
  C 87.88 152.96 90.00 157.03 93.01 160.24
  Z"
/>
</svg>
