<?xml version="1.0" encoding="UTF-8" standalone="no"?>
<!DOCTYPE svg PUBLIC "-//W3C//DTD SVG 1.1//EN" "http://www.w3.org/Graphics/SVG/1.1/DTD/svg11.dtd">
<svg xmlns="http://www.w3.org/2000/svg" version="1.1" viewBox="0 0 512 512">
<path fill="#000000" d="
  M 83.31 0.00
  L 279.06 0.00
  Q 298.79 3.44 298.77 23.51
  Q 298.72 62.58 298.77 101.64
  Q 298.79 114.19 300.19 120.64
  C 306.89 151.35 333.95 170.68 365.00 170.71
  Q 404.70 170.75 444.39 170.74
  C 460.43 170.74 469.25 178.19 469.25 194.71
  Q 469.26 330.06 469.24 465.40
  Q 469.24 474.61 468.08 479.37
  C 463.50 498.22 447.38 510.65 428.19 512.00
  L 83.69 512.00
  C 64.94 510.67 49.05 498.56 44.17 480.34
  Q 42.76 475.08 42.76 464.41
  Q 42.75 257.59 42.75 50.77
  Q 42.75 37.06 44.28 31.36
  C 49.05 13.62 64.88 1.32 83.31 0.00
  Z
  M 383.91 234.25
  A 20.97 20.97 0.0 0 0 362.94 213.28
  L 149.06 213.28
  A 20.97 20.97 0.0 0 0 128.09 234.25
  L 128.09 235.01
  A 20.97 20.97 0.0 0 0 149.06 255.98
  L 362.94 255.98
  A 20.97 20.97 0.0 0 0 383.91 235.01
  L 383.91 234.25
  Z
  M 383.93 319.62
  A 20.86 20.86 0.0 0 0 363.07 298.76
  L 148.93 298.76
  A 20.86 20.86 0.0 0 0 128.07 319.62
  L 128.07 320.38
  A 20.86 20.86 0.0 0 0 148.93 341.24
  L 363.07 341.24
  A 20.86 20.86 0.0 0 0 383.93 320.38
  L 383.93 319.62
  Z
  M 383.91 404.99
  A 20.97 20.97 0.0 0 0 362.94 384.02
  L 149.06 384.02
  A 20.97 20.97 0.0 0 0 128.09 404.99
  L 128.09 405.75
  A 20.97 20.97 0.0 0 0 149.06 426.72
  L 362.94 426.72
  A 20.97 20.97 0.0 0 0 383.91 405.75
  L 383.91 404.99
  Z"
/>
<path fill="#000000" d="
  M 361.81 0.00
  L 364.06 0.00
  Q 372.00 0.87 376.56 5.44
  Q 417.80 46.68 459.05 87.91
  Q 465.82 94.68 467.66 98.63
  C 472.46 108.97 466.53 122.97 455.36 126.73
  Q 451.70 127.97 442.87 127.98
  Q 414.19 128.02 385.50 127.97
  C 364.65 127.94 347.37 115.14 342.62 94.90
  Q 341.20 88.86 341.24 75.01
  Q 341.31 49.50 341.32 24.01
  Q 341.33 3.03 361.81 0.00
  Z"
/>
</svg>
