<?xml version="1.0" encoding="UTF-8" ?>
<!DOCTYPE svg PUBLIC "-//W3C//DTD SVG 1.1//EN" "http://www.w3.org/Graphics/SVG/1.1/DTD/svg11.dtd">
<svg width="920pt" height="920pt" viewBox="0 0 920 920" version="1.1" xmlns="http://www.w3.org/2000/svg">
<g id="#ffffffff">
<path fill="#00000000" opacity="1.00" d=" M 0.00 0.00 L 920.00 0.00 L 920.00 920.00 L 0.00 920.00 L 0.00 0.00 M 473.52 65.93 C 471.84 65.99 470.15 66.00 468.48 66.07 C 467.20 67.55 464.97 66.56 463.53 67.74 C 462.50 67.91 461.53 68.24 460.62 68.73 C 458.98 69.50 457.27 70.07 455.58 70.68 C 455.08 70.93 454.07 71.42 453.57 71.67 C 452.16 72.51 450.84 73.50 449.42 74.31 C 445.44 76.48 441.86 79.42 438.75 82.75 C 413.09 108.43 387.39 134.07 361.76 159.78 C 361.00 160.56 360.08 161.07 359.00 161.29 C 359.00 161.66 359.00 162.40 359.00 162.76 C 355.62 162.62 356.37 167.38 353.00 167.24 C 353.00 167.68 353.00 168.55 353.00 168.99 C 352.50 169.00 351.50 169.00 351.00 169.00 C 351.00 169.50 351.00 170.50 351.00 171.00 C 350.50 171.00 349.50 171.00 349.00 171.00 C 349.00 171.50 349.00 172.50 349.00 172.99 C 348.56 173.00 347.68 173.00 347.24 173.00 C 346.32 176.96 340.37 177.51 339.71 182.00 C 339.28 182.00 338.43 182.00 338.01 182.01 C 338.00 182.50 338.00 183.50 338.00 183.99 C 337.50 184.00 336.50 184.00 336.01 184.01 C 336.00 184.43 336.00 185.28 336.00 185.71 C 334.91 185.92 333.99 186.42 333.25 187.22 C 255.95 264.60 178.58 341.91 101.24 419.25 C 98.02 423.66 94.36 427.74 91.69 432.57 C 91.25 433.53 90.76 434.46 90.23 435.37 C 89.23 437.39 88.80 439.63 87.70 441.61 C 87.24 442.53 86.92 443.51 86.75 444.54 C 85.78 445.65 86.06 447.18 85.85 448.53 C 84.10 450.10 85.95 453.00 84.06 454.48 C 83.96 460.82 83.96 467.18 84.06 473.52 C 85.76 475.02 84.73 477.54 85.08 479.52 C 86.55 480.79 85.53 483.03 86.75 484.46 C 86.92 485.48 87.23 486.46 87.70 487.39 C 88.98 489.62 89.29 492.24 90.68 494.43 C 91.65 496.11 92.88 497.63 93.74 499.39 C 95.84 502.75 98.27 506.05 101.26 508.76 C 155.77 563.25 210.23 617.78 264.78 672.24 C 265.46 672.94 265.97 673.77 266.30 674.72 C 269.67 675.52 270.13 679.44 272.73 681.26 C 276.16 684.13 278.66 688.25 282.70 690.29 C 283.03 691.22 283.54 692.04 284.22 692.76 C 335.60 744.05 386.91 795.42 438.25 846.76 C 441.87 849.04 444.67 852.41 448.59 854.29 C 450.37 855.08 451.88 856.35 453.57 857.33 C 454.07 857.58 455.07 858.07 455.57 858.32 C 456.87 858.82 458.26 859.12 459.48 859.86 C 459.99 859.92 461.02 860.06 461.53 860.13 C 462.41 860.77 463.41 861.14 464.54 861.24 C 465.64 862.21 467.18 861.92 468.53 862.15 C 470.10 863.90 473.00 862.04 474.48 863.94 C 480.49 864.03 486.51 864.03 492.52 863.94 C 493.99 862.02 496.94 863.94 498.47 862.11 C 500.63 862.12 502.81 862.01 504.62 860.70 C 505.88 860.18 507.18 859.77 508.46 859.28 C 510.21 858.90 511.87 858.21 513.43 857.32 C 519.20 853.59 525.11 849.88 529.75 844.74 C 543.26 831.27 556.71 817.74 570.25 804.29 C 573.77 799.78 577.43 795.40 580.35 790.44 C 580.58 789.93 581.02 788.91 581.25 788.40 C 582.57 786.65 582.76 784.38 583.85 782.52 C 583.92 782.01 584.06 780.98 584.12 780.47 C 585.32 779.46 584.88 777.80 585.15 776.47 C 586.89 774.88 585.05 771.99 586.94 770.52 C 587.04 763.50 587.04 756.49 586.94 749.47 C 585.04 748.00 586.90 745.09 585.15 743.53 C 584.94 742.18 585.17 740.67 584.28 739.54 C 583.94 738.08 583.40 736.70 582.80 735.37 C 581.72 733.90 581.25 732.12 580.25 730.63 C 579.64 729.25 579.02 727.89 578.31 726.58 C 576.08 723.26 573.75 719.93 570.74 717.24 C 561.23 707.75 551.76 698.22 542.22 688.76 C 541.54 688.04 541.03 687.22 540.70 686.30 C 538.82 685.69 537.59 684.08 536.23 682.77 C 534.89 681.31 533.04 680.09 532.71 678.00 C 532.29 678.00 531.43 677.99 531.01 677.99 C 531.01 677.55 531.00 676.68 531.00 676.24 C 527.42 676.05 527.82 670.83 524.00 670.71 C 524.00 670.28 523.99 669.43 523.99 669.00 C 523.49 669.00 522.50 669.00 522.00 669.00 C 522.00 668.50 522.00 667.50 522.00 667.01 C 521.57 667.00 520.72 667.00 520.29 667.00 C 519.78 664.45 517.36 663.06 515.75 661.25 C 483.08 628.48 450.20 595.91 417.66 563.00 C 538.80 563.01 659.94 562.97 781.08 563.03 C 782.54 562.84 784.44 563.52 785.47 562.06 C 787.48 561.99 789.50 562.00 791.52 561.93 C 792.77 560.37 795.15 561.59 796.47 560.13 C 796.98 560.06 798.01 559.92 798.52 559.85 C 801.14 558.65 803.95 557.84 806.40 556.25 C 806.91 556.02 807.93 555.57 808.44 555.35 C 811.09 553.73 813.68 552.02 815.83 549.76 C 818.74 548.14 821.14 545.75 822.76 542.83 C 825.88 539.84 827.95 536.00 830.32 532.42 C 831.02 531.10 831.63 529.73 832.24 528.37 C 833.52 526.64 833.88 524.47 834.73 522.54 C 834.84 521.41 835.22 520.41 835.88 519.53 C 835.94 519.01 836.06 517.98 836.12 517.47 C 837.33 516.47 836.87 514.80 837.15 513.47 C 839.28 511.31 836.65 507.57 838.94 505.52 C 839.04 478.18 839.04 450.82 838.94 423.48 C 837.12 421.66 838.33 418.76 837.94 416.48 C 836.38 415.22 837.55 412.88 836.16 411.53 C 835.94 410.20 836.19 408.71 835.27 407.62 C 834.49 405.99 833.93 404.29 833.32 402.62 C 832.65 401.26 832.02 399.89 831.25 398.60 C 831.02 398.09 830.57 397.07 830.35 396.56 C 825.85 389.98 821.81 382.59 814.88 378.26 C 812.03 375.66 808.57 373.85 805.44 371.62 C 803.71 371.08 801.99 370.52 800.38 369.72 C 799.46 369.23 798.48 368.91 797.46 368.75 C 795.77 367.21 793.01 368.89 791.52 367.07 C 789.54 366.73 787.02 367.75 785.52 366.06 C 662.90 365.92 540.28 366.04 417.66 366.00 C 468.20 315.09 519.08 264.51 569.76 213.74 C 573.64 208.54 578.00 203.60 580.74 197.62 C 581.23 196.53 581.77 195.45 582.31 194.39 C 582.80 193.11 583.20 191.79 583.74 190.54 C 583.84 189.42 584.22 188.41 584.88 187.53 C 584.94 187.01 585.05 185.98 585.11 185.46 C 586.95 183.94 585.01 180.98 586.94 179.52 C 587.03 172.51 587.04 165.49 586.94 158.47 C 585.03 157.01 586.91 154.10 585.15 152.53 C 584.87 151.19 585.32 149.53 584.12 148.53 C 584.06 148.02 583.92 146.99 583.86 146.48 C 582.77 144.13 581.97 141.66 580.77 139.35 C 579.86 137.64 578.62 136.12 577.70 134.42 C 575.51 130.45 572.58 126.86 569.25 123.76 C 555.09 109.58 540.90 95.42 526.75 81.24 C 523.18 78.88 520.02 75.95 516.41 73.70 C 514.83 72.83 513.15 72.18 511.60 71.28 C 511.11 71.02 510.13 70.50 509.64 70.24 C 507.96 69.51 506.23 68.94 504.54 68.26 C 503.41 68.16 502.41 67.78 501.53 67.12 C 501.01 67.06 499.98 66.95 499.47 66.89 C 497.66 64.84 494.26 67.19 492.52 65.06 C 487.69 64.93 482.85 65.05 478.02 64.97 C 476.51 65.15 474.58 64.47 473.52 65.93 Z" />
</g>
<g id="#000000ff">
<path fill="#000000" opacity="1.00" d=" M 473.52 65.93 C 474.58 64.47 476.51 65.15 478.02 64.97 C 482.85 65.05 487.69 64.93 492.52 65.06 C 494.26 67.19 497.66 64.84 499.47 66.89 C 499.98 66.95 501.01 67.06 501.53 67.12 C 502.41 67.78 503.41 68.16 504.54 68.26 C 506.23 68.94 507.96 69.51 509.64 70.24 C 510.13 70.50 511.11 71.02 511.60 71.28 C 513.15 72.18 514.83 72.83 516.41 73.70 C 520.02 75.95 523.18 78.88 526.75 81.24 C 540.90 95.42 555.09 109.58 569.25 123.76 C 572.58 126.86 575.51 130.45 577.70 134.42 C 578.62 136.12 579.86 137.64 580.77 139.35 C 581.97 141.66 582.77 144.13 583.86 146.48 C 583.92 146.99 584.06 148.02 584.12 148.53 C 585.32 149.53 584.87 151.19 585.15 152.53 C 586.91 154.10 585.03 157.01 586.94 158.47 C 587.04 165.49 587.03 172.51 586.94 179.52 C 585.01 180.98 586.95 183.94 585.11 185.46 C 585.05 185.98 584.94 187.01 584.88 187.53 C 584.22 188.41 583.84 189.42 583.74 190.54 C 583.20 191.79 582.80 193.11 582.31 194.39 C 581.77 195.45 581.23 196.53 580.74 197.62 C 578.00 203.60 573.64 208.54 569.76 213.74 C 519.08 264.51 468.20 315.09 417.66 366.00 C 540.28 366.04 662.90 365.92 785.52 366.06 C 787.02 367.75 789.54 366.73 791.52 367.07 C 793.01 368.89 795.77 367.21 797.46 368.75 C 798.48 368.91 799.46 369.23 800.38 369.72 C 801.99 370.52 803.71 371.08 805.44 371.62 C 808.57 373.85 812.03 375.66 814.88 378.26 C 821.81 382.59 825.85 389.98 830.35 396.56 C 830.57 397.07 831.02 398.09 831.25 398.60 C 832.02 399.89 832.65 401.26 833.32 402.62 C 833.93 404.29 834.49 405.99 835.27 407.62 C 836.19 408.71 835.94 410.20 836.16 411.53 C 837.55 412.88 836.38 415.22 837.94 416.48 C 838.33 418.76 837.12 421.66 838.94 423.48 C 839.04 450.82 839.04 478.18 838.94 505.52 C 836.65 507.57 839.28 511.31 837.15 513.47 C 836.87 514.80 837.33 516.47 836.12 517.47 C 836.06 517.98 835.94 519.01 835.88 519.53 C 835.22 520.41 834.84 521.41 834.73 522.54 C 833.88 524.47 833.52 526.64 832.24 528.37 C 831.63 529.73 831.02 531.10 830.32 532.42 C 827.95 536.00 825.88 539.84 822.76 542.83 C 821.14 545.75 818.74 548.14 815.83 549.76 C 813.68 552.02 811.09 553.73 808.44 555.35 C 807.93 555.57 806.91 556.02 806.40 556.25 C 803.95 557.84 801.14 558.65 798.52 559.85 C 798.01 559.92 796.98 560.06 796.47 560.13 C 795.15 561.59 792.77 560.37 791.52 561.93 C 789.50 562.00 787.48 561.99 785.47 562.06 C 784.44 563.52 782.54 562.84 781.08 563.03 C 659.94 562.97 538.80 563.01 417.66 563.00 C 450.20 595.91 483.08 628.48 515.75 661.25 C 517.36 663.06 519.78 664.45 520.29 667.00 C 520.72 667.00 521.57 667.00 522.00 667.01 C 522.00 667.50 522.00 668.50 522.00 669.00 C 522.50 669.00 523.49 669.00 523.99 669.00 C 523.99 669.43 524.00 670.28 524.00 670.71 C 527.82 670.83 527.42 676.05 531.00 676.24 C 531.00 676.68 531.01 677.55 531.01 677.99 C 531.43 677.99 532.29 678.00 532.71 678.00 C 533.04 680.09 534.89 681.31 536.23 682.77 C 537.59 684.08 538.82 685.69 540.70 686.30 C 541.03 687.22 541.54 688.04 542.22 688.76 C 551.76 698.22 561.23 707.75 570.74 717.24 C 573.75 719.93 576.08 723.26 578.31 726.58 C 579.02 727.89 579.64 729.25 580.25 730.63 C 581.25 732.12 581.72 733.90 582.80 735.37 C 583.40 736.70 583.94 738.08 584.28 739.54 C 585.17 740.67 584.94 742.18 585.15 743.53 C 586.90 745.09 585.04 748.00 586.94 749.47 C 587.04 756.49 587.04 763.50 586.94 770.52 C 585.05 771.99 586.89 774.88 585.15 776.47 C 584.88 777.80 585.32 779.46 584.12 780.47 C 584.06 780.98 583.92 782.01 583.85 782.52 C 582.76 784.38 582.57 786.65 581.25 788.40 C 581.02 788.91 580.58 789.93 580.35 790.44 C 577.43 795.40 573.77 799.78 570.25 804.29 C 556.71 817.74 543.26 831.27 529.75 844.74 C 525.11 849.88 519.20 853.59 513.43 857.32 C 511.87 858.21 510.21 858.90 508.46 859.28 C 507.18 859.77 505.88 860.18 504.62 860.70 C 502.81 862.01 500.63 862.12 498.47 862.11 C 496.94 863.94 493.99 862.02 492.52 863.94 C 486.51 864.03 480.49 864.03 474.48 863.94 C 473.00 862.04 470.10 863.90 468.53 862.15 C 467.18 861.92 465.64 862.21 464.54 861.24 C 463.41 861.14 462.41 860.77 461.53 860.13 C 461.02 860.06 459.99 859.92 459.48 859.86 C 458.26 859.12 456.87 858.82 455.57 858.32 C 455.07 858.07 454.07 857.58 453.57 857.33 C 451.88 856.35 450.37 855.08 448.59 854.29 C 444.67 852.41 441.87 849.04 438.25 846.76 C 386.91 795.42 335.60 744.05 284.22 692.76 C 283.54 692.04 283.03 691.22 282.70 690.29 C 278.66 688.25 276.16 684.13 272.73 681.26 C 270.13 679.44 269.67 675.52 266.30 674.72 C 265.97 673.77 265.46 672.94 264.78 672.24 C 210.23 617.78 155.77 563.25 101.26 508.76 C 98.27 506.05 95.84 502.75 93.74 499.39 C 92.88 497.63 91.65 496.11 90.68 494.43 C 89.29 492.24 88.98 489.62 87.70 487.39 C 87.23 486.46 86.92 485.48 86.75 484.46 C 85.53 483.03 86.55 480.79 85.08 479.52 C 84.73 477.54 85.76 475.02 84.06 473.52 C 83.96 467.18 83.96 460.82 84.06 454.48 C 85.95 453.00 84.10 450.10 85.85 448.53 C 86.06 447.18 85.78 445.65 86.75 444.54 C 86.92 443.51 87.24 442.53 87.70 441.61 C 88.80 439.63 89.23 437.39 90.23 435.37 C 90.76 434.46 91.25 433.53 91.69 432.57 C 94.36 427.74 98.02 423.66 101.24 419.25 C 178.58 341.91 255.95 264.60 333.25 187.22 C 333.99 186.42 334.91 185.92 336.00 185.71 C 336.00 185.28 336.00 184.43 336.01 184.01 C 336.50 184.00 337.50 184.00 338.00 183.99 C 338.00 183.50 338.00 182.50 338.01 182.01 C 338.43 182.00 339.28 182.00 339.71 182.00 C 340.37 177.51 346.32 176.96 347.24 173.00 C 347.68 173.00 348.56 173.00 349.00 172.99 C 349.00 172.50 349.00 171.50 349.00 171.00 C 349.50 171.00 350.50 171.00 351.00 171.00 C 351.00 170.50 351.00 169.50 351.00 169.00 C 351.50 169.00 352.50 169.00 353.00 168.99 C 353.00 168.55 353.00 167.68 353.00 167.24 C 356.37 167.38 355.62 162.62 359.00 162.76 C 359.00 162.40 359.00 161.66 359.00 161.29 C 360.08 161.07 361.00 160.56 361.76 159.78 C 387.39 134.07 413.09 108.43 438.75 82.75 C 441.86 79.42 445.44 76.48 449.42 74.31 C 450.84 73.50 452.16 72.51 453.57 71.67 C 454.07 71.42 455.08 70.93 455.58 70.68 C 457.27 70.07 458.98 69.50 460.62 68.73 C 461.53 68.24 462.50 67.91 463.53 67.74 C 464.97 66.56 467.20 67.55 468.48 66.07 C 470.15 66.00 471.84 65.99 473.52 65.93 Z" />
</g>
</svg>
