<?xml version="1.0" encoding="UTF-8" ?>
<!DOCTYPE svg PUBLIC "-//W3C//DTD SVG 1.1//EN" "http://www.w3.org/Graphics/SVG/1.1/DTD/svg11.dtd">
<svg width="64pt" height="64pt" viewBox="0 0 64 64" version="1.1" xmlns="http://www.w3.org/2000/svg">
<g id="#000000ff">
<path fill="#000000" opacity="1.00" d=" M 3.74 13.98 C 3.55 8.98 7.70 3.95 12.89 4.03 C 19.61 3.89 26.34 4.12 33.07 3.94 C 35.59 5.43 35.59 8.79 33.05 10.29 C 26.68 10.15 20.31 10.20 13.95 10.22 C 11.82 9.90 9.86 11.76 10.23 13.92 C 10.21 25.96 10.18 38.02 10.24 50.06 C 10.03 52.08 12.01 53.61 13.92 53.38 C 25.62 53.43 37.31 53.35 49.01 53.41 C 50.72 53.55 53.06 53.05 53.27 50.97 C 53.70 44.36 53.09 37.71 53.50 31.09 C 53.83 27.88 59.31 27.84 59.55 31.11 C 59.76 37.76 59.63 44.42 59.61 51.07 C 59.57 56.42 54.07 60.40 48.98 60.03 C 37.32 59.96 25.66 60.01 13.99 60.01 C 8.64 60.19 3.82 55.42 3.77 50.10 C 3.73 38.07 3.79 26.02 3.74 13.98 Z" />
<path fill="#000000" opacity="1.00" d=" M 41.43 8.65 C 39.99 6.85 41.74 4.01 43.90 4.05 C 48.26 3.94 52.63 3.92 56.99 4.07 C 58.50 4.06 59.80 5.58 59.62 7.08 C 59.67 11.34 59.72 15.62 59.58 19.88 C 59.60 22.06 56.59 23.59 54.87 22.13 C 52.38 20.56 53.74 17.08 53.33 14.70 C 46.88 21.14 40.48 27.63 34.01 34.05 C 32.40 36.21 28.52 34.56 28.66 32.00 C 28.31 30.52 29.73 29.61 30.52 28.62 C 36.68 22.55 42.72 16.35 48.87 10.25 C 46.48 9.89 42.92 11.23 41.43 8.65 Z" />
</g>
</svg>
