<?xml version="1.0" encoding="UTF-8" ?>
<!DOCTYPE svg PUBLIC "-//W3C//DTD SVG 1.1//EN" "http://www.w3.org/Graphics/SVG/1.1/DTD/svg11.dtd">
<svg width="512pt" height="512pt" viewBox="0 0 512 512" version="1.1" xmlns="http://www.w3.org/2000/svg">
<g id="#000000ff">
<path fill="#000000" opacity="1.00" d=" M 179.82 36.17 C 184.86 18.34 202.32 4.76 220.98 5.03 C 302.01 4.98 383.04 4.98 464.07 5.03 C 482.97 4.76 500.74 18.69 505.49 36.88 C 506.70 41.14 507.01 45.59 507.01 50.00 C 506.98 188.00 507.03 326.01 506.98 464.01 C 507.36 484.94 490.13 504.40 469.32 506.56 C 469.45 506.87 469.70 507.48 469.83 507.79 C 445.22 508.26 420.61 507.88 396.00 508.00 C 338.33 508.00 280.65 508.00 222.97 508.00 C 219.81 507.99 216.65 507.72 213.50 507.44 C 213.56 507.10 213.68 506.44 213.73 506.11 C 194.09 503.38 178.34 484.74 178.18 465.03 C 178.10 452.67 178.10 440.31 178.18 427.96 C 178.30 416.64 187.18 406.33 198.07 403.79 C 205.21 402.25 213.12 403.40 219.01 407.91 C 225.55 412.41 229.75 420.01 229.98 427.96 C 230.21 437.00 230.00 446.05 230.07 455.10 C 305.08 455.11 380.09 455.11 455.10 455.10 C 455.11 322.37 455.10 189.63 455.10 56.90 C 380.09 56.89 305.08 56.90 230.07 56.90 C 230.00 65.96 230.21 75.02 229.98 84.07 C 229.73 91.75 225.81 99.13 219.60 103.65 C 213.63 108.48 205.42 109.83 198.03 108.19 C 187.18 105.64 178.32 95.35 178.18 84.07 C 178.06 74.71 178.17 65.33 178.13 55.97 C 178.16 49.35 177.77 42.57 179.82 36.17 Z" />
<path fill="#000000" opacity="1.00" d=" M 110.54 139.65 C 117.34 132.84 127.90 130.59 136.99 133.45 C 144.09 135.78 150.12 141.28 152.87 148.25 C 156.85 157.91 154.38 169.78 146.78 176.98 C 129.05 194.59 111.57 212.47 93.65 229.90 C 121.44 230.30 149.23 229.96 177.02 230.07 C 243.70 230.08 310.37 230.06 377.05 230.08 C 385.09 229.88 393.01 233.85 397.83 240.25 C 402.91 246.91 404.54 256.09 401.83 264.04 C 398.65 274.58 388.03 282.24 377.02 281.92 C 282.58 281.96 188.14 281.89 93.70 281.96 C 111.42 299.63 129.11 317.35 146.81 335.05 C 151.80 340.01 155.02 346.93 154.67 354.05 C 154.99 363.21 149.55 372.12 141.60 376.52 C 131.83 382.08 118.53 380.36 110.58 372.37 C 78.20 340.11 45.91 307.75 13.58 275.44 C 10.13 271.97 7.13 267.83 6.03 262.98 C 5.58 261.66 5.58 259.96 4.10 259.31 C 3.95 256.25 4.09 253.17 4.61 250.15 C 6.22 249.45 6.34 247.56 6.99 246.15 C 8.63 241.52 12.16 237.93 15.58 234.55 C 47.23 202.91 78.86 171.25 110.54 139.65 Z" />
</g>
</svg>
