<?xml version="1.0" encoding="UTF-8" standalone="no"?>
<!DOCTYPE svg PUBLIC "-//W3C//DTD SVG 1.1//EN" "http://www.w3.org/Graphics/SVG/1.1/DTD/svg11.dtd">
<svg xmlns="http://www.w3.org/2000/svg" version="1.1" viewBox="0.00 0.00 334.00 487.00">
<path fill="#000000" d="
  M 171.25 0.68
  C 215.23 3.11 250.02 36.04 255.86 79.36
  Q 256.73 85.82 256.74 99.31
  Q 256.76 172.03 256.64 244.75
  Q 256.62 259.75 251.66 274.07
  A 0.35 0.35 0.0 0 1 251.08 274.20
  L 78.33 101.46
  Q 78.00 101.12 77.97 100.65
  Q 76.96 85.86 79.03 74.02
  C 86.51 31.25 127.10 -1.76 171.25 0.68
  Z"
/>
<path fill="#000000" d="
  M 313.00 399.77
  C 310.59 400.05 305.04 398.92 303.12 397.00
  Q 159.30 253.17 15.47 109.35
  C 1.58 95.47 19.12 77.75 30.68 89.31
  Q 175.65 234.27 320.62 379.24
  C 327.88 386.50 322.51 398.66 313.00 399.77
  Z"
/>
<path fill="#000000" d="
  M 197.89 327.62
  C 170.35 338.15 138.46 333.50 114.84 316.44
  C 95.18 302.24 82.46 280.80 78.82 256.86
  C 76.56 242.00 77.74 223.56 77.48 207.48
  A 0.26 0.26 0.0 0 1 77.93 207.29
  L 197.96 327.30
  A 0.20 0.20 0.0 0 1 197.89 327.62
  Z"
/>
<path fill="#000000" d="
  M 219.44 487.00
  L 114.69 487.00
  C 105.71 484.76 99.99 475.87 105.24 467.50
  C 108.61 462.14 113.67 461.56 120.19 461.53
  Q 136.94 461.46 153.76 461.52
  A 0.75 0.74 90.0 0 0 154.50 460.77
  L 154.50 410.25
  A 0.73 0.73 0.0 0 0 153.81 409.52
  C 69.18 404.63 0.27 328.90 1.06 244.65
  C 1.23 226.59 25.51 226.95 26.17 243.44
  C 27.29 271.70 34.04 297.28 49.82 320.96
  C 91.06 382.86 171.17 402.44 236.22 366.30
  A 0.76 0.76 0.0 0 1 237.12 366.43
  L 255.02 384.23
  Q 255.46 384.66 254.94 384.98
  Q 221.12 405.87 181.43 409.46
  Q 180.00 409.59 180.00 411.02
  L 180.00 460.77
  A 0.73 0.73 0.0 0 0 180.73 461.50
  Q 195.93 461.51 211.20 461.50
  Q 219.71 461.50 222.64 462.51
  C 235.75 467.03 232.72 484.32 219.44 487.00
  Z"
/>
<path fill="#000000" d="
  M 333.14 252.90
  Q 330.73 294.93 308.65 330.87
  Q 308.31 331.43 307.84 330.96
  L 290.20 313.32
  Q 289.83 312.96 290.08 312.51
  Q 305.49 284.70 307.59 252.81
  C 307.96 247.07 307.53 240.60 310.50 236.32
  C 314.07 231.20 320.83 229.73 326.40 232.29
  C 334.51 236.02 333.58 245.22 333.14 252.90
  Z"
/>
</svg>
