<?xml version="1.0" encoding="UTF-8" standalone="no"?>
<!DOCTYPE svg PUBLIC "-//W3C//DTD SVG 1.1//EN" "http://www.w3.org/Graphics/SVG/1.1/DTD/svg11.dtd">
<svg xmlns="http://www.w3.org/2000/svg" version="1.1" viewBox="0.00 0.00 334.00 487.00">
<path fill="#000000" d="
  M 77.73 89.50
  C 78.19 15.73 163.94 -26.11 222.09 19.57
  Q 249.53 41.12 255.52 75.82
  Q 256.77 83.08 256.76 95.76
  Q 256.73 166.38 256.76 237.00
  Q 256.77 250.15 255.72 256.95
  C 251.86 282.01 238.08 304.09 216.93 318.16
  C 157.21 357.85 77.91 315.33 77.69 243.44
  C 77.53 192.12 77.41 140.82 77.73 89.50
  Z
  M 189.98 303.52
  C 213.97 294.30 231.28 270.47 231.26 244.33
  Q 231.22 171.54 231.27 98.74
  Q 231.28 85.48 230.03 78.83
  C 225.44 54.67 208.28 35.44 184.55 28.58
  C 148.86 18.26 111.50 41.71 104.45 77.83
  Q 103.25 83.99 103.25 97.74
  Q 103.25 168.31 103.26 238.88
  Q 103.26 250.51 104.61 256.89
  C 112.65 294.88 153.04 317.74 189.98 303.52
  Z"
/>
<path fill="#000000" d="
  M 219.19 487.00
  L 114.94 487.00
  C 98.03 483.49 100.01 461.55 117.26 461.52
  Q 135.48 461.48 153.76 461.51
  A 0.74 0.74 0.0 0 0 154.50 460.77
  L 154.50 410.24
  A 0.62 0.62 0.0 0 0 153.93 409.62
  C 68.68 402.69 3.48 332.83 0.88 247.89
  Q 0.70 242.20 1.73 239.36
  C 4.21 232.47 11.78 229.40 18.47 232.05
  C 27.29 235.55 26.06 243.58 26.62 251.86
  Q 29.71 296.99 57.30 331.60
  C 111.40 399.43 214.19 402.54 272.09 337.59
  Q 305.95 299.61 307.92 247.76
  Q 308.16 241.56 308.95 239.35
  C 312.72 228.81 327.39 228.27 332.22 238.27
  Q 333.62 241.20 333.52 246.48
  C 331.87 331.94 266.11 402.63 180.41 409.65
  A 0.45 0.45 0.0 0 0 180.00 410.10
  L 180.00 460.72
  Q 180.00 461.50 180.78 461.50
  Q 198.51 461.50 216.70 461.50
  C 234.90 461.51 236.05 484.62 219.19 487.00
  Z"
/>
</svg>
