<?xml version="1.0" encoding="UTF-8" standalone="no"?>
<!DOCTYPE svg PUBLIC "-//W3C//DTD SVG 1.1//EN" "http://www.w3.org/Graphics/SVG/1.1/DTD/svg11.dtd">
<svg xmlns="http://www.w3.org/2000/svg" version="1.1" viewBox="0.00 0.00 626.00 161.00">
<path fill="#2a455f" fill-opacity="0.498" d="
  M 458.25 1.04
  L 466.27 1.86
  C 463.40 2.25 463.60 6.23 464.25 8.14
  L 465.51 9.01
  C 459.50 10.61 454.01 8.89 448.21 10.15
  C 443.81 11.11 439.99 10.22 435.77 11.41
  Q 432.37 12.36 428.78 11.90
  A 2.02 1.99 36.6 0 0 427.78 12.04
  Q 425.02 13.17 422.00 12.89
  A 0.94 0.94 0.0 0 0 420.98 13.83
  L 420.90 51.74
  Q 420.29 52.45 419.90 50.89
  A 0.37 0.37 0.0 0 0 419.33 50.68
  Q 418.27 51.43 417.05 50.44
  Q 416.76 50.20 416.70 49.83
  L 416.02 45.70
  L 416.01 14.45
  Q 416.01 13.91 415.47 13.80
  C 413.72 13.45 411.84 14.46 410.56 14.61
  C 402.20 15.53 392.12 17.60 385.82 18.69
  C 376.68 20.28 369.96 22.27 362.90 22.85
  Q 362.48 22.88 362.18 23.19
  C 361.86 23.53 361.51 23.69 361.00 23.71
  Q 359.19 23.80 357.47 24.27
  C 354.25 25.15 350.01 24.44 350.01 29.40
  Q 349.99 59.11 350.00 87.63
  Q 350.01 89.90 352.18 89.26
  L 397.21 76.01
  Q 398.04 76.45 399.23 75.95
  Q 399.76 75.73 399.74 76.30
  Q 399.71 77.23 399.99 77.74
  L 400.15 83.30
  Q 400.78 83.38 400.01 84.48
  L 387.57 88.02
  A 1.10 1.05 9.5 0 0 386.98 88.42
  C 386.81 88.64 378.40 91.00 375.02 92.06
  Q 358.10 97.38 341.25 103.00
  Q 340.96 102.64 341.42 102.30
  Q 341.82 102.01 341.94 101.53
  Q 342.07 101.00 341.98 100.59
  Q 342.46 97.38 341.66 94.66
  Q 343.39 92.94 340.28 94.20
  Q 339.75 94.41 339.74 93.84
  L 339.73 93.21
  L 344.73 91.72
  A 1.79 1.78 81.7 0 0 346.00 90.01
  L 346.01 28.75
  A 1.76 1.71 67.1 0 0 343.03 27.49
  Q 342.57 27.99 341.32 27.85
  Q 340.35 27.74 339.67 27.91
  C 330.17 30.20 320.40 32.89 310.79 34.53
  C 306.68 35.23 303.26 36.71 299.00 36.89
  Q 298.50 36.91 298.12 37.24
  Q 297.57 37.73 297.26 37.79
  Q 289.37 39.33 281.79 41.19
  A 2.37 2.36 -7.1 0 0 280.00 43.48
  L 280.00 110.96
  A 1.32 1.32 0.0 0 0 281.73 112.22
  L 299.98 106.26
  Q 302.12 106.72 302.02 107.65
  Q 299.67 107.86 297.57 108.99
  Q 297.11 109.24 297.10 109.76
  L 296.94 116.02
  Q 295.55 116.15 296.79 118.36
  C 255.11 132.67 212.10 146.49 168.17 154.42
  C 166.46 154.73 163.59 154.74 161.32 155.66
  A 1.89 1.87 -52.8 0 1 160.41 155.79
  C 157.32 155.47 154.97 156.69 152.01 156.69
  C 149.06 156.68 146.49 157.69 143.66 157.79
  C 140.48 157.90 137.45 158.75 134.43 158.78
  C 128.73 158.83 122.27 159.66 117.51 159.82
  C 77.28 161.16 37.55 154.25 0.79 137.60
  Q 0.25 137.36 0.25 136.77
  L 0.25 121.76
  Q 0.25 121.06 0.90 121.35
  Q 22.70 131.02 31.48 133.51
  Q 46.62 137.81 62.08 141.11
  A 2.41 2.41 0.0 0 0 65.00 138.75
  Q 65.00 95.77 65.00 52.31
  C 65.00 50.37 64.11 48.68 62.33 48.13
  Q 47.88 43.72 33.86 38.13
  C 23.44 33.98 12.50 28.15 1.87 22.90
  A 3.02 3.01 -76.6 0 1 0.18 20.14
  L 0.43 6.10
  A 0.24 0.24 0.0 0 1 0.80 5.91
  C 5.37 8.93 9.38 9.87 14.42 13.12
  C 19.16 16.18 24.20 17.86 29.24 20.25
  C 51.68 30.87 76.72 37.38 102.50 41.74
  Q 108.42 42.74 112.23 43.05
  C 116.53 43.40 120.87 44.33 125.25 44.24
  C 127.93 44.19 130.50 45.03 132.93 45.02
  C 148.88 44.92 165.27 45.87 181.14 44.46
  C 188.61 43.80 195.93 43.42 203.36 42.29
  C 206.64 41.79 209.95 41.93 213.17 41.34
  Q 218.89 40.29 224.71 40.11
  Q 225.21 40.09 225.63 39.83
  Q 226.38 39.34 227.25 39.24
  C 243.60 37.24 259.83 33.85 276.05 30.97
  Q 276.52 30.88 276.91 30.61
  C 278.20 29.74 279.68 30.09 280.93 29.83
  Q 292.59 27.42 304.25 25.02
  Q 305.78 24.71 306.52 24.33
  A 1.01 0.04 -27.3 0 1 307.37 23.93
  Q 312.36 24.31 315.25 22.92
  Q 317.64 21.77 319.63 21.97
  Q 320.19 22.03 320.69 21.74
  Q 322.60 20.61 324.91 21.04
  Q 325.46 21.15 325.85 20.76
  Q 327.01 19.62 328.75 20.05
  A 1.41 1.33 -46.5 0 0 329.51 20.01
  Q 334.63 18.23 340.04 17.91
  Q 340.57 17.88 341.00 17.57
  C 342.05 16.82 343.25 17.09 344.27 16.82
  Q 348.06 15.82 351.93 15.26
  C 354.18 14.94 356.49 13.64 359.32 14.06
  Q 359.81 14.13 360.24 13.89
  Q 362.19 12.76 364.46 13.02
  Q 365.03 13.08 365.54 12.79
  Q 367.76 11.52 370.41 12.06
  Q 370.99 12.19 371.50 11.86
  Q 373.48 10.59 375.91 11.05
  Q 376.42 11.14 376.80 10.78
  C 378.04 9.61 382.10 10.07 384.31 8.98
  A 1.49 1.48 38.3 0 1 385.27 8.87
  Q 388.24 9.56 390.78 8.17
  Q 391.33 7.87 391.95 7.96
  Q 394.69 8.36 397.08 7.03
  A 1.36 1.35 -53.1 0 1 398.03 6.89
  Q 401.04 7.56 403.59 6.20
  A 1.97 1.91 -57.2 0 1 404.63 5.96
  C 409.05 6.19 412.53 4.56 416.42 5.02
  Q 416.87 5.07 417.29 4.89
  Q 420.79 3.38 424.72 4.12
  A 0.89 0.87 35.1 0 0 425.32 4.02
  L 427.21 2.96
  A 0.81 0.80 -56.1 0 1 427.70 2.86
  Q 432.12 3.41 436.41 2.65
  C 441.36 1.77 445.28 2.09 449.98 1.95
  C 452.45 1.88 455.37 0.89 458.25 1.04
  Z
  M 456.74 7.85
  L 456.97 4.25
  A 1.31 1.31 0.0 0 0 455.75 2.86
  L 453.88 2.74
  A 2.70 2.38 3.7 0 0 451.03 4.94
  L 450.94 6.40
  A 2.70 2.38 3.7 0 0 453.48 8.95
  L 455.35 9.07
  A 1.31 1.31 0.0 0 0 456.74 7.85
  Z
  M 440.02 10.09
  C 443.65 9.56 445.47 8.32 444.97 4.38
  Q 444.89 3.75 444.26 3.75
  L 439.82 3.75
  A 0.77 0.77 0.0 0 0 439.05 4.50
  L 438.91 9.10
  Q 438.88 10.25 440.02 10.09
  Z
  M 427.32 5.11
  C 424.15 7.98 426.47 12.54 430.98 10.62
  Q 431.53 10.38 431.61 9.79
  L 432.14 5.64
  Q 432.25 4.75 431.36 4.75
  L 428.24 4.75
  Q 427.71 4.75 427.32 5.11
  Z
  M 415.50 5.92
  C 412.50 5.57 412.80 9.96 413.15 11.71
  A 1.74 1.73 62.0 0 0 416.07 12.61
  Q 417.02 11.68 418.27 12.04
  A 0.57 0.57 0.0 0 0 419.00 11.49
  L 419.00 6.49
  Q 419.00 5.90 418.41 5.79
  Q 417.36 5.59 416.45 5.84
  Q 415.98 5.97 415.50 5.92
  Z
  M 405.36 8.03
  C 400.71 6.84 398.66 10.07 400.39 14.17
  A 1.07 1.07 0.0 0 0 401.95 14.66
  Q 403.57 13.64 405.52 14.06
  A 0.61 0.60 -85.7 0 0 406.25 13.43
  L 405.93 8.71
  Q 405.89 8.16 405.36 8.03
  Z
  M 8.09 20.76
  L 8.05 14.04
  Q 8.04 13.57 7.75 13.20
  Q 5.83 10.76 2.97 9.70
  A 1.10 1.09 -80.2 0 0 1.50 10.74
  C 1.52 14.63 0.04 23.15 7.17 21.86
  A 1.12 1.12 0.0 0 0 8.09 20.76
  Z
  M 387.77 17.07
  C 392.15 16.95 393.22 14.29 392.98 10.38
  A 0.62 0.62 0.0 0 0 392.33 9.80
  L 388.58 9.98
  A 1.20 1.20 0.0 0 0 387.49 10.82
  Q 386.61 13.57 387.08 16.50
  A 0.68 0.68 0.0 0 0 387.77 17.07
  Z
  M 373.84 17.86
  Q 373.68 18.21 373.73 18.62
  A 0.55 0.54 86.4 0 0 374.27 19.10
  L 378.41 19.12
  Q 379.08 19.12 379.35 18.51
  Q 380.41 16.12 379.88 13.50
  Q 379.76 12.95 379.30 12.65
  Q 376.93 11.09 374.34 13.18
  Q 374.02 13.43 374.01 13.85
  L 373.99 17.18
  Q 373.99 17.54 373.84 17.86
  Z
  M 361.37 21.28
  A 1.45 1.45 0.0 0 0 363.85 21.80
  Q 364.80 20.71 366.19 21.02
  A 0.81 0.81 0.0 0 0 367.17 20.19
  L 366.89 14.89
  A 0.73 0.73 0.0 0 0 366.04 14.21
  C 361.47 14.98 359.76 16.20 361.37 21.28
  Z
  M 352.39 16.86
  C 348.12 16.21 348.89 21.16 349.04 23.63
  A 0.69 0.68 -9.0 0 0 349.90 24.25
  L 354.55 23.05
  Q 355.20 22.89 355.15 22.22
  L 354.85 17.56
  A 0.75 0.73 13.2 0 0 354.46 16.95
  Q 353.83 16.60 353.16 16.80
  Q 352.78 16.91 352.39 16.86
  Z
  M 21.04 28.53
  C 21.08 24.28 22.34 19.29 17.27 17.33
  A 1.66 1.66 0.0 0 0 15.01 18.88
  L 15.00 24.99
  Q 14.99 25.55 15.36 25.98
  Q 17.24 28.15 19.93 29.26
  Q 21.03 29.72 21.04 28.53
  Z
  M 339.23 19.84
  C 335.40 19.70 334.87 25.10 337.05 26.66
  C 338.64 27.79 340.23 26.32 341.85 25.85
  A 0.63 0.63 0.0 0 0 342.30 25.21
  L 341.94 19.25
  Q 341.92 18.82 341.50 18.75
  Q 340.47 18.59 339.95 19.45
  A 0.80 0.79 16.2 0 1 339.23 19.84
  Z
  M 323.12 23.68
  Q 322.41 27.07 323.95 30.07
  A 0.60 0.59 58.2 0 0 324.82 30.28
  Q 326.36 29.16 328.24 29.23
  Q 329.00 29.26 329.00 28.50
  L 329.00 22.30
  A 0.59 0.59 0.0 0 0 328.41 21.71
  Q 325.91 21.72 323.70 22.91
  Q 323.23 23.16 323.12 23.68
  Z
  M 32.49 35.04
  Q 32.90 35.28 33.27 35.11
  A 1.56 1.54 -13.9 0 0 34.16 33.65
  C 34.04 29.98 35.09 22.76 28.72 23.86
  A 0.68 0.67 87.8 0 0 28.17 24.46
  C 27.57 30.51 27.19 31.95 32.49 35.04
  Z
  M 314.53 31.73
  A 1.73 1.73 0.0 0 0 316.10 30.00
  L 316.08 25.31
  A 0.56 0.55 87.1 0 0 315.48 24.76
  L 311.42 25.07
  A 1.01 1.00 7.6 0 0 310.55 25.73
  Q 309.47 28.80 310.22 32.00
  A 1.08 1.08 0.0 0 0 311.86 32.65
  Q 313.05 31.86 314.53 31.73
  Z
  M 303.12 28.83
  A 0.88 0.88 0.0 0 0 302.52 28.01
  Q 299.67 27.03 297.45 28.83
  A 1.24 1.20 -20.2 0 0 297.00 29.77
  L 297.00 34.34
  A 1.28 1.28 0.0 0 0 298.66 35.56
  L 302.50 34.38
  A 0.93 0.92 81.6 0 0 303.15 33.49
  L 303.12 28.83
  Z
  M 42.97 39.16
  L 45.95 39.99
  A 0.99 0.99 0.0 0 0 47.20 38.99
  L 46.86 31.46
  Q 46.83 30.88 46.37 30.53
  C 39.23 25.08 40.45 35.96 42.11 38.53
  Q 42.42 39.01 42.97 39.16
  Z
  M 288.74 30.35
  L 285.28 30.41
  A 1.39 1.39 0.0 0 0 283.92 31.82
  L 283.99 36.19
  A 2.10 1.98 89.0 0 0 286.01 38.26
  L 288.29 38.22
  A 2.10 1.98 89.0 0 0 290.23 36.09
  L 290.16 31.72
  A 1.39 1.39 0.0 0 0 288.74 30.35
  Z
  M 276.35 32.70
  C 269.55 31.57 268.82 43.80 275.70 40.74
  Q 277.00 40.16 277.00 38.74
  L 277.00 33.47
  A 0.78 0.78 0.0 0 0 276.35 32.70
  Z
  M 59.20 34.90
  L 55.80 33.33
  A 1.23 1.23 0.0 0 0 54.06 34.44
  C 54.06 38.60 52.50 43.23 58.58 44.02
  Q 60.00 44.20 60.00 42.77
  L 60.00 36.15
  A 1.38 1.38 0.0 0 0 59.20 34.90
  Z
  M 259.05 42.69
  A 1.22 1.22 0.0 0 0 261.13 43.56
  Q 262.03 42.68 263.17 43.08
  A 1.35 1.35 0.0 0 0 264.97 41.82
  L 265.01 36.61
  A 1.60 1.60 0.0 0 0 262.77 35.13
  Q 261.30 35.76 259.75 35.46
  A 0.60 0.60 0.0 0 0 259.03 36.05
  L 259.05 42.69
  Z
  M 67.83 47.08
  L 71.16 46.81
  A 1.35 1.35 0.0 0 0 72.39 45.35
  L 71.93 39.77
  A 3.01 2.87 -4.7 0 0 68.70 37.16
  L 68.68 37.16
  A 3.01 2.87 -4.7 0 0 65.91 40.26
  L 66.37 45.85
  A 1.35 1.35 0.0 0 0 67.83 47.08
  Z
  M 251.96 44.68
  L 252.02 39.14
  A 1.34 1.34 0.0 0 0 250.70 37.78
  L 248.42 37.75
  A 2.40 2.30 0.7 0 0 245.99 40.02
  L 245.95 43.64
  A 2.40 2.30 0.7 0 0 248.32 45.97
  L 250.60 46.00
  A 1.34 1.34 0.0 0 0 251.96 44.68
  Z
  M 233.63 48.04
  Q 236.16 48.46 238.39 47.39
  A 1.05 1.04 77.6 0 0 238.99 46.44
  L 239.00 40.48
  A 0.81 0.81 0.0 0 0 238.20 39.66
  Q 235.64 39.62 233.57 41.04
  A 1.16 1.16 0.0 0 0 233.05 41.97
  L 232.88 47.12
  A 0.90 0.90 0.0 0 0 233.63 48.04
  Z
  M 83.60 41.22
  L 80.88 40.57
  A 1.51 1.50 6.8 0 0 79.03 42.02
  L 78.99 48.48
  Q 78.98 49.09 79.52 49.37
  Q 81.85 50.56 84.52 49.82
  Q 85.00 49.69 85.00 49.19
  L 85.00 42.99
  A 1.82 1.82 0.0 0 0 83.60 41.22
  Z
  M 225.99 43.08
  A 1.35 1.35 0.0 0 0 224.32 41.77
  L 221.03 42.58
  A 1.35 1.35 0.0 0 0 220.00 43.89
  L 220.00 49.23
  A 1.35 1.35 0.0 0 0 221.72 50.53
  L 225.01 49.60
  A 1.35 1.35 0.0 0 0 226.00 48.30
  L 225.99 43.08
  Z
  M 95.30 43.36
  Q 94.10 42.54 92.75 42.66
  A 0.70 0.69 -1.5 0 0 92.12 43.31
  L 91.79 51.15
  Q 91.76 51.67 92.24 51.88
  L 94.93 53.04
  Q 95.45 53.27 95.99 53.12
  C 98.72 52.39 98.06 48.73 97.99 45.98
  Q 97.98 45.50 97.86 45.02
  Q 97.41 43.25 96.02 43.51
  A 0.99 0.98 56.7 0 1 95.30 43.36
  Z
  M 234.69 50.52
  Q 223.15 52.46 211.94 54.03
  A 2.27 2.27 0.0 0 0 210.00 56.26
  L 209.99 131.30
  A 0.96 0.96 0.0 0 0 211.16 132.24
  Q 226.78 128.79 242.07 124.23
  Q 252.53 121.12 262.92 117.74
  Q 266.36 116.62 272.73 115.00
  C 276.66 114.01 275.99 111.48 276.00 108.44
  Q 276.01 76.47 275.99 44.54
  A 1.83 1.83 0.0 0 0 273.77 42.75
  C 260.85 45.57 248.96 48.23 236.51 49.98
  Q 236.33 50.01 236.00 49.95
  Q 235.68 49.90 235.47 50.03
  A 0.93 0.01 -32.5 0 1 234.69 50.52
  Z
  M 206.81 50.83
  Q 206.68 51.13 206.75 51.36
  Q 206.83 51.66 207.33 51.83
  Q 210.28 52.83 212.50 51.25
  A 1.17 1.17 0.0 0 0 213.00 50.29
  L 213.00 44.74
  Q 213.00 44.17 212.46 43.98
  C 207.71 42.32 206.30 45.98 206.92 49.99
  Q 206.98 50.42 206.81 50.83
  Z
  M 106.34 54.65
  L 109.68 54.65
  A 1.35 1.35 0.0 0 0 111.03 53.29
  L 111.02 47.73
  A 2.99 2.93 89.9 0 0 108.08 44.75
  L 107.90 44.75
  A 2.99 2.93 89.9 0 0 104.98 47.75
  L 104.99 53.31
  A 1.35 1.35 0.0 0 0 106.34 54.65
  Z
  M 198.57 45.28
  L 195.25 45.34
  A 1.33 1.33 0.0 0 0 193.94 46.69
  L 194.04 52.84
  A 1.55 1.44 -0.9 0 0 195.61 54.25
  L 198.49 54.21
  A 1.55 1.44 -0.9 0 0 200.02 52.74
  L 199.92 46.59
  A 1.33 1.33 0.0 0 0 198.57 45.28
  Z
  M 122.69 46.76
  L 119.35 46.74
  A 1.34 1.34 0.0 0 0 118.00 48.08
  L 117.98 53.65
  A 2.90 2.59 0.2 0 0 120.87 56.25
  L 121.09 56.25
  A 2.90 2.59 0.2 0 0 124.00 53.67
  L 124.02 48.10
  A 1.34 1.34 0.0 0 0 122.69 46.76
  Z
  M 169.44 56.07
  C 177.47 58.15 176.46 46.12 171.60 46.73
  A 3.12 3.11 -4.3 0 0 168.88 49.88
  L 169.00 55.50
  Q 169.01 55.95 169.44 56.07
  Z
  M 187.11 54.53
  L 186.95 47.49
  A 0.77 0.77 0.0 0 0 186.16 46.74
  L 184.37 46.78
  A 3.52 2.59 -1.3 0 0 180.91 49.45
  L 180.99 52.85
  A 3.52 2.59 -1.3 0 0 184.57 55.36
  L 186.36 55.32
  A 0.77 0.77 0.0 0 0 187.11 54.53
  Z
  M 137.00 55.56
  L 136.98 49.10
  A 1.38 1.38 0.0 0 0 135.59 47.72
  L 134.44 47.73
  A 3.84 3.63 89.8 0 0 130.83 51.58
  L 130.83 53.12
  A 3.84 3.63 89.8 0 0 134.48 56.95
  L 135.63 56.94
  A 1.38 1.38 0.0 0 0 137.00 55.56
  Z
  M 148.56 47.84
  L 145.16 47.88
  A 1.37 1.37 0.0 0 0 143.81 49.27
  L 143.87 54.39
  A 2.98 2.89 -0.7 0 0 146.89 57.24
  L 147.07 57.24
  A 2.98 2.89 -0.7 0 0 150.01 54.31
  L 149.95 49.19
  A 1.37 1.37 0.0 0 0 148.56 47.84
  Z
  M 161.88 55.69
  L 162.04 49.29
  A 1.33 1.33 0.0 0 0 160.74 47.93
  L 158.66 47.88
  A 2.57 2.45 1.4 0 0 156.03 50.27
  L 155.93 54.43
  A 2.57 2.45 1.4 0 0 158.44 56.94
  L 160.52 56.99
  A 1.33 1.33 0.0 0 0 161.88 55.69
  Z
  M 118.79 58.08
  Q 116.33 57.92 113.86 57.81
  C 111.46 57.71 109.10 56.82 106.51 56.69
  C 94.70 56.12 82.01 52.90 70.62 50.45
  A 1.34 1.34 0.0 0 0 69.00 51.76
  L 69.00 139.49
  A 3.01 3.00 -85.9 0 0 71.57 142.47
  Q 78.96 143.55 86.52 144.29
  C 101.76 145.79 117.81 145.04 133.01 144.98
  A 2.01 2.00 -0.1 0 0 135.01 142.98
  L 135.00 60.66
  Q 135.00 60.11 134.60 59.72
  Q 133.55 58.68 131.92 58.81
  C 127.29 59.19 123.07 58.35 118.79 58.08
  Z
  M 170.92 58.49
  Q 168.44 58.92 164.74 58.87
  Q 152.66 58.69 142.52 58.77
  A 3.56 3.55 89.8 0 0 139.00 62.33
  Q 139.01 101.69 139.00 140.87
  C 139.00 145.42 144.81 144.13 147.48 143.71
  C 152.71 142.88 158.36 142.86 162.50 141.94
  Q 166.60 141.03 169.14 140.93
  A 1.55 1.54 -63.6 0 0 169.96 140.65
  Q 170.58 140.23 171.25 140.23
  C 174.31 140.23 176.91 139.16 179.60 138.92
  Q 182.80 138.63 185.92 137.86
  C 192.05 136.35 198.01 135.78 203.92 133.53
  A 1.67 1.67 0.0 0 0 205.00 131.97
  L 205.00 55.76
  A 0.70 0.69 -3.0 0 0 204.23 55.07
  Q 199.37 55.59 194.39 56.40
  C 191.36 56.90 187.98 56.70 184.78 57.16
  C 179.85 57.87 176.02 57.83 171.50 58.06
  Q 171.29 58.07 171.22 58.24
  Q 171.14 58.45 170.92 58.49
  Z
  M 387.03 80.52
  L 386.92 85.39
  Q 386.90 86.03 387.55 86.06
  Q 390.08 86.17 392.32 84.92
  Q 392.80 84.65 392.92 84.13
  Q 393.59 81.41 392.07 79.31
  A 0.56 0.54 67.5 0 0 391.54 79.08
  L 387.81 79.64
  A 0.92 0.91 -3.8 0 0 387.03 80.52
  Z
  M 374.00 84.60
  L 374.00 89.50
  Q 374.00 90.14 374.64 90.19
  C 379.01 90.53 380.59 87.28 379.83 83.09
  Q 379.72 82.48 379.11 82.63
  L 374.67 83.74
  A 0.89 0.89 0.0 0 0 374.00 84.60
  Z
  M 366.01 86.72
  C 361.82 86.55 360.33 89.77 361.22 93.79
  Q 361.36 94.42 361.98 94.25
  L 366.51 93.02
  Q 367.09 92.86 367.08 92.26
  L 366.97 87.69
  A 1.00 0.99 0.6 0 0 366.01 86.72
  Z
  M 354.44 90.75
  C 348.85 89.30 348.73 93.55 349.04 97.46
  Q 349.07 97.92 349.53 97.98
  C 354.36 98.62 355.30 95.36 354.96 91.37
  Q 354.92 90.88 354.44 90.75
  Z
  M 284.36 120.01
  C 287.75 121.19 290.99 117.64 289.93 114.26
  A 1.58 1.55 46.2 0 1 289.94 113.27
  Q 290.37 111.98 288.98 111.75
  Q 286.72 111.39 284.33 113.19
  Q 283.97 113.46 283.96 113.91
  L 283.83 119.24
  A 0.79 0.79 0.0 0 0 284.36 120.01
  Z
  M 271.11 123.41
  A 1.01 1.01 0.0 0 0 271.99 124.16
  Q 274.43 124.40 276.46 123.28
  A 1.02 0.99 -15.0 0 0 276.98 122.41
  L 277.04 116.84
  A 0.97 0.97 0.0 0 0 275.94 115.87
  Q 269.44 116.73 271.11 123.41
  Z
  M 259.01 122.02
  L 258.81 127.24
  Q 258.79 127.75 259.29 127.84
  C 264.77 128.91 266.14 124.03 264.49 119.80
  A 0.70 0.69 68.0 0 0 263.58 119.41
  L 259.67 121.07
  Q 259.04 121.34 259.01 122.02
  Z
  M 250.89 131.45
  C 253.01 130.33 252.01 126.90 251.99 125.01
  A 1.34 1.34 0.0 0 0 250.56 123.69
  C 245.55 124.01 245.96 127.51 245.73 131.25
  Q 245.70 131.80 246.23 131.95
  Q 248.71 132.60 250.89 131.45
  Z
  M 1.68 126.90
  L 1.43 133.93
  A 0.95 0.93 25.3 0 0 1.67 134.58
  Q 3.75 136.84 6.75 137.19
  A 1.21 1.20 -86.7 0 0 8.10 135.98
  C 8.08 132.20 9.15 124.53 2.50 125.93
  A 1.03 1.02 85.4 0 0 1.68 126.90
  Z
  M 237.92 127.39
  Q 235.53 127.33 233.58 128.60
  Q 233.08 128.92 233.06 129.52
  L 232.87 135.53
  Q 232.85 136.01 233.33 136.03
  Q 236.18 136.13 238.73 134.79
  A 0.72 0.72 0.0 0 0 239.11 134.14
  L 238.95 128.41
  A 1.05 1.04 0.0 0 0 237.92 127.39
  Z
  M 16.10 131.02
  C 15.01 132.77 13.75 138.83 16.17 140.55
  Q 18.33 142.09 20.40 142.08
  Q 21.05 142.08 21.04 141.43
  L 20.90 133.31
  Q 20.89 132.62 20.26 132.32
  L 16.97 130.76
  A 0.68 0.68 0.0 0 0 16.10 131.02
  Z
  M 224.96 130.75
  C 219.15 131.65 219.27 135.36 220.09 139.76
  A 0.61 0.60 -8.5 0 0 220.76 140.25
  Q 223.97 139.83 226.05 137.47
  A 1.09 1.08 58.1 0 0 226.28 136.46
  Q 225.68 134.34 226.28 132.24
  A 1.18 1.18 0.0 0 0 224.96 130.75
  Z
  M 207.62 135.62
  C 206.77 137.00 206.70 140.68 206.75 142.34
  Q 206.77 142.88 207.30 142.94
  C 214.58 143.73 213.05 140.55 212.96 135.39
  A 1.19 1.18 81.2 0 0 211.43 134.27
  L 208.04 135.30
  A 0.75 0.74 -82.1 0 0 207.62 135.62
  Z
  M 28.29 136.14
  C 27.40 139.80 27.21 147.71 33.36 145.89
  Q 34.00 145.70 34.00 145.03
  L 34.00 137.45
  A 0.80 0.78 7.7 0 0 33.41 136.69
  L 29.21 135.59
  A 0.75 0.75 0.0 0 0 28.29 136.14
  Z
  M 198.75 137.38
  L 194.71 138.26
  Q 194.11 138.39 194.09 139.00
  L 193.79 145.29
  Q 193.78 145.72 194.19 145.83
  Q 196.94 146.60 199.40 145.38
  A 1.06 1.05 -13.0 0 0 200.00 144.43
  L 199.99 138.37
  A 1.02 1.02 0.0 0 0 198.75 137.38
  Z
  M 46.96 149.46
  C 47.10 146.27 48.33 137.04 41.48 140.05
  A 0.77 0.77 0.0 0 0 41.01 140.76
  C 40.97 144.51 39.85 151.31 46.41 150.09
  Q 46.94 150.00 46.96 149.46
  Z
  M 182.69 148.81
  C 188.53 150.54 187.03 143.55 187.09 140.46
  A 0.63 0.63 0.0 0 0 186.41 139.81
  Q 179.35 140.28 181.12 147.41
  Q 181.37 148.42 182.69 148.81
  Z
  M 55.38 152.77
  L 58.78 152.66
  A 1.38 1.38 0.0 0 0 60.12 151.24
  L 59.91 145.06
  A 2.88 2.88 0.0 0 0 56.94 142.28
  L 56.54 142.29
  A 2.88 2.88 0.0 0 0 53.75 145.26
  L 53.96 151.44
  A 1.38 1.38 0.0 0 0 55.38 152.77
  Z
  M 174.11 142.80
  L 169.95 142.69
  A 1.00 1.00 0.0 0 0 168.92 143.66
  L 168.78 149.02
  A 2.98 2.62 1.5 0 0 171.69 151.72
  L 171.89 151.72
  A 2.98 2.62 1.5 0 0 174.94 149.18
  L 175.08 143.82
  A 1.00 1.00 0.0 0 0 174.11 142.80
  Z
  M 156.83 145.43
  A 1.15 1.15 0.0 0 0 156.04 146.48
  Q 155.96 148.75 156.00 151.25
  C 156.02 153.44 157.54 155.05 159.58 153.19
  A 0.99 0.99 0.0 0 1 160.50 152.97
  Q 161.28 153.18 161.84 152.79
  Q 162.30 152.47 162.27 151.91
  L 161.92 145.36
  A 1.20 1.20 0.0 0 0 160.35 144.29
  L 156.83 145.43
  Z
  M 72.41 153.57
  L 71.66 146.08
  A 1.37 1.37 0.0 0 0 70.16 144.86
  L 69.33 144.94
  A 3.93 3.59 -5.7 0 0 65.77 148.90
  L 66.08 151.97
  A 3.93 3.59 -5.7 0 0 70.35 155.15
  L 71.18 155.07
  A 1.37 1.37 0.0 0 0 72.41 153.57
  Z
  M 145.03 154.93
  L 148.54 155.07
  A 1.42 1.42 0.0 0 0 150.02 153.71
  L 150.21 148.92
  A 3.05 2.89 -87.7 0 0 147.45 145.76
  L 146.87 145.73
  A 3.05 2.89 -87.7 0 0 143.86 148.66
  L 143.66 153.45
  A 1.42 1.42 0.0 0 0 145.03 154.93
  Z
  M 78.83 147.78
  L 79.18 154.97
  A 1.35 1.35 0.0 0 0 80.59 156.26
  L 81.09 156.23
  A 4.17 2.72 -2.8 0 0 85.13 153.31
  L 84.91 148.86
  A 4.17 2.72 -2.8 0 0 80.61 146.34
  L 80.11 146.37
  A 1.35 1.35 0.0 0 0 78.83 147.78
  Z
  M 136.89 155.15
  L 137.16 147.83
  A 0.98 0.98 0.0 0 0 136.22 146.82
  L 133.63 146.72
  A 3.58 2.49 -87.9 0 0 131.01 150.21
  L 130.93 152.33
  A 3.58 2.49 -87.9 0 0 133.29 156.00
  L 135.88 156.09
  A 0.98 0.98 0.0 0 0 136.89 155.15
  Z
  M 98.1307 149.6392
  A 1.91 1.91 0.0 0 0 96.2141 147.7358
  L 93.8141 147.7442
  A 1.91 1.91 0.0 0 0 91.9108 149.6609
  L 91.9293 154.9608
  A 1.91 1.91 0.0 0 0 93.8459 156.8642
  L 96.2459 156.8558
  A 1.91 1.91 0.0 0 0 98.1492 154.9391
  L 98.1307 149.6392
  Z
  M 105.91 157.03
  L 110.05 157.03
  A 1.15 1.15 0.0 0 0 111.20 155.87
  L 111.19 150.92
  A 3.12 3.08 89.9 0 0 108.10 147.81
  L 107.82 147.81
  A 3.12 3.08 89.9 0 0 104.75 150.94
  L 104.76 155.89
  A 1.15 1.15 0.0 0 0 105.91 157.03
  Z
  M 124.07 155.68
  L 124.21 149.28
  A 1.42 1.42 0.0 0 0 122.82 147.83
  L 120.76 147.78
  A 3.04 2.86 -88.7 0 0 117.84 150.76
  L 117.76 153.92
  A 3.04 2.86 -88.7 0 0 120.56 157.02
  L 122.61 157.07
  A 1.42 1.42 0.0 0 0 124.07 155.68
  Z"
/>
<path fill="#0e3341" fill-opacity="0.498" d="
  M 458.25 1.04
  L 481.75 1.05
  Q 481.47 1.68 481.57 2.20
  C 477.20 0.88 476.81 4.14 476.88 7.22
  Q 476.89 7.71 477.37 7.82
  Q 480.59 8.61 482.48 7.19
  L 482.18 8.77
  L 465.51 9.01
  L 464.25 8.14
  L 468.79 7.63
  Q 469.29 7.58 469.46 7.11
  C 470.58 4.18 470.06 1.53 466.27 1.86
  L 458.25 1.04
  Z"
/>
<path fill="#2a455f" fill-opacity="0.498" d="
  M 481.75 1.05
  C 486.77 0.52 492.35 1.79 496.02 1.95
  C 499.04 2.07 504.13 1.56 506.75 3.04
  L 506.50 3.20
  Q 506.35 3.29 506.46 3.43
  L 506.76 3.78
  L 503.65 3.52
  Q 503.18 3.48 503.06 3.94
  Q 502.24 7.12 504.44 9.01
  Q 506.04 9.16 506.80 9.71
  L 497.30 9.75
  A 1.53 1.52 58.4 0 1 496.60 9.58
  Q 494.00 8.22 491.56 9.59
  A 1.13 1.12 75.5 0 0 490.99 10.57
  L 490.99 58.30
  Q 490.99 58.96 491.66 58.95
  L 495.05 58.92
  Q 494.39 59.51 494.50 59.73
  L 492.03 59.76
  Q 491.53 59.77 491.16 60.11
  Q 489.19 61.91 490.28 64.99
  Q 490.71 66.38 489.70 66.57
  Q 483.77 68.00 477.70 67.69
  Q 478.33 67.47 478.26 66.97
  L 481.23 66.95
  Q 481.77 66.94 482.09 66.50
  Q 484.44 63.23 481.52 60.87
  L 483.78 60.12
  C 486.04 59.30 487.01 58.02 487.01 55.50
  Q 487.01 33.22 487.00 10.87
  Q 487.00 10.35 486.62 9.99
  Q 485.03 8.50 482.18 8.77
  L 482.48 7.19
  Q 483.69 3.54 481.57 2.20
  Q 481.47 1.68 481.75 1.05
  Z
  M 496.0305 3.6448
  A 0.83 0.83 0.0 0 0 495.2240 2.7919
  L 490.8657 2.6702
  A 0.83 0.83 0.0 0 0 490.0128 3.4767
  L 489.9095 7.1752
  A 0.83 0.83 0.0 0 0 490.7160 8.0281
  L 495.0743 8.1498
  A 0.83 0.83 0.0 0 0 495.9272 7.3433
  L 496.0305 3.6448
  Z"
/>
<path fill="#0e3341" fill-opacity="0.498" d="
  M 506.75 3.04
  C 509.72 2.94 512.00 2.81 515.08 3.67
  C 517.84 4.44 520.42 4.38 523.44 5.11
  C 525.39 5.58 527.55 5.35 529.48 5.86
  Q 532.07 6.54 534.71 6.93
  C 538.68 7.52 542.69 8.88 546.81 9.32
  Q 547.29 9.38 547.72 9.61
  C 549.17 10.41 550.61 10.16 552.06 10.68
  Q 554.10 11.40 556.30 11.83
  L 555.93 12.38
  Q 555.27 11.72 554.24 11.76
  Q 553.83 11.77 553.83 12.18
  L 553.83 16.16
  A 1.12 1.11 1.9 0 0 554.88 17.27
  Q 556.58 17.37 558.23 18.18
  L 556.21 18.35
  Q 546.59 15.29 543.03 14.97
  Q 540.02 14.70 538.37 14.05
  Q 537.91 13.87 537.42 13.86
  Q 535.25 13.80 531.51 12.76
  Q 529.51 12.21 522.71 11.73
  C 519.74 11.51 515.72 10.29 511.79 10.88
  A 1.43 1.41 -34.8 0 1 510.87 10.72
  Q 508.90 9.61 506.80 9.71
  Q 506.04 9.16 504.44 9.01
  L 508.44 9.03
  Q 508.96 9.03 508.98 8.52
  L 509.18 4.60
  A 0.48 0.47 22.0 0 0 509.00 4.19
  Q 508.07 3.44 506.76 3.78
  L 506.46 3.43
  Q 506.35 3.29 506.50 3.20
  L 506.75 3.04
  Z
  M 522.17 8.46
  A 0.33 0.31 -33.8 0 0 522.23 8.20
  Q 521.35 3.49 516.60 4.93
  Q 516.00 5.12 516.00 5.75
  L 516.00 9.18
  Q 516.00 9.86 516.68 9.93
  L 520.08 10.30
  Q 520.66 10.36 521.03 9.90
  L 522.17 8.46
  Z
  M 527.71 6.84
  C 526.64 11.65 529.74 12.59 533.66 12.36
  Q 534.25 12.32 534.25 11.73
  L 534.25 8.10
  A 0.80 0.78 -84.8 0 0 533.61 7.32
  L 528.46 6.34
  Q 527.84 6.22 527.71 6.84
  Z
  M 540.80 11.75
  Q 540.59 12.68 540.84 13.68
  Q 541.01 14.40 541.74 14.27
  Q 543.08 14.04 544.23 14.79
  A 1.73 1.72 -60.4 0 0 546.72 14.10
  C 548.71 10.02 544.58 9.84 542.14 8.81
  Q 540.68 8.20 540.74 9.78
  L 540.81 11.64
  A 0.56 0.26 70.1 0 1 540.80 11.75
  Z"
/>
<path fill="#2a455f" fill-opacity="0.498" d="
  M 556.30 11.83
  C 557.72 12.40 559.23 12.27 560.60 12.78
  C 567.81 15.45 575.74 17.18 582.52 20.67
  Q 582.97 20.90 582.49 20.76
  Q 581.34 20.42 581.29 20.44
  A 2.52 2.31 -35.3 0 0 580.37 24.72
  Q 582.16 25.89 584.52 26.07
  A 1.71 1.71 0.0 0 0 585.71 23.02
  L 584.32 21.92
  A 0.34 0.34 0.0 0 1 584.66 21.33
  Q 593.79 24.92 597.50 26.48
  Q 598.21 26.79 598.74 27.50
  L 593.26 25.64
  Q 592.35 25.33 592.43 26.29
  L 592.69 29.71
  Q 592.72 30.05 592.40 29.94
  L 572.49 22.77
  Q 572.09 22.62 572.38 22.31
  C 573.99 20.52 573.15 16.97 570.44 16.95
  Q 569.94 16.94 569.53 16.65
  Q 568.50 15.91 567.26 15.99
  Q 566.65 16.03 566.55 16.64
  C 565.71 21.43 569.12 20.04 571.19 22.03
  Q 571.99 22.80 570.93 22.47
  L 562.39 19.82
  A 1.07 1.06 -81.4 0 0 561.01 20.84
  L 560.98 61.49
  Q 560.98 61.98 561.46 62.10
  L 569.53 64.16
  Q 570.96 64.52 569.49 64.51
  L 567.11 64.48
  Q 566.64 64.48 566.66 64.95
  L 566.75 68.42
  A 0.54 0.54 0.0 0 0 566.92 68.79
  Q 567.73 69.56 569.27 69.30
  Q 568.92 69.69 569.27 69.99
  L 555.25 67.67
  L 555.25 67.24
  L 559.73 67.20
  Q 560.43 67.20 560.31 66.50
  L 559.89 64.24
  Q 559.80 63.76 559.36 63.54
  L 555.93 61.81
  L 556.29 61.17
  Q 556.66 61.33 556.94 60.96
  Q 557.10 60.75 557.10 60.37
  Q 556.93 40.18 557.02 19.98
  A 1.18 1.17 -61.0 0 0 556.85 19.37
  L 556.21 18.35
  L 558.23 18.18
  C 562.23 15.76 559.68 12.61 555.93 12.38
  L 556.30 11.83
  Z"
/>
<path fill="#0e3341" fill-opacity="0.498" d="
  M 598.74 27.50
  L 611.50 33.47
  Q 610.87 33.39 610.76 33.75
  L 605.63 31.43
  A 0.70 0.70 0.0 0 0 604.64 32.15
  Q 605.08 35.79 608.25 36.86
  L 607.97 37.28
  L 597.74 32.25
  A 0.13 0.13 0.0 0 1 597.79 32.00
  L 598.27 32.00
  Q 598.85 32.00 599.07 31.46
  Q 599.91 29.39 598.74 27.50
  Z"
/>
<path fill="#2a455f" fill-opacity="0.498" d="
  M 611.50 33.47
  C 614.24 34.88 617.44 36.86 620.33 37.79
  Q 620.68 37.91 620.74 38.22
  Q 620.82 38.63 620.45 38.46
  L 618.89 37.73
  Q 618.42 37.51 618.20 37.99
  Q 616.62 41.59 619.24 42.34
  L 619.27 42.92
  L 607.97 37.28
  L 608.25 36.86
  L 610.39 37.89
  Q 610.92 38.15 611.09 37.59
  Q 611.74 35.56 610.76 33.75
  Q 610.87 33.39 611.50 33.47
  Z"
/>
<path fill="#0e3341" fill-opacity="0.498" d="
  M 619.27 42.92
  L 619.24 42.34
  L 623.74 44.43
  Q 624.22 44.65 624.37 44.14
  Q 625.23 41.27 622.87 40.03
  Q 620.61 38.83 623.02 39.69
  Q 626.66 40.99 625.33 45.25
  Q 625.18 45.72 624.74 45.51
  L 619.27 42.92
  Z"
/>
<path fill="#0e3341" fill-opacity="0.498" d="
  M 416.02 45.70
  L 416.70 49.83
  Q 416.76 50.20 417.05 50.44
  Q 418.27 51.43 419.33 50.68
  A 0.37 0.37 0.0 0 1 419.90 50.89
  Q 420.29 52.45 420.90 51.74
  L 421.00 69.76
  Q 421.00 70.76 421.87 70.26
  L 424.03 68.99
  A 0.60 0.56 34.6 0 1 424.42 68.93
  Q 426.84 69.45 428.73 68.10
  Q 429.18 67.78 429.72 67.93
  Q 431.49 68.46 432.50 67.12
  A 0.81 0.81 0.0 0 1 433.45 66.85
  Q 435.76 67.76 437.45 66.24
  A 1.23 1.21 27.5 0 1 438.44 65.94
  C 441.60 66.35 443.92 64.70 447.00 65.01
  A 1.12 1.07 -63.0 0 0 447.86 64.71
  C 449.55 63.11 451.64 64.93 453.05 63.24
  L 453.02 64.73
  C 450.35 65.86 449.86 70.63 453.29 71.11
  Q 452.94 71.31 452.73 71.79
  Q 451.44 71.63 450.20 72.60
  A 0.95 0.94 -59.6 0 1 449.48 72.79
  Q 447.33 72.44 445.60 73.62
  Q 445.18 73.91 444.69 73.81
  Q 442.34 73.35 440.32 74.59
  Q 439.90 74.84 439.42 74.77
  Q 437.22 74.44 435.46 75.78
  A 1.32 1.32 0.0 0 1 434.43 76.03
  C 432.61 75.72 431.63 76.72 430.17 76.98
  C 428.24 77.32 426.45 77.62 424.33 78.24
  Q 421.89 78.96 417.48 79.69
  Q 415.11 80.09 408.90 82.20
  C 406.20 83.12 402.96 83.22 400.01 84.48
  Q 400.78 83.38 400.15 83.30
  Q 401.45 83.24 402.28 82.38
  Q 402.63 82.03 403.12 82.03
  C 406.40 82.01 406.16 78.83 405.94 76.38
  Q 405.89 75.88 405.41 75.76
  Q 401.47 74.86 399.99 77.74
  Q 399.71 77.23 399.74 76.30
  Q 399.76 75.73 399.23 75.95
  Q 398.04 76.45 397.21 76.01
  Q 398.41 75.91 399.36 75.30
  Q 399.74 75.05 400.19 75.11
  Q 402.04 75.34 403.50 74.32
  Q 403.95 74.00 404.50 74.00
  L 405.99 74.00
  A 1.45 1.42 24.5 0 0 406.92 73.66
  Q 408.12 72.66 409.74 73.03
  Q 410.36 73.18 410.83 72.76
  Q 411.96 71.75 413.50 72.06
  A 2.19 2.19 0.0 0 0 416.12 69.91
  L 416.02 45.70
  Z
  M 444.59 72.36
  Q 445.73 69.85 444.91 67.15
  A 0.69 0.69 0.0 0 0 444.16 66.67
  L 440.07 67.22
  A 0.98 0.96 -81.9 0 0 439.30 67.81
  Q 438.30 70.24 438.92 72.87
  A 0.56 0.55 -9.0 0 0 439.51 73.29
  L 443.77 72.94
  A 0.99 0.99 0.0 0 0 444.59 72.36
  Z
  M 431.57 68.92
  C 429.95 69.23 425.51 69.78 426.01 72.53
  Q 426.10 73.03 425.92 73.51
  Q 425.49 74.69 426.24 75.85
  Q 426.52 76.30 427.04 76.17
  L 431.61 75.07
  Q 432.25 74.91 432.25 74.25
  L 432.21 69.44
  Q 432.20 68.80 431.57 68.92
  Z
  M 415.76 73.00
  Q 414.40 73.16 413.38 74.00
  A 0.86 0.82 73.2 0 0 413.09 74.57
  L 412.82 78.28
  A 1.06 1.05 83.6 0 0 414.18 79.37
  L 418.44 78.09
  Q 419.03 77.91 419.05 77.28
  L 419.18 72.87
  A 0.78 0.78 0.0 0 0 418.64 72.10
  Q 417.49 71.72 416.60 72.60
  Q 416.25 72.95 415.76 73.00
  Z"
/>
<path fill="#0e3341" fill-opacity="0.498" d="
  M 556.29 61.17
  L 555.93 61.81
  Q 554.84 61.50 554.05 62.02
  A 0.52 0.51 -17.7 0 0 553.81 62.47
  L 553.89 66.55
  Q 553.90 66.93 554.24 67.12
  Q 554.68 67.37 555.25 67.24
  L 555.25 67.67
  Q 551.77 68.30 548.73 66.77
  A 1.51 1.47 53.7 0 0 547.83 66.62
  C 543.71 67.24 539.63 65.98 536.32 65.92
  Q 520.44 65.64 504.56 65.86
  C 501.69 65.90 499.71 65.90 496.54 66.49
  Q 493.23 67.11 489.70 66.57
  Q 490.71 66.38 490.28 64.99
  Q 490.95 65.81 491.78 66.01
  Q 492.31 66.14 492.72 65.80
  Q 494.05 64.70 495.76 64.97
  A 0.51 0.50 -1.2 0 0 496.34 64.37
  Q 496.05 63.02 496.16 61.76
  Q 496.23 60.79 495.96 60.37
  Q 495.48 59.61 494.50 59.73
  Q 494.39 59.51 495.05 58.92
  C 498.32 59.42 501.53 58.36 504.01 58.27
  Q 515.46 57.87 524.25 58.09
  Q 525.30 58.12 526.46 58.88
  Q 526.86 59.15 527.34 59.14
  Q 537.54 58.86 540.24 59.32
  Q 545.44 60.21 548.09 60.02
  Q 548.59 59.99 549.05 60.20
  Q 552.34 61.76 556.29 61.17
  Z
  M 508.11 64.63
  C 511.41 61.08 507.99 57.12 503.32 60.30
  Q 502.86 60.62 502.78 61.18
  Q 502.48 63.32 504.06 64.73
  A 1.05 1.04 65.7 0 0 504.76 65.00
  L 507.26 65.00
  A 1.16 1.14 20.9 0 0 508.11 64.63
  Z
  M 516.38 59.11
  Q 514.47 61.62 516.57 64.23
  Q 516.87 64.59 517.32 64.72
  Q 520.49 65.60 521.99 62.26
  Q 522.17 61.85 521.95 61.47
  Q 520.38 58.77 517.33 58.66
  Q 516.74 58.63 516.38 59.11
  Z
  M 534.03 64.40
  C 534.16 63.14 534.62 61.13 533.80 60.11
  A 0.91 0.89 -19.0 0 0 533.13 59.79
  L 528.72 59.68
  Q 528.23 59.66 528.10 60.15
  Q 527.46 62.60 528.72 64.57
  A 0.97 0.95 -15.9 0 0 529.53 65.01
  L 533.38 64.99
  Q 533.97 64.98 534.03 64.40
  Z
  M 546.9779 63.1384
  A 1.94 1.94 0.0 0 0 545.1599 61.0836
  L 542.9041 60.9457
  A 1.94 1.94 0.0 0 0 540.8493 62.7636
  L 540.7821 63.8616
  A 1.94 1.94 0.0 0 0 542.6001 65.9164
  L 544.8559 66.0543
  A 1.94 1.94 0.0 0 0 546.9107 64.2364
  L 546.9779 63.1384
  Z"
/>
<path fill="#0e3341" fill-opacity="0.498" d="
  M 483.78 60.12
  L 481.52 60.87
  C 476.78 59.70 476.93 63.29 477.01 66.50
  Q 477.02 67.01 477.53 67.00
  L 478.26 66.97
  Q 478.33 67.47 477.70 67.69
  C 474.63 69.01 471.77 68.68 468.51 69.44
  Q 466.45 69.93 464.23 69.88
  Q 463.89 69.40 463.97 68.27
  Q 464.32 69.11 465.47 69.08
  Q 466.11 69.06 466.94 68.56
  Q 468.14 67.85 469.35 67.21
  A 0.96 0.96 0.0 0 0 469.86 66.45
  L 470.16 63.53
  A 0.63 0.63 0.0 0 0 469.58 62.84
  L 464.75 62.43
  Q 464.27 62.39 464.24 62.87
  L 463.97 68.27
  L 463.78 63.63
  Q 463.76 63.28 463.52 63.53
  L 463.27 63.77
  Q 462.82 64.22 462.73 63.39
  Q 462.61 62.28 460.19 62.47
  Q 463.22 62.32 465.59 61.68
  Q 467.68 61.12 469.67 61.14
  C 473.02 61.17 475.94 60.00 478.93 60.02
  Q 481.34 60.04 483.78 60.12
  Z"
/>
<path fill="#2a455f" fill-opacity="0.498" d="
  M 460.19 62.47
  Q 462.61 62.28 462.73 63.39
  Q 462.82 64.22 463.27 63.77
  L 463.52 63.53
  Q 463.76 63.28 463.78 63.63
  L 463.97 68.27
  Q 463.89 69.40 464.23 69.88
  L 452.73 71.79
  Q 452.94 71.31 453.29 71.11
  Q 454.48 70.00 456.12 70.06
  Q 456.71 70.09 456.84 69.51
  Q 457.51 66.75 456.28 64.33
  Q 455.98 63.74 455.42 64.10
  Q 454.19 64.90 453.02 64.73
  L 453.05 63.24
  L 460.19 62.47
  Z"
/>
<path fill="#0e3341" fill-opacity="0.498" d="
  M 605.65 79.88
  L 598.30 77.26
  Q 597.78 77.07 598.22 76.74
  Q 599.83 75.53 599.40 73.25
  A 0.88 0.88 0.0 0 0 598.82 72.57
  L 593.28 70.70
  Q 592.61 70.47 592.47 71.17
  Q 591.51 76.02 596.23 76.24
  Q 596.57 76.25 596.69 76.57
  Q 596.73 76.70 596.78 76.83
  A 0.12 0.12 0.0 0 1 596.64 76.98
  C 593.73 76.39 591.23 75.09 588.31 74.50
  C 584.05 73.63 579.81 72.49 575.61 71.37
  C 573.68 70.86 571.31 70.92 569.27 69.99
  Q 568.92 69.69 569.27 69.30
  C 572.58 72.13 574.90 65.96 571.36 64.96
  Q 570.82 64.81 570.61 64.61
  A 0.26 0.26 0.0 0 1 570.84 64.16
  Q 576.11 65.29 579.54 66.18
  C 580.64 66.47 581.93 67.49 583.55 67.33
  Q 584.02 67.28 584.46 67.46
  C 591.41 70.15 598.58 71.59 605.51 74.60
  A 0.56 0.56 0.0 0 1 605.54 75.62
  Q 604.42 76.17 604.68 77.47
  Q 604.76 77.86 605.11 78.07
  Q 605.99 78.59 605.65 79.88
  Z
  M 580.03 68.11
  C 579.96 69.01 579.72 70.22 579.71 71.09
  Q 579.70 71.57 580.03 71.88
  Q 580.63 72.45 581.53 72.22
  A 0.92 0.87 48.9 0 1 582.16 72.28
  L 584.29 73.27
  A 1.40 1.39 -78.5 0 0 586.27 71.96
  L 586.19 69.10
  Q 586.17 68.40 585.47 68.28
  L 580.84 67.49
  Q 580.10 67.36 580.03 68.11
  Z"
/>
<path fill="#0e3341" fill-opacity="0.498" d="
  M 605.65 79.88
  L 610.48 81.22
  Q 611.15 81.40 611.23 80.71
  L 611.55 77.86
  A 0.76 0.75 14.7 0 0 611.08 77.07
  L 607.87 75.82
  A 0.23 0.23 0.0 0 1 608.03 75.39
  Q 616.82 78.47 625.06 82.78
  A 0.79 0.77 -77.4 0 1 625.48 83.46
  L 625.55 87.14
  Q 625.57 87.78 624.95 87.63
  Q 623.74 87.33 622.68 86.65
  A 0.34 0.29 72.6 0 1 622.93 86.07
  L 623.76 86.57
  Q 624.21 86.84 624.39 86.34
  C 625.79 82.25 620.65 80.98 617.84 80.24
  Q 617.45 80.14 617.40 80.54
  Q 616.90 84.61 620.79 85.38
  A 0.28 0.28 0.0 0 1 621.00 85.75
  Q 620.96 85.87 620.92 85.99
  A 0.16 0.16 0.0 0 1 620.71 86.09
  C 617.72 84.76 615.41 82.86 612.10 82.17
  Q 608.71 81.48 605.65 79.88
  Z"
/>
<path fill="#0e3341" fill-opacity="0.498" d="
  M 339.73 93.21
  L 339.74 93.84
  Q 339.75 94.41 340.28 94.20
  Q 343.39 92.94 341.66 94.66
  C 337.00 94.33 335.49 97.31 336.05 101.47
  A 1.29 1.28 -6.8 0 0 337.47 102.58
  Q 340.11 102.28 341.98 100.59
  Q 342.07 101.00 341.94 101.53
  Q 341.82 102.01 341.42 102.30
  Q 340.96 102.64 341.25 103.00
  L 296.79 118.36
  Q 295.55 116.15 296.94 116.02
  Q 298.27 116.44 299.37 115.31
  A 1.07 1.06 -65.0 0 1 300.21 115.00
  C 303.86 115.35 302.94 111.02 303.12 108.91
  Q 303.16 108.39 302.73 108.11
  L 302.02 107.65
  Q 302.12 106.72 299.98 106.26
  L 339.73 93.21
  Z
  M 323.69 100.61
  A 1.11 1.11 0.0 0 0 323.07 101.56
  L 322.89 106.14
  A 1.11 1.11 0.0 0 0 324.47 107.19
  L 328.36 105.36
  A 1.11 1.11 0.0 0 0 329.00 104.36
  L 329.00 99.77
  A 1.11 1.11 0.0 0 0 327.40 98.77
  L 323.69 100.61
  Z
  M 313.64 103.48
  Q 311.66 103.69 310.35 104.97
  A 0.92 0.87 70.9 0 0 310.08 105.57
  L 309.84 110.66
  A 0.54 0.53 -4.9 0 0 310.50 111.21
  L 315.68 110.01
  A 0.73 0.72 82.2 0 0 316.23 109.28
  L 315.96 103.66
  Q 315.94 103.20 315.52 103.02
  Q 314.97 102.77 314.50 103.13
  Q 314.12 103.42 313.64 103.48
  Z"
/>
</svg>
