<?xml version="1.0" encoding="UTF-8" standalone="no"?>
<!DOCTYPE svg PUBLIC "-//W3C//DTD SVG 1.1//EN" "http://www.w3.org/Graphics/SVG/1.1/DTD/svg11.dtd">
<svg xmlns="http://www.w3.org/2000/svg" version="1.1" viewBox="0.00 0.00 626.00 177.00">
<path fill="#273d54" fill-opacity="0.439" d="
  M 610.44 66.43
  L 611.61 67.76
  C 612.52 74.42 609.58 79.91 601.95 78.67
  Q 601.42 78.58 601.01 78.22
  C 598.94 76.40 597.67 78.13 595.91 79.34
  Q 589.96 83.41 584.09 87.07
  A 0.65 0.65 0.0 0 0 583.90 87.99
  L 589.38 95.93
  A 1.73 1.73 0.0 0 0 591.76 96.40
  Q 603.47 88.67 614.59 80.25
  C 617.06 78.39 621.38 74.57 625.09 72.11
  Q 625.60 71.78 625.64 72.38
  Q 625.72 73.45 624.87 73.71
  Q 624.52 73.81 624.25 74.06
  Q 623.35 74.88 620.05 77.55
  C 609.52 86.07 600.76 91.78 590.92 98.74
  A 1.11 1.09 -12.7 0 0 590.47 99.44
  Q 588.47 110.46 577.89 106.84
  Q 577.44 106.69 577.03 106.90
  L 562.93 113.94
  A 1.32 1.32 0.0 0 0 562.46 115.90
  L 568.40 123.92
  A 0.78 0.77 58.6 0 0 569.38 124.16
  Q 586.55 115.70 602.21 105.16
  Q 604.71 103.47 610.92 99.68
  C 611.64 99.24 612.66 97.90 613.54 97.28
  Q 619.63 92.95 626.00 88.39
  L 626.00 89.88
  Q 607.31 104.47 593.08 112.84
  Q 583.27 118.61 579.95 120.21
  Q 575.21 122.49 572.47 124.29
  Q 572.06 124.57 571.58 124.43
  Q 570.00 123.99 569.69 125.68
  C 568.56 131.76 566.30 137.21 558.73 135.55
  A 0.90 0.90 0.0 0 1 558.21 135.22
  L 555.69 132.05
  A 0.72 0.72 0.0 0 0 554.89 131.80
  L 550.18 133.37
  Q 549.70 133.53 549.23 133.35
  Q 548.59 133.12 548.20 133.72
  Q 547.92 134.16 547.43 134.31
  L 539.98 136.65
  Q 538.01 137.27 538.39 139.30
  L 540.08 148.20
  Q 539.91 149.71 540.41 150.93
  L 542.31 161.48
  Q 541.66 161.75 542.27 163.35
  Q 542.44 163.79 542.92 163.79
  Q 543.09 163.79 543.28 163.77
  Q 542.56 164.26 542.27 164.89
  Q 539.35 170.99 532.90 170.49
  C 530.92 170.34 529.65 168.79 528.29 167.55
  Q 527.82 166.51 528.10 165.87
  Q 528.81 159.11 535.72 158.30
  C 539.15 157.90 538.37 154.21 537.10 152.14
  Q 536.84 151.71 536.34 151.81
  Q 531.38 152.83 526.37 153.89
  C 524.33 154.33 521.24 154.30 518.78 155.41
  Q 518.31 155.62 517.81 155.54
  Q 513.81 154.95 510.24 156.79
  Q 509.78 157.02 509.66 157.52
  Q 508.91 160.73 508.72 163.99
  Q 508.62 165.52 507.18 165.44
  A 1.02 1.02 0.0 0 1 506.22 164.42
  L 506.25 157.70
  A 1.28 1.28 0.0 0 0 504.97 156.42
  Q 495.50 156.39 485.75 156.50
  C 482.80 156.54 480.51 155.80 478.41 155.61
  Q 475.79 155.37 470.76 154.51
  Q 436.94 148.72 409.27 135.36
  Q 395.39 128.66 382.88 119.63
  Q 380.31 117.77 377.74 119.23
  Q 377.33 119.46 376.86 119.40
  Q 367.49 118.28 368.34 108.79
  A 1.51 1.51 0.0 0 0 365.79 107.56
  L 361.84 111.39
  A 0.74 0.73 -37.1 0 0 361.71 112.28
  C 363.22 114.88 366.04 116.33 367.72 117.89
  C 383.36 132.41 402.92 144.06 422.18 152.00
  C 424.57 152.98 428.85 154.28 432.03 156.03
  L 430.74 156.69
  C 404.40 147.62 381.12 132.94 361.49 113.82
  A 1.77 1.77 0.0 0 0 358.92 113.93
  Q 357.56 115.49 355.46 115.54
  A 0.74 0.74 0.0 0 1 354.88 114.33
  L 357.27 111.48
  A 0.90 0.90 0.0 0 0 357.24 110.29
  C 343.49 95.70 328.95 81.50 311.91 71.12
  Q 303.99 66.29 290.98 62.57
  Q 276.40 58.40 261.27 57.87
  C 258.09 57.76 254.08 58.42 250.37 58.43
  C 245.07 58.44 239.65 59.61 234.45 60.59
  C 231.75 61.09 228.35 62.66 224.91 62.72
  Q 224.40 62.73 224.04 63.09
  L 223.82 63.30
  Q 223.73 63.39 223.61 63.42
  Q 219.87 64.25 216.40 65.83
  Q 215.25 66.35 215.46 67.60
  L 217.46 79.80
  A 1.42 1.41 -19.8 0 1 216.78 81.24
  Q 215.22 82.14 214.43 80.26
  Q 214.27 79.87 214.26 79.44
  Q 214.26 77.35 213.38 75.43
  A 1.91 1.84 -55.1 0 1 213.23 74.48
  Q 213.58 71.02 212.06 67.89
  Q 211.85 67.44 211.36 67.56
  Q 205.80 68.96 200.58 71.10
  C 188.07 76.21 177.99 80.41 168.12 85.02
  Q 151.89 92.60 139.19 97.20
  C 137.30 97.88 136.71 97.72 135.74 99.68
  C 133.36 104.46 128.00 107.54 122.99 104.11
  A 2.49 2.48 52.9 0 0 120.80 103.80
  Q 101.14 110.40 80.51 112.84
  Q 75.53 113.43 73.26 113.29
  Q 72.81 113.26 72.40 113.47
  C 69.42 114.99 63.66 114.46 60.18 114.66
  Q 59.67 114.70 59.27 115.02
  Q 54.73 118.72 49.09 120.39
  Q 47.22 120.94 47.45 122.85
  C 48.00 127.22 48.47 134.17 46.37 137.82
  C 41.51 146.29 27.43 143.58 29.36 132.06
  C 30.42 125.75 42.95 128.41 39.31 136.28
  C 38.81 137.35 37.72 138.22 37.12 139.38
  A 0.49 0.49 0.0 0 0 37.63 140.09
  C 47.53 138.60 45.28 129.58 45.24 122.60
  A 1.25 1.24 8.1 0 0 44.34 121.41
  C 41.58 120.59 38.56 120.93 36.04 120.17
  C 32.42 119.09 30.70 118.14 27.15 115.51
  Q 24.78 113.76 21.81 113.48
  C 19.16 113.23 16.76 112.21 14.07 112.54
  Q 13.59 112.60 13.15 112.39
  C 12.35 112.01 11.62 111.69 10.71 111.66
  Q 5.24 111.53 0.51 109.39
  A 0.36 0.36 0.0 0 1 0.72 108.70
  L 22.41 112.61
  A 0.82 0.81 76.4 0 0 23.20 111.31
  Q 20.46 107.72 19.87 103.17
  Q 19.61 101.13 17.27 101.59
  Q 16.82 101.68 16.45 101.40
  Q 15.55 100.71 14.81 100.64
  Q 7.39 99.90 0.37 97.46
  A 0.44 0.44 0.0 0 1 0.27 96.68
  Q 0.93 96.24 1.99 96.56
  Q 9.19 98.72 18.14 100.35
  A 1.02 1.01 -88.8 0 0 19.32 99.21
  Q 18.82 95.47 20.01 92.00
  A 1.68 1.67 -76.4 0 0 18.67 89.79
  Q 9.42 88.42 0.63 85.31
  Q -0.02 85.08 0.38 84.52
  Q 0.76 84.01 1.47 84.23
  Q 10.37 87.11 19.56 88.99
  Q 20.18 89.12 20.39 88.52
  L 23.13 80.87
  A 1.39 1.39 0.0 0 0 22.05 79.03
  Q 11.02 77.16 0.55 73.21
  A 0.46 0.45 34.8 0 1 0.41 72.44
  Q 0.78 72.12 1.42 72.34
  Q 11.67 75.81 22.26 77.94
  C 25.08 78.51 27.42 72.75 28.87 70.82
  A 1.01 1.00 -53.0 0 0 28.68 69.42
  C 27.08 68.20 24.98 68.63 23.44 68.24
  C 21.67 67.79 19.95 67.10 18.22 66.73
  Q 9.14 64.80 0.72 60.90
  Q 0.26 60.68 0.24 60.18
  Q 0.23 60.05 0.27 59.93
  Q 0.37 59.57 0.72 59.71
  Q 14.71 65.25 29.48 68.08
  A 2.04 2.03 28.1 0 0 31.29 67.53
  L 42.05 56.85
  Q 42.42 56.49 42.39 55.98
  Q 41.68 43.80 43.20 31.76
  C 43.72 27.64 47.36 10.36 54.44 16.52
  C 67.45 27.82 65.38 45.01 55.40 57.42
  Q 50.68 63.29 45.61 68.38
  A 0.88 0.88 0.0 0 0 46.15 69.87
  C 53.36 70.54 60.61 71.50 67.84 70.66
  Q 72.87 70.08 76.21 70.06
  Q 87.36 70.02 98.31 67.66
  A 1.02 1.02 0.0 0 0 99.09 66.88
  Q 99.46 65.16 99.05 62.42
  Q 98.09 56.00 98.25 49.89
  A 1.43 1.42 19.8 0 1 100.55 48.81
  C 105.93 53.00 114.20 56.15 115.26 63.44
  A 0.73 0.72 -10.8 0 0 116.15 64.04
  L 126.25 61.47
  A 1.10 1.09 -6.0 0 0 127.08 60.45
  L 127.17 57.30
  Q 127.19 56.75 127.70 56.56
  L 161.14 44.40
  Q 161.80 44.16 161.99 44.84
  L 163.01 48.58
  Q 163.15 49.11 163.67 48.92
  L 186.27 40.88
  A 1.61 1.60 75.5 0 0 187.31 39.10
  Q 187.01 37.28 187.59 35.58
  A 1.56 1.56 0.0 0 1 190.58 36.47
  Q 190.23 37.86 190.88 39.01
  A 0.60 0.60 0.0 0 0 191.68 39.25
  Q 193.70 38.19 193.63 35.81
  Q 193.62 35.41 193.96 35.20
  Q 195.66 34.16 196.56 35.84
  A 1.99 1.98 -24.4 0 0 199.02 36.76
  Q 208.68 33.11 217.55 31.28
  Q 217.80 31.22 218.20 30.86
  Q 218.55 30.55 219.01 30.44
  L 235.89 26.46
  Q 236.92 26.22 236.30 25.37
  L 235.30 23.98
  Q 235.21 23.86 235.26 23.71
  Q 235.30 23.59 235.34 23.47
  A 0.14 0.13 -59.2 0 1 235.56 23.41
  C 238.82 26.59 243.62 25.48 247.48 24.67
  Q 260.62 21.89 273.84 22.41
  A 1.23 1.23 0.0 0 0 275.07 21.53
  L 280.19 4.01
  A 1.05 1.04 -77.2 0 1 281.36 3.27
  Q 298.45 6.18 314.15 8.75
  Q 315.41 8.96 316.35 9.31
  A 0.77 0.77 0.0 0 1 316.82 10.24
  L 311.09 30.40
  A 0.94 0.93 -69.1 0 0 311.57 31.49
  C 312.87 32.15 314.47 32.35 315.69 33.12
  C 322.99 37.71 329.86 41.41 336.79 46.31
  A 1.55 1.54 28.6 0 0 339.12 45.63
  Q 341.17 40.58 343.58 35.32
  Q 344.60 33.08 346.85 34.86
  Q 347.21 35.14 347.34 35.58
  C 349.28 41.79 355.94 47.30 352.86 54.36
  Q 352.57 55.01 352.47 54.31
  C 352.17 52.23 352.58 50.26 351.61 48.41
  Q 349.43 44.27 345.70 40.86
  A 0.75 0.75 0.0 0 0 344.46 41.26
  Q 344.36 41.71 344.41 42.41
  Q 344.45 42.94 344.80 43.44
  Q 348.23 48.39 350.22 54.04
  Q 350.52 54.92 351.16 55.60
  Q 351.50 55.96 351.60 56.45
  C 351.95 58.15 353.48 58.41 354.50 59.36
  Q 358.68 63.24 363.49 66.28
  A 1.04 1.04 0.0 0 0 364.49 66.35
  Q 370.42 63.64 375.78 67.30
  A 0.87 0.85 -57.8 0 0 377.01 67.01
  L 392.89 39.40
  A 1.52 1.52 0.0 0 1 395.36 39.17
  Q 396.98 41.05 396.90 43.49
  A 1.36 1.35 -62.6 0 0 397.16 44.32
  C 400.89 49.52 402.65 58.21 397.61 63.17
  A 1.40 1.36 -18.6 0 0 397.22 63.93
  Q 397.04 65.17 395.97 66.04
  A 0.89 0.58 -80.1 0 1 395.39 64.67
  Q 396.81 62.69 395.49 60.73
  A 1.16 1.13 25.9 0 1 395.31 60.23
  C 394.97 56.57 392.51 54.91 390.95 52.08
  A 1.18 1.18 0.0 0 0 388.96 51.96
  Q 388.57 52.50 388.64 53.47
  Q 388.69 54.10 389.12 54.87
  Q 392.33 60.50 394.20 66.70
  C 394.72 68.41 394.20 69.64 393.03 70.83
  A 0.46 0.46 0.0 0 1 392.25 70.51
  L 392.25 68.83
  Q 392.25 68.31 392.10 67.82
  Q 390.53 62.62 386.74 58.77
  A 1.06 1.06 0.0 0 0 385.06 59.00
  C 383.30 62.24 378.80 72.00 376.10 74.00
  A 1.34 1.34 0.0 0 0 376.11 76.17
  Q 392.71 88.26 410.47 97.54
  Q 411.79 98.24 413.22 98.36
  A 0.79 0.78 12.8 0 0 414.02 97.86
  L 418.67 85.44
  A 1.77 1.77 0.0 0 1 420.72 84.33
  L 486.02 99.22
  Q 486.96 99.44 486.63 100.35
  L 482.08 113.09
  A 1.09 1.09 0.0 0 0 483.06 114.55
  C 504.71 115.43 528.57 112.23 548.77 103.53
  A 0.76 0.75 -29.3 0 0 549.09 102.40
  L 538.39 87.37
  A 0.90 0.90 0.0 0 1 538.61 86.11
  L 594.59 47.25
  A 1.84 1.83 -35.1 0 1 597.13 47.69
  L 610.44 66.43
  Z
  M 282.85 12.35
  C 291.66 14.57 301.01 15.40 309.97 17.06
  Q 310.09 17.09 310.66 17.24
  Q 311.98 17.61 312.14 16.11
  A 1.69 1.68 6.8 0 0 310.68 14.27
  Q 298.61 12.65 286.42 10.51
  C 285.13 10.28 283.79 9.34 282.12 10.02
  A 1.31 1.31 0.0 0 0 282.30 12.50
  Q 282.37 12.51 282.55 12.40
  Q 282.69 12.31 282.85 12.35
  Z
  M 291.20 24.64
  C 292.04 24.83 292.57 25.50 293.95 25.26
  Q 294.48 25.17 294.99 25.34
  L 307.00 29.18
  A 1.32 1.32 0.0 0 0 308.68 28.25
  L 310.59 20.65
  Q 310.72 20.12 310.27 19.83
  C 307.77 18.23 304.70 18.57 302.27 18.02
  Q 299.92 17.49 297.47 17.53
  C 295.81 17.56 294.95 16.75 293.68 16.65
  Q 287.56 16.15 281.60 14.74
  A 1.19 1.18 15.0 0 0 280.19 15.55
  L 278.49 21.25
  A 1.06 1.05 11.7 0 0 279.38 22.60
  Q 285.24 23.26 291.20 24.64
  Z
  M 46.56 52.39
  C 54.16 43.73 59.06 32.17 51.53 21.73
  Q 50.96 20.94 50.44 21.76
  C 45.47 29.68 44.75 40.82 44.91 49.99
  Q 44.94 51.53 45.42 52.30
  A 0.71 0.71 0.0 0 0 46.56 52.39
  Z
  M 253.24 24.94
  C 250.74 25.49 247.97 24.96 245.32 26.37
  A 1.24 1.20 -51.8 0 1 244.51 26.48
  Q 243.11 26.16 241.91 26.79
  A 0.80 0.80 0.0 0 0 241.78 28.11
  L 246.75 32.31
  Q 247.15 32.64 247.66 32.61
  L 271.31 31.11
  A 1.36 1.34 -82.8 0 0 272.52 30.16
  L 274.16 24.88
  A 0.95 0.94 13.0 0 0 273.40 23.67
  Q 268.67 22.97 263.88 23.81
  C 260.27 24.45 256.77 24.15 253.24 24.94
  Z
  M 295.37 33.66
  C 299.10 31.23 302.05 30.13 305.94 32.49
  A 0.87 0.87 0.0 0 0 307.24 31.96
  Q 307.45 31.09 306.39 30.67
  Q 299.23 27.84 291.78 25.86
  C 290.35 25.48 288.83 25.72 287.44 25.21
  C 284.89 24.29 283.91 24.36 281.51 24.51
  Q 281.00 24.54 280.57 24.28
  C 276.82 21.96 276.50 28.23 275.91 30.12
  A 1.27 1.26 11.4 0 0 277.00 31.75
  Q 283.01 32.31 289.39 33.39
  C 291.18 33.70 293.30 35.00 295.37 33.66
  Z
  M 198.60 38.24
  L 197.38 39.07
  Q 196.75 39.50 197.51 39.56
  L 198.64 39.65
  Q 199.18 39.69 199.34 40.21
  Q 200.24 43.12 197.69 43.70
  Q 197.25 43.79 197.04 43.99
  Q 196.67 44.35 196.76 44.78
  A 0.57 0.57 0.0 0 0 197.49 45.20
  L 207.67 41.91
  Q 208.14 41.76 208.30 41.29
  Q 210.52 34.43 218.34 35.24
  Q 221.05 35.52 222.41 37.30
  A 0.82 0.82 0.0 0 0 223.25 37.61
  L 238.37 34.17
  Q 238.97 34.03 239.12 33.43
  C 239.61 31.41 238.32 26.96 235.43 27.89
  Q 234.09 28.32 233.98 28.33
  Q 227.44 29.44 221.07 31.32
  Q 220.61 31.46 220.15 31.35
  Q 218.69 30.99 217.83 32.02
  A 1.13 1.11 -70.8 0 1 217.02 32.42
  C 213.44 32.60 208.79 34.73 205.41 35.88
  C 203.30 36.60 200.67 36.15 198.69 38.17
  A 0.49 0.43 3.6 0 1 198.60 38.24
  Z
  M 269.55 32.43
  Q 265.92 32.27 262.29 32.30
  C 258.30 32.34 253.75 33.58 249.26 33.60
  Q 248.80 33.61 248.40 33.85
  Q 246.86 34.78 245.03 34.69
  Q 244.47 34.66 244.18 35.14
  L 241.75 39.06
  A 1.61 1.61 0.0 0 0 243.33 41.50
  Q 249.77 40.65 256.74 39.91
  Q 257.20 39.86 258.50 38.79
  Q 263.41 34.74 269.14 37.25
  A 0.94 0.93 -58.9 0 0 270.25 36.97
  Q 272.37 34.30 269.97 32.01
  Q 269.86 31.91 269.82 32.05
  Q 269.77 32.18 269.73 32.31
  Q 269.69 32.44 269.55 32.43
  Z
  M 334.37 55.22
  A 0.40 0.40 0.0 0 0 334.98 55.07
  L 337.32 49.65
  A 1.58 1.57 29.2 0 0 336.77 47.73
  C 329.81 42.93 322.61 38.23 315.06 34.71
  Q 313.08 33.79 311.31 32.48
  A 0.69 0.69 0.0 0 0 310.23 32.87
  L 308.73 38.91
  A 0.86 0.85 -71.0 0 0 309.20 39.89
  Q 322.71 46.02 334.37 55.22
  Z
  M 307.34 40.85
  C 303.30 44.60 293.79 44.55 294.13 37.48
  A 1.10 1.08 20.0 0 0 293.69 36.55
  Q 290.94 34.53 287.52 34.48
  Q 286.96 34.47 286.45 34.25
  Q 283.74 33.09 280.70 33.49
  A 1.47 1.46 -34.3 0 1 279.78 33.32
  Q 277.60 32.13 275.30 33.28
  A 0.95 0.94 84.5 0 0 274.79 33.90
  L 273.48 38.81
  A 1.32 1.31 -80.0 0 0 274.63 40.46
  Q 302.46 42.95 325.39 59.39
  Q 328.20 61.40 330.87 63.12
  A 0.67 0.66 -63.3 0 0 331.85 62.79
  L 333.76 57.58
  A 1.42 1.40 -62.1 0 0 333.27 55.96
  Q 321.37 47.30 308.18 40.73
  Q 307.72 40.50 307.34 40.85
  Z
  M 236.54 38.28
  L 237.19 36.73
  Q 237.53 35.94 236.68 36.03
  C 234.40 36.26 222.10 37.27 222.71 41.98
  A 1.13 1.09 65.6 0 1 222.37 42.93
  Q 221.57 43.66 221.46 43.84
  Q 219.92 46.44 222.81 45.56
  C 227.80 44.05 232.60 43.62 237.49 41.89
  A 0.61 0.61 0.0 0 0 237.73 40.90
  L 236.83 39.94
  A 1.54 1.53 35.4 0 1 236.54 38.28
  Z
  M 215.84 38.04
  Q 213.30 36.87 212.39 39.45
  A 0.57 0.56 13.0 0 0 212.86 40.20
  Q 214.64 40.39 216.01 39.14
  Q 216.76 38.47 215.84 38.04
  Z
  M 191.19 40.69
  Q 190.54 41.12 190.81 42.00
  A 0.60 0.60 0.0 0 0 191.73 42.31
  L 193.10 41.35
  A 0.84 0.84 0.0 0 0 192.88 39.87
  Q 191.66 39.47 191.19 40.69
  Z
  M 216.16 40.96
  Q 214.85 41.08 214.03 41.86
  Q 213.55 42.31 214.03 42.76
  Q 216.02 44.61 218.51 43.60
  A 1.67 1.67 0.0 0 0 218.69 40.59
  Q 217.87 40.14 217.06 40.65
  A 2.10 2.04 25.1 0 1 216.16 40.96
  Z
  M 260.25 48.00
  Q 260.38 47.96 260.51 47.91
  A 0.10 0.10 0.0 0 0 260.53 47.73
  Q 257.61 45.95 256.88 42.60
  Q 256.76 42.05 256.23 41.86
  Q 254.13 41.10 251.29 41.84
  Q 248.98 42.45 243.06 42.55
  A 0.55 0.55 0.0 0 0 242.68 43.48
  L 246.61 47.50
  A 0.54 0.50 -79.6 0 1 246.73 47.69
  Q 246.79 47.86 246.74 48.03
  Q 246.56 48.66 245.98 48.36
  Q 242.97 46.75 240.72 49.12
  A 0.44 0.44 0.0 0 0 240.90 49.85
  C 242.60 50.41 244.29 49.64 245.62 49.48
  Q 252.70 48.64 259.85 48.36
  Q 259.95 48.36 259.99 48.28
  Q 260.00 48.25 260.02 48.21
  Q 260.07 48.06 260.25 48.00
  Z
  M 318.45 56.47
  Q 306.88 49.11 293.63 45.51
  C 292.86 45.30 292.63 44.70 291.71 44.57
  C 287.05 43.94 282.37 42.45 277.68 42.50
  A 1.68 1.65 59.9 0 1 276.77 42.25
  C 274.81 41.03 272.41 41.68 271.75 44.03
  Q 271.62 44.52 271.26 44.87
  L 268.77 47.33
  A 0.93 0.92 24.0 0 0 269.38 48.91
  Q 295.88 50.13 318.37 64.02
  A 1.04 1.04 0.0 0 0 319.33 64.10
  Q 323.04 62.61 327.02 63.10
  A 0.36 0.36 0.0 0 0 327.31 62.49
  C 324.65 59.96 320.95 58.06 318.45 56.47
  Z
  M 185.08 44.30
  Q 186.24 44.33 187.04 43.51
  A 0.74 0.74 0.0 0 0 186.26 42.29
  L 164.28 50.12
  A 1.30 1.29 -14.1 0 0 163.43 51.52
  L 164.11 56.55
  A 0.95 0.94 -14.5 0 0 165.40 57.30
  Q 173.91 53.97 182.34 50.89
  C 183.35 50.52 185.79 50.14 186.80 49.07
  Q 187.21 48.63 187.03 48.26
  Q 186.82 47.83 186.37 47.95
  L 185.11 48.28
  Q 184.23 48.51 184.24 47.60
  L 184.27 45.08
  A 0.79 0.79 0.0 0 1 185.08 44.30
  Z
  M 199.53 50.09
  Q 199.31 51.26 200.09 52.05
  A 0.85 0.84 57.4 0 0 200.97 52.25
  L 208.81 49.44
  A 0.79 0.78 78.2 0 0 209.32 48.65
  L 209.01 44.33
  Q 208.97 43.70 208.35 43.57
  C 205.78 43.06 199.23 45.96 197.16 47.00
  A 1.18 1.18 0.0 0 0 197.65 49.24
  L 198.87 49.28
  Q 199.67 49.31 199.53 50.09
  Z
  M 215.13 56.17
  L 234.92 50.99
  Q 235.47 50.84 235.43 50.28
  L 235.22 47.11
  A 1.08 1.07 -20.1 0 1 235.66 46.17
  Q 236.48 45.59 236.51 44.59
  A 0.64 0.64 0.0 0 0 235.78 43.94
  L 231.13 44.61
  Q 230.63 44.69 230.21 44.95
  Q 228.80 45.84 227.07 45.48
  Q 226.45 45.35 226.02 45.80
  Q 224.90 46.98 223.09 46.45
  A 0.44 0.41 40.8 0 0 222.82 46.46
  L 214.09 49.59
  A 1.65 1.65 0.0 0 0 213.03 51.48
  L 213.85 55.38
  A 1.04 1.03 -13.2 0 0 215.13 56.17
  Z
  M 190.84 46.90
  Q 191.85 47.79 193.00 47.18
  A 0.88 0.88 0.0 0 0 192.59 45.52
  Q 191.54 45.51 190.80 46.35
  A 0.40 0.39 41.3 0 0 190.84 46.90
  Z
  M 398.59 59.37
  C 401.28 55.00 396.94 48.51 393.72 45.72
  A 0.76 0.75 -62.8 0 0 392.49 46.12
  Q 392.42 46.42 392.64 46.94
  Q 394.52 51.54 396.58 56.08
  A 2.27 2.12 34.5 0 1 396.78 56.99
  Q 396.77 58.27 397.42 59.36
  A 0.69 0.68 45.4 0 0 398.59 59.37
  Z
  M 345.27 50.02
  Q 344.14 48.29 342.50 47.34
  A 1.27 1.26 -12.0 0 0 341.12 49.46
  L 346.93 53.64
  Q 347.88 54.33 347.55 53.20
  Q 347.08 51.64 345.78 50.58
  Q 345.48 50.34 345.27 50.02
  Z
  M 193.43 49.90
  A 1.42 1.42 0.0 0 0 192.01 48.48
  A 1.42 1.42 0.0 0 0 190.59 49.90
  A 1.42 1.42 0.0 0 0 192.01 51.32
  A 1.42 1.42 0.0 0 0 193.43 49.90
  Z
  M 349.39 91.09
  C 345.16 87.63 343.18 84.87 339.79 82.30
  C 336.05 79.47 333.41 76.22 329.33 73.88
  Q 328.86 73.60 328.33 73.78
  Q 321.63 76.04 317.36 70.39
  A 0.63 0.62 -63.0 0 1 317.23 69.98
  L 317.30 65.89
  A 1.00 0.97 -71.8 0 0 316.90 65.07
  C 307.83 58.49 295.66 54.37 284.94 52.04
  C 283.20 51.67 280.39 51.70 278.13 50.55
  A 1.52 1.51 -35.4 0 0 277.22 50.40
  C 273.61 50.90 269.90 49.91 266.96 49.85
  Q 261.81 49.74 256.67 49.60
  C 254.19 49.53 251.45 50.65 249.32 50.48
  Q 244.97 50.13 240.91 51.73
  A 0.82 0.82 0.0 0 0 240.39 52.60
  L 240.59 54.16
  Q 240.66 54.68 240.15 54.54
  Q 238.65 54.09 237.72 52.81
  A 1.02 1.01 -19.7 0 0 236.82 52.39
  C 229.61 52.95 221.51 55.36 214.83 57.71
  A 1.37 1.36 -23.8 0 0 214.08 59.64
  Q 214.88 61.13 214.72 62.96
  A 1.25 1.24 83.3 0 0 216.35 64.25
  C 231.29 59.29 247.65 55.97 263.45 57.40
  C 264.30 57.48 265.26 57.12 265.93 57.16
  C 279.78 57.85 294.46 61.04 306.88 67.31
  Q 309.81 68.79 312.74 70.29
  Q 318.84 73.41 329.16 81.69
  C 333.58 85.23 337.93 89.98 342.51 94.00
  Q 347.90 98.71 352.21 103.50
  A 2.01 2.01 0.0 0 0 355.14 103.56
  L 358.30 100.35
  Q 358.73 99.92 358.32 99.47
  Q 354.10 94.94 349.39 91.09
  Z
  M 184.67 54.18
  L 186.84 53.06
  A 1.26 1.26 0.0 0 0 185.80 50.76
  L 165.20 58.73
  A 0.81 0.81 0.0 0 0 164.69 59.54
  L 165.04 64.47
  A 1.23 1.23 0.0 0 0 166.73 65.52
  L 182.60 59.09
  Q 183.17 58.86 183.50 58.34
  Q 184.47 56.81 184.24 55.00
  A 0.81 0.81 0.0 0 1 184.67 54.18
  Z
  M 207.77 51.10
  L 197.13 55.02
  Q 196.50 55.25 196.50 55.92
  L 196.50 61.46
  A 0.88 0.88 0.0 0 0 197.69 62.29
  L 210.23 57.71
  A 0.85 0.85 0.0 0 0 210.77 56.76
  L 209.94 52.34
  Q 209.58 50.43 207.77 51.10
  Z
  M 412.52 99.84
  C 397.38 92.69 387.10 85.13 374.45 76.93
  A 1.47 1.42 -29.8 0 0 373.54 76.70
  C 368.24 77.13 362.01 75.80 363.17 68.87
  Q 363.26 68.37 362.89 68.00
  C 361.06 66.19 358.24 64.44 356.82 63.25
  Q 354.76 61.52 352.66 59.82
  Q 351.68 59.03 351.10 59.24
  Q 350.32 59.53 349.90 61.06
  A 0.34 0.33 -37.9 0 1 349.24 60.98
  L 349.19 57.83
  Q 349.19 57.30 348.78 56.98
  L 341.71 51.34
  A 1.39 1.39 0.0 0 0 339.54 51.94
  L 337.82 56.56
  A 1.35 1.34 -61.7 0 0 338.28 58.11
  Q 349.47 66.48 359.96 75.76
  C 361.11 76.77 362.22 77.36 363.40 78.35
  C 377.51 90.13 392.73 100.90 409.22 109.13
  A 0.70 0.70 0.0 0 0 410.19 108.74
  L 412.96 100.89
  Q 413.22 100.17 412.52 99.84
  Z
  M 131.68 68.26
  A 1.03 1.03 0.0 0 0 133.04 69.02
  L 160.71 59.18
  A 1.03 1.03 0.0 0 0 161.38 58.01
  L 160.37 52.91
  A 1.03 1.03 0.0 0 0 159.02 52.14
  L 131.29 61.79
  A 1.03 1.03 0.0 0 0 130.62 62.97
  L 131.68 68.26
  Z
  M 597.8486 54.2351
  A 0.90 0.90 0.0 0 0 596.5963 54.0075
  L 572.8528 70.4483
  A 0.90 0.90 0.0 0 0 572.6252 71.7006
  L 573.2514 72.6049
  A 0.90 0.90 0.0 0 0 574.5037 72.8325
  L 598.2472 56.3917
  A 0.90 0.90 0.0 0 0 598.4748 55.1394
  L 597.8486 54.2351
  Z
  M 106.25 66.03
  Q 110.30 65.97 113.90 64.26
  Q 114.38 64.04 114.21 63.54
  C 112.22 57.70 108.15 56.89 103.10 54.82
  A 1.20 1.20 0.0 0 0 101.45 56.01
  L 102.12 66.07
  A 0.83 0.83 0.0 0 0 102.81 66.84
  Q 104.16 67.08 105.34 66.31
  Q 105.75 66.04 106.25 66.03
  Z
  M 187.26 62.53
  L 187.23 59.34
  Q 187.23 58.67 186.60 58.92
  L 166.39 66.88
  Q 165.98 67.04 165.93 67.48
  Q 165.62 70.50 166.75 73.36
  A 1.33 1.33 0.0 0 0 168.49 74.10
  L 193.00 63.96
  Q 193.54 63.74 193.54 63.15
  L 193.57 57.92
  A 1.51 1.51 0.0 0 0 190.55 57.85
  Q 190.45 60.07 190.51 62.48
  Q 190.52 62.93 190.21 63.25
  Q 189.11 64.36 187.63 63.27
  Q 187.26 63.00 187.26 62.53
  Z
  M 603.85 62.81
  Q 602.74 60.36 600.63 58.71
  A 0.96 0.95 -43.2 0 0 599.50 58.68
  L 575.68 75.27
  A 0.57 0.56 54.9 0 0 575.55 76.05
  L 582.62 86.07
  A 0.75 0.75 0.0 0 0 583.66 86.25
  L 598.50 75.71
  A 0.92 0.90 71.0 0 0 598.88 74.91
  Q 598.63 70.41 601.52 67.31
  C 602.47 66.29 603.92 66.03 604.97 64.89
  Q 605.31 64.52 605.02 64.09
  Q 604.79 63.75 604.46 63.53
  Q 604.06 63.25 603.85 62.81
  Z
  M 408.10 110.31
  C 390.41 100.99 374.56 89.99 358.95 76.18
  Q 358.57 75.84 358.08 75.67
  Q 357.50 75.45 356.71 74.76
  Q 350.46 69.28 337.48 58.95
  Q 336.89 58.48 336.57 59.16
  L 333.89 64.90
  A 0.91 0.91 0.0 0 0 334.11 65.96
  C 335.19 66.90 336.67 67.64 337.56 68.39
  Q 351.74 80.36 365.46 92.33
  A 1.38 1.37 -46.7 0 0 367.33 92.27
  L 369.96 89.67
  Q 370.40 89.24 371.00 89.22
  Q 372.31 89.18 372.69 90.46
  A 0.98 0.97 59.2 0 1 372.45 91.43
  L 369.19 94.68
  A 0.44 0.44 0.0 0 0 369.23 95.34
  Q 378.61 103.10 390.94 111.33
  Q 393.75 113.21 396.08 114.16
  A 1.39 1.39 0.0 0 0 397.32 114.08
  Q 402.36 111.21 407.34 114.16
  Q 407.90 114.49 408.15 113.89
  L 408.82 112.28
  Q 409.36 110.97 408.10 110.31
  Z
  M 208.94 59.50
  C 194.87 64.12 181.03 70.13 167.49 76.14
  Q 167.03 76.34 167.08 76.83
  Q 167.65 83.46 161.25 85.45
  Q 155.97 87.09 152.83 82.60
  Q 152.56 82.22 152.12 82.39
  L 135.36 89.09
  Q 134.71 89.35 134.83 90.03
  L 135.74 95.13
  A 1.72 1.71 -16.9 0 0 138.12 96.40
  C 148.46 91.88 158.87 87.75 168.98 83.19
  Q 189.65 73.86 211.26 65.75
  A 1.50 1.50 0.0 0 0 212.13 63.77
  L 211.41 62.03
  Q 211.20 61.54 211.27 61.01
  Q 211.39 59.95 210.56 59.50
  Q 209.96 59.17 208.94 59.50
  Z
  M 161.63 60.87
  A 0.62 0.62 0.0 0 0 160.80 60.38
  Q 149.01 64.70 137.13 69.16
  C 135.15 69.90 130.48 69.25 132.11 73.28
  Q 132.91 75.26 132.77 77.09
  A 0.98 0.98 0.0 0 0 134.07 78.09
  Q 143.51 74.82 152.63 71.12
  C 155.16 70.09 158.97 69.15 161.98 67.09
  Q 162.48 66.75 162.39 66.15
  L 161.63 60.87
  Z
  M 104.19 67.92
  C 101.55 68.82 102.80 74.11 102.86 76.32
  A 0.74 0.73 82.1 0 0 103.77 77.01
  C 111.39 75.14 120.64 73.64 127.73 70.37
  Q 128.20 70.15 128.25 69.63
  Q 128.61 66.14 127.19 63.01
  Q 126.98 62.55 126.48 62.66
  C 121.64 63.74 117.10 65.53 112.32 66.25
  Q 106.60 67.10 104.19 67.92
  Z
  M 364.55 93.36
  L 334.16 67.25
  Q 333.52 66.69 333.10 67.44
  L 330.76 71.59
  Q 330.48 72.08 330.84 72.52
  C 333.22 75.48 336.70 77.63 339.08 79.86
  C 344.57 85.01 349.85 89.22 355.58 95.40
  C 356.60 96.51 358.25 97.13 359.43 98.46
  A 0.64 0.63 46.5 0 0 360.35 98.49
  L 364.58 94.26
  Q 365.05 93.79 364.55 93.36
  Z
  M 162.23 68.71
  L 134.61 79.53
  A 1.56 1.56 0.0 0 0 133.62 81.14
  L 134.12 86.22
  A 0.72 0.72 0.0 0 0 134.47 86.78
  C 136.48 88.00 137.94 86.52 139.54 85.90
  Q 145.89 83.41 152.29 80.96
  Q 153.51 80.50 153.25 79.21
  A 1.53 1.49 -36.8 0 1 153.41 78.18
  Q 156.33 72.91 162.66 73.30
  A 0.63 0.63 0.0 0 0 163.33 72.60
  L 162.97 69.16
  Q 162.89 68.45 162.23 68.71
  Z
  M 82.79 71.17
  C 79.52 71.80 75.12 71.43 71.74 71.56
  C 67.18 71.74 61.55 72.89 56.20 72.03
  Q 51.44 71.28 46.68 71.74
  Q 45.72 71.83 45.73 72.79
  L 45.82 79.48
  Q 45.82 79.89 46.23 79.99
  C 56.47 82.35 66.07 80.92 75.71 80.98
  C 78.11 81.00 80.28 80.06 82.81 79.93
  C 88.21 79.65 93.19 78.82 98.58 77.96
  A 1.40 1.40 0.0 0 0 99.75 76.46
  L 99.14 69.87
  Q 99.09 69.27 98.49 69.30
  Q 90.50 69.66 82.79 71.17
  Z
  M 35.27 78.77
  A 0.75 0.75 0.0 0 0 35.70 80.02
  L 42.42 81.05
  A 0.75 0.75 0.0 0 0 43.28 80.30
  L 43.23 72.18
  A 0.75 0.75 0.0 0 0 41.94 71.67
  L 35.27 78.77
  Z
  M 128.03 71.91
  C 120.29 74.20 112.75 76.09 104.90 77.79
  A 2.27 2.27 0.0 0 0 103.12 80.24
  L 103.73 86.26
  Q 103.80 86.93 104.46 86.78
  Q 114.17 84.55 123.82 81.49
  C 125.57 80.93 127.88 80.59 129.81 79.37
  A 0.83 0.82 -23.3 0 0 130.17 78.48
  L 129.23 74.66
  A 0.49 0.41 -49.7 0 1 129.23 74.43
  Q 129.50 73.19 128.90 72.24
  Q 128.59 71.74 128.03 71.91
  Z
  M 570.1170 73.9737
  A 1.33 1.33 0.0 0 0 568.2652 73.6439
  L 545.1041 89.8013
  A 1.33 1.33 0.0 0 0 544.7743 91.6530
  L 544.9230 91.8663
  A 1.33 1.33 0.0 0 0 546.7748 92.1961
  L 569.9359 76.0387
  A 1.33 1.33 0.0 0 0 570.2657 74.1870
  L 570.1170 73.9737
  Z
  M 547.80 95.63
  L 552.55 101.76
  Q 552.90 102.21 553.43 101.99
  Q 566.93 96.35 579.35 88.66
  A 1.06 1.05 56.0 0 0 579.64 87.14
  L 573.02 78.11
  A 0.87 0.86 54.4 0 0 571.83 77.91
  L 547.96 94.55
  A 0.76 0.75 53.7 0 0 547.80 95.63
  Z
  M 98.25 78.98
  Q 95.43 79.58 92.60 80.16
  C 86.81 81.35 80.58 81.23 74.75 82.00
  C 68.76 82.79 62.98 82.48 57.11 82.51
  A 0.67 0.67 0.0 0 0 56.75 83.74
  Q 60.93 86.45 62.94 91.07
  A 1.16 1.16 0.0 0 0 63.78 91.75
  C 67.87 92.60 74.02 91.36 78.32 91.04
  C 81.04 90.83 84.71 89.76 88.21 90.03
  Q 88.75 90.07 88.95 89.58
  Q 91.81 82.66 99.52 83.21
  Q 100.12 83.26 100.19 82.66
  Q 100.47 80.17 98.72 78.45
  A 0.08 0.08 0.0 0 0 98.59 78.48
  Q 98.54 78.62 98.50 78.75
  Q 98.44 78.94 98.25 78.98
  Z
  M 101.62 92.56
  C 97.99 96.31 92.40 96.61 89.32 91.88
  Q 89.02 91.41 88.46 91.45
  L 65.31 92.95
  A 1.16 1.15 85.3 0 0 64.23 94.23
  L 65.02 101.66
  Q 65.07 102.14 65.55 102.14
  C 74.58 102.29 83.71 100.85 92.35 99.56
  C 97.48 98.80 103.09 97.10 108.51 96.02
  Q 115.50 94.64 130.63 89.09
  Q 131.15 88.90 131.21 88.35
  Q 131.61 84.76 130.20 81.47
  Q 129.96 80.91 129.38 81.10
  Q 117.81 84.95 105.92 87.73
  C 103.23 88.36 103.10 91.04 101.62 92.56
  Z
  M 39.62 82.22
  A 0.35 0.35 0.0 0 0 39.44 81.57
  L 33.66 81.46
  A 1.20 1.19 -73.3 0 0 32.63 82.02
  L 28.02 89.16
  Q 27.63 89.76 28.30 90.03
  C 32.56 91.72 32.72 88.04 34.72 86.08
  Q 36.87 83.97 39.62 82.22
  Z
  M 52.92 92.29
  Q 53.56 92.55 54.32 91.97
  A 0.95 0.95 0.0 0 0 53.94 90.27
  Q 51.22 89.74 49.10 89.04
  C 47.28 88.45 46.23 89.04 46.36 91.09
  A 0.82 0.81 0.0 0 0 47.13 91.85
  L 52.40 92.17
  Q 52.67 92.19 52.92 92.29
  Z
  M 553.97 103.46
  C 555.12 105.62 558.78 111.61 560.72 112.85
  Q 561.17 113.13 561.65 112.90
  C 566.51 110.53 572.63 108.14 576.93 104.94
  Q 577.35 104.62 577.28 104.11
  Q 576.38 96.83 583.01 93.88
  Q 583.47 93.68 583.31 93.20
  Q 582.57 91.10 580.75 89.82
  A 0.89 0.88 47.1 0 0 579.79 89.78
  L 570.36 95.38
  Q 569.85 95.68 569.25 95.72
  C 567.98 95.80 567.10 96.97 566.32 97.38
  Q 560.44 100.42 554.23 102.77
  A 0.49 0.49 0.0 0 0 553.97 103.46
  Z
  M 69.25 103.42
  L 65.76 103.60
  A 0.94 0.94 0.0 0 0 64.91 104.25
  L 63.37 109.05
  Q 63.25 109.45 62.99 109.77
  Q 62.00 111.04 61.64 112.67
  A 0.48 0.48 0.0 0 0 62.12 113.25
  C 81.68 112.67 101.55 108.80 120.34 102.70
  A 1.38 1.37 -8.1 0 0 121.28 101.46
  Q 121.64 93.23 130.27 92.99
  Q 132.15 92.94 132.02 91.19
  Q 131.97 90.58 131.37 90.65
  Q 129.32 90.90 126.44 91.93
  Q 112.56 96.90 95.77 100.17
  C 92.29 100.85 88.17 101.31 84.40 101.93
  C 80.75 102.54 76.30 102.50 72.26 103.46
  Q 71.80 103.57 71.36 103.42
  Q 70.81 103.23 70.17 103.34
  A 1.58 0.07 -2.5 0 1 69.25 103.42
  Z
  M 449.3121 98.1312
  A 1.11 1.11 0.0 0 0 448.4687 96.8073
  L 420.9957 90.7167
  A 1.11 1.11 0.0 0 0 419.6718 91.5601
  L 419.5679 92.0288
  A 1.11 1.11 0.0 0 0 420.4113 93.3527
  L 447.8843 99.4433
  A 1.11 1.11 0.0 0 0 449.2082 98.5999
  L 449.3121 98.1312
  Z
  M 30.28 91.67
  C 25.38 90.44 25.20 96.96 24.66 100.07
  A 1.05 1.05 0.0 0 0 25.56 101.30
  L 31.64 102.13
  A 0.51 0.51 0.0 0 0 32.18 101.45
  Q 30.70 97.49 31.34 93.26
  A 1.42 1.42 0.0 0 0 30.28 91.67
  Z
  M 38.18 102.39
  L 43.12 103.05
  A 1.01 1.00 -86.6 0 0 44.26 102.03
  L 44.11 94.19
  A 0.82 0.82 0.0 0 0 43.65 93.47
  C 37.86 90.51 37.42 97.70 37.11 101.04
  A 1.25 1.24 -83.5 0 0 38.18 102.39
  Z
  M 57.39 94.92
  A 2.10 2.10 0.0 0 0 55.49 93.45
  L 48.66 93.13
  A 2.10 2.10 0.0 0 0 46.46 95.34
  L 46.76 101.00
  A 2.10 2.10 0.0 0 0 48.81 102.99
  L 57.08 103.18
  A 2.10 2.10 0.0 0 0 59.13 100.45
  L 57.39 94.92
  Z
  M 424.36 103.29
  Q 433.68 107.23 443.66 109.49
  Q 445.14 109.83 445.63 108.39
  L 447.43 103.07
  Q 447.61 102.53 447.19 102.15
  C 445.14 100.27 442.28 100.53 440.29 99.94
  C 437.00 98.96 433.47 98.60 430.30 97.69
  Q 424.80 96.11 419.05 95.39
  A 0.75 0.73 -75.7 0 0 418.26 95.87
  L 416.98 99.28
  Q 416.79 99.77 417.20 100.10
  C 419.53 101.99 422.25 102.39 424.36 103.29
  Z
  M 369.73 98.77
  Q 369.98 99.07 370.40 99.22
  A 0.29 0.29 0.0 0 0 370.69 98.72
  L 367.58 96.11
  A 0.25 0.24 -47.7 0 0 367.25 96.13
  L 367.04 96.34
  Q 366.66 96.71 367.03 97.10
  Q 368.01 98.10 369.35 98.51
  A 0.77 0.77 0.0 0 1 369.73 98.77
  Z
  M 481.30 106.54
  L 481.67 104.90
  A 0.51 0.51 0.0 0 0 481.28 104.29
  L 454.65 98.29
  A 2.33 0.94 12.7 0 0 452.17 98.70
  L 451.99 99.50
  A 2.33 0.94 12.7 0 0 454.05 100.93
  L 480.69 106.93
  A 0.51 0.51 0.0 0 0 481.30 106.54
  Z
  M 362.67 101.24
  Q 364.03 103.51 366.72 103.06
  A 0.83 0.83 0.0 0 0 367.01 101.54
  L 364.13 99.79
  A 1.06 1.06 0.0 0 0 362.67 101.24
  Z
  M 473.84 141.51
  Q 472.39 140.97 470.61 141.44
  Q 470.18 141.56 469.77 141.40
  Q 466.32 140.06 462.64 140.52
  Q 462.20 140.57 461.79 140.38
  L 460.34 139.68
  Q 459.85 139.45 459.30 139.51
  C 456.96 139.77 453.59 138.11 451.01 137.75
  C 446.93 137.19 443.57 135.86 439.65 135.05
  Q 439.10 134.94 438.64 135.26
  Q 430.66 140.82 425.47 133.22
  Q 425.15 132.75 425.26 132.19
  Q 425.66 130.10 423.45 129.39
  Q 418.76 127.89 408.22 122.79
  A 0.97 0.95 42.3 0 0 407.31 122.82
  Q 400.71 126.71 395.61 121.22
  A 1.16 1.14 22.4 0 1 395.30 120.49
  L 395.06 116.15
  Q 395.03 115.76 394.72 115.54
  L 373.82 101.06
  Q 373.36 100.74 372.95 101.13
  L 368.30 105.57
  A 0.99 0.99 0.0 0 0 369.30 107.23
  C 376.14 104.99 382.33 108.51 381.76 116.21
  A 1.10 1.09 22.9 0 0 382.13 117.11
  Q 383.85 118.61 386.70 120.54
  C 413.08 138.41 441.74 148.68 473.01 153.47
  Q 489.59 156.01 505.20 155.22
  Q 505.75 155.19 506.06 154.75
  C 507.80 152.35 507.36 146.20 507.28 143.63
  Q 507.23 141.99 505.93 143.00
  Q 499.35 148.17 492.10 143.70
  Q 491.59 143.39 491.00 143.41
  Q 486.82 143.54 482.73 142.66
  C 479.42 141.94 477.28 142.79 473.84 141.51
  Z
  M 413.74 111.31
  Q 426.55 117.19 440.06 121.19
  A 0.90 0.90 0.0 0 0 441.17 120.62
  L 444.25 111.78
  A 0.65 0.65 0.0 0 0 443.86 110.96
  Q 441.36 110.02 440.23 109.76
  Q 428.48 107.08 417.65 102.03
  A 1.44 1.43 23.3 0 0 415.71 102.80
  L 413.02 109.53
  Q 412.53 110.76 413.74 111.31
  Z
  M 362.85 103.92
  Q 362.21 102.55 360.74 102.34
  A 0.56 0.55 78.4 0 0 360.19 103.18
  Q 361.29 105.02 363.49 104.97
  Q 364.22 104.95 363.81 104.35
  L 363.30 103.60
  Q 363.13 103.35 363.04 103.64
  L 362.95 103.91
  Q 362.90 104.04 362.85 103.92
  Z
  M 24.79 103.28
  C 25.17 107.23 27.87 112.60 32.00 113.04
  Q 38.96 113.78 43.78 113.58
  A 0.61 0.61 0.0 0 0 44.36 112.96
  L 44.24 104.96
  A 0.89 0.88 4.3 0 0 43.49 104.10
  L 39.55 103.48
  Q 38.98 103.39 38.50 103.70
  Q 37.45 104.36 37.77 105.62
  A 1.15 1.15 0.0 0 1 35.76 106.63
  Q 31.77 101.64 25.20 102.75
  Q 24.75 102.83 24.79 103.28
  Z
  M 450.19 103.85
  L 448.44 109.67
  A 1.00 1.00 0.0 0 0 449.23 110.94
  Q 459.81 112.73 470.49 114.09
  Q 474.38 114.58 478.37 114.21
  A 0.64 0.62 -83.4 0 0 478.90 113.78
  L 480.21 109.67
  A 0.62 0.61 15.5 0 0 479.76 108.88
  L 452.19 102.68
  A 1.70 1.69 14.6 0 0 450.19 103.85
  Z
  M 47.72 113.38
  C 53.18 115.58 57.31 110.31 58.55 105.59
  A 1.07 1.07 0.0 0 0 57.52 104.25
  L 47.81 104.25
  A 1.19 1.19 0.0 0 0 46.62 105.53
  L 47.15 112.61
  A 0.92 0.92 0.0 0 0 47.72 113.38
  Z
  M 524.35 112.10
  C 518.97 113.20 513.24 114.98 507.76 114.23
  C 506.20 114.02 503.24 115.39 501.05 115.32
  Q 492.02 115.01 482.22 115.67
  Q 481.04 115.75 480.67 116.88
  L 477.43 126.68
  A 0.86 0.85 -78.5 0 0 478.17 127.80
  Q 493.14 129.09 508.03 127.19
  Q 508.49 127.13 508.82 126.80
  Q 510.08 125.55 511.75 126.27
  Q 512.23 126.48 512.75 126.47
  Q 518.45 126.29 524.00 125.00
  C 534.93 122.45 546.56 119.56 556.66 114.56
  A 0.80 0.80 0.0 0 0 556.95 113.36
  L 551.15 105.51
  A 1.98 1.98 0.0 0 0 548.51 104.99
  C 546.43 106.27 543.80 106.76 541.82 107.38
  Q 535.07 109.51 528.27 111.53
  A 1.36 1.33 -45.8 0 1 527.55 111.55
  C 526.03 111.17 525.29 111.91 524.35 112.10
  Z
  M 357.20 108.27
  Q 358.32 109.74 359.74 109.21
  A 0.93 0.92 -41.7 0 0 359.84 107.52
  L 357.02 106.10
  Q 356.46 105.82 356.28 106.43
  Q 356.01 107.41 356.82 107.92
  Q 357.04 108.06 357.20 108.27
  Z
  M 376.52 113.07
  A 0.68 0.68 0.0 0 0 377.52 112.45
  Q 377.44 109.53 374.82 108.46
  A 1.02 1.02 0.0 0 0 373.50 109.82
  Q 374.47 111.99 376.52 113.07
  Z
  M 459.30 113.98
  Q 455.04 112.91 449.17 111.99
  A 1.98 1.98 0.0 0 0 446.99 113.29
  L 444.45 120.48
  A 1.49 1.48 17.6 0 0 445.46 122.40
  Q 449.93 123.64 455.13 124.77
  C 456.82 125.15 458.58 125.04 460.46 126.18
  A 0.84 0.82 39.8 0 0 461.43 126.10
  C 465.96 122.09 468.56 120.64 474.44 123.47
  Q 475.17 123.82 475.40 123.04
  L 477.46 116.19
  Q 477.70 115.40 476.88 115.41
  Q 473.31 115.45 469.84 114.85
  C 466.40 114.26 462.85 114.88 459.30 113.98
  Z
  M 373.55 112.90
  L 373.44 112.56
  A 0.65 0.44 -67.0 0 0 372.51 113.16
  Q 372.78 116.76 375.96 116.68
  A 0.71 0.70 77.4 0 0 376.58 115.69
  Q 375.72 113.81 373.73 113.08
  Q 373.60 113.03 373.55 112.90
  Z
  M 438.72 122.03
  Q 437.71 121.27 436.45 121.37
  Q 434.72 121.52 430.46 119.37
  C 428.74 118.50 427.02 118.64 425.21 117.83
  C 421.31 116.07 417.24 114.72 413.48 112.70
  Q 412.35 112.10 411.91 113.29
  L 409.17 120.60
  Q 408.98 121.10 409.44 121.38
  Q 416.82 125.70 424.97 128.34
  Q 425.48 128.51 425.99 128.31
  C 427.39 127.76 428.07 126.58 429.40 126.13
  Q 431.35 125.47 433.39 125.49
  C 435.02 125.50 436.48 126.58 438.43 126.50
  Q 438.98 126.47 439.15 125.96
  L 439.93 123.59
  Q 440.11 123.06 439.66 122.73
  L 438.72 122.03
  Z
  M 34.59 114.83
  Q 34.39 114.89 34.29 115.11
  Q 34.20 115.31 34.39 115.39
  Q 38.75 117.40 43.51 117.12
  Q 44.08 117.09 44.30 116.55
  Q 44.84 115.22 43.17 114.50
  Q 42.69 114.29 42.16 114.33
  Q 38.80 114.59 35.45 114.29
  Q 35.33 114.28 35.25 114.37
  Q 35.09 114.55 34.85 114.71
  Q 34.73 114.79 34.59 114.83
  Z
  M 558.12 116.17
  L 536.31 123.75
  A 0.79 0.78 73.6 0 0 535.81 124.69
  C 536.45 127.18 536.43 133.58 538.55 135.28
  Q 539.08 135.69 539.71 135.48
  L 555.17 130.22
  A 0.92 0.89 -2.7 0 0 555.76 129.59
  Q 557.23 124.19 562.12 121.73
  A 0.66 0.66 0.0 0 0 562.34 120.72
  L 558.74 116.34
  Q 558.49 116.04 558.12 116.17
  Z
  M 507.13 133.46
  C 502.41 136.75 496.87 138.54 492.68 133.64
  Q 492.42 133.35 492.36 132.96
  L 491.93 130.13
  A 0.69 0.68 -3.4 0 0 491.26 129.54
  L 476.88 129.32
  A 0.75 0.75 0.0 0 0 476.24 129.65
  C 472.24 135.50 463.14 135.30 461.56 127.59
  A 0.88 0.87 -84.3 0 0 461.04 126.95
  Q 459.35 126.26 457.53 126.50
  Q 457.14 126.56 456.75 126.47
  L 444.92 123.78
  Q 443.39 123.43 442.86 124.90
  L 440.13 132.38
  A 1.02 1.01 -71.5 0 0 440.78 133.70
  Q 451.93 137.14 463.75 139.03
  C 466.46 139.47 469.14 140.16 471.78 140.41
  Q 480.66 141.26 489.52 141.97
  A 1.63 1.63 0.0 0 0 491.27 140.49
  C 491.60 136.67 496.93 136.68 498.31 140.42
  Q 498.49 140.90 498.93 141.14
  C 502.87 143.37 509.61 137.69 507.83 133.66
  A 0.47 0.47 0.0 0 0 507.13 133.46
  Z
  M 520.39 126.37
  A 1.97 1.83 14.6 0 1 518.22 127.54
  Q 514.93 126.94 512.25 128.80
  Q 511.66 129.21 511.60 129.93
  L 510.79 139.62
  Q 510.73 140.35 511.45 140.42
  C 517.69 141.09 526.44 138.65 533.76 137.06
  Q 534.24 136.96 534.29 136.47
  C 534.72 132.52 533.05 129.98 533.18 126.54
  A 1.86 1.86 0.0 0 0 530.21 124.97
  Q 529.20 125.72 528.02 125.47
  A 1.53 1.49 -53.2 0 0 526.99 125.63
  C 524.36 127.06 523.49 125.90 521.17 126.09
  Q 520.46 126.15 520.39 126.37
  Z
  M 499.33 134.51
  C 501.09 134.06 505.95 132.27 506.48 129.71
  A 0.59 0.59 0.0 0 0 505.84 129.00
  L 499.58 129.67
  A 0.59 0.58 89.5 0 0 499.06 130.21
  L 498.74 134.01
  A 0.48 0.47 -4.4 0 0 499.33 134.51
  Z
  M 521.59 140.48
  C 518.53 140.90 513.64 141.20 511.10 142.92
  Q 510.62 143.24 510.58 143.82
  L 509.80 153.50
  A 0.90 0.89 1.4 0 0 510.72 154.46
  Q 515.74 154.27 520.86 153.33
  C 524.55 152.65 531.13 151.84 535.96 150.05
  A 1.33 1.32 75.2 0 0 536.80 148.60
  L 535.36 139.62
  A 1.78 1.77 -14.5 0 0 533.01 138.24
  Q 530.14 139.27 527.15 139.55
  Q 526.62 139.60 526.17 139.91
  C 524.74 140.87 522.72 140.32 521.59 140.48
  Z"
/>
<path fill="#1c3038" fill-opacity="0.376" d="
  M 611.61 67.76
  L 610.44 66.43
  L 625.10 54.60
  A 0.50 0.50 0.0 0 1 625.75 55.37
  L 611.61 67.76
  Z"
/>
<path fill="#1c3038" fill-opacity="0.376" d="
  M 626.00 105.56
  L 626.00 106.12
  Q 623.41 108.43 618.99 111.49
  C 599.79 124.78 581.24 135.65 560.07 144.15
  C 554.16 146.53 546.95 148.63 540.41 150.93
  Q 539.91 149.71 540.08 148.20
  Q 540.67 149.22 542.19 148.69
  Q 562.21 141.63 569.25 138.43
  Q 591.48 128.33 611.66 114.58
  Q 618.27 110.07 624.98 105.68
  Q 625.29 105.48 625.66 105.51
  Q 625.85 105.53 626.00 105.56
  Z"
/>
<path fill="#1c3038" fill-opacity="0.376" d="
  M 543.28 163.77
  Q 543.09 163.79 542.92 163.79
  Q 542.44 163.79 542.27 163.35
  Q 541.66 161.75 542.31 161.48
  C 542.89 162.03 543.46 162.40 544.30 162.15
  C 573.24 153.54 599.96 139.29 624.60 121.81
  A 0.92 0.92 0.0 0 1 625.91 122.06
  Q 626.02 122.23 625.75 122.77
  Q 625.60 123.07 625.28 123.29
  C 604.84 137.52 582.79 150.19 559.29 158.62
  Q 552.41 161.09 545.51 163.52
  Q 544.61 163.84 543.28 163.77
  Z"
/>
<path fill="#1c3038" fill-opacity="0.376" d="
  M 432.03 156.03
  L 457.28 163.51
  Q 457.72 163.64 458.17 163.62
  C 460.05 163.56 462.17 164.45 463.50 164.68
  C 468.98 165.64 474.66 167.16 479.90 167.67
  Q 487.09 168.36 499.06 169.11
  C 501.53 169.26 503.32 168.37 505.31 168.41
  Q 517.07 168.69 528.10 165.87
  Q 527.82 166.51 528.29 167.55
  Q 525.36 167.09 523.15 168.40
  A 1.30 1.30 0.0 0 1 522.21 168.55
  C 519.43 167.91 517.58 169.27 515.23 169.32
  Q 511.48 169.40 507.75 169.53
  Q 507.30 169.55 507.09 169.91
  Q 506.87 170.31 506.41 170.31
  L 491.60 170.37
  Q 491.25 170.37 491.00 170.13
  L 490.59 169.71
  Q 490.47 169.59 490.31 169.58
  C 486.45 169.33 482.82 169.83 478.97 168.90
  C 473.97 167.69 468.86 167.52 463.33 166.11
  Q 454.45 163.85 452.07 163.28
  Q 441.23 160.65 430.74 156.69
  L 432.03 156.03
  Z"
/>
</svg>
