<?xml version="1.0" encoding="UTF-8" ?>
<!DOCTYPE svg PUBLIC "-//W3C//DTD SVG 1.1//EN" "http://www.w3.org/Graphics/SVG/1.1/DTD/svg11.dtd">
<svg width="18" height="20" viewBox="0 0 18 20" version="1.1" xmlns="http://www.w3.org/2000/svg">
<g id="#000000c9">
<path fill="#000000" opacity="0.79" d=" M 7.00 0.00 L 11.00 0.00 C 12.77 1.73 14.97 3.95 13.83 6.67 C 12.54 11.15 5.43 11.16 4.15 6.67 C 2.98 3.92 5.23 1.76 7.00 0.00 M 8.33 1.44 C 6.05 1.98 4.39 4.97 6.09 6.93 C 7.37 9.10 10.64 9.10 11.91 6.92 C 13.98 4.60 11.09 0.73 8.33 1.44 Z" />
<path fill="#000000" opacity="0.79" d=" M 0.00 17.20 C 1.56 14.42 3.71 11.34 7.28 11.34 C 11.55 10.55 15.80 12.42 18.00 16.18 L 18.00 20.00 L 0.00 20.00 L 0.00 17.20 M 1.94 17.79 C 5.85 20.04 11.18 19.06 15.56 18.46 C 16.91 16.11 14.28 13.34 11.89 13.19 C 8.20 12.46 2.09 12.80 1.94 17.79 Z" />
</g>
</svg>
