<?xml version="1.0" encoding="UTF-8" standalone="no"?>
<!DOCTYPE svg PUBLIC "-//W3C//DTD SVG 1.1//EN" "http://www.w3.org/Graphics/SVG/1.1/DTD/svg11.dtd">
<svg xmlns="http://www.w3.org/2000/svg" version="1.1" viewBox="0 0 511 489">
<path fill="#000000" d="
  M 511.00 482.06
  L 511.00 489.00
  L 0.00 489.00
  L 0.00 479.69
  C 3.67 385.72 41.84 293.04 137.42 260.08
  Q 168.70 249.29 201.87 247.01
  Q 205.21 246.78 202.29 245.14
  Q 177.45 231.17 156.16 210.85
  C 112.16 168.83 112.46 101.38 147.04 54.04
  C 167.04 26.66 198.88 6.40 232.94 1.76
  Q 238.17 1.05 247.60 0.90
  C 254.33 0.79 261.53 0.50 267.80 1.00
  C 313.89 4.71 354.15 35.16 373.52 75.74
  Q 386.53 103.00 385.26 135.26
  C 383.78 172.84 365.58 201.47 336.51 224.26
  Q 320.67 236.68 303.78 246.16
  Q 301.19 247.62 304.13 248.03
  Q 327.65 251.31 349.97 258.57
  C 449.04 290.83 505.93 380.75 511.00 482.06
  Z
  M 156.90 111.47
  C 144.81 173.89 193.71 229.47 256.28 228.14
  C 307.99 227.05 350.09 185.94 352.45 134.56
  C 355.74 62.76 281.70 12.81 215.72 40.15
  C 185.62 52.63 163.12 79.33 156.90 111.47
  Z
  M 297.44 463.35
  Q 389.09 463.68 480.76 463.44
  A 1.00 1.00 0.0 0 0 481.76 462.41
  C 480.97 437.90 474.01 413.81 462.98 392.03
  C 406.50 280.51 267.20 249.11 156.77 286.83
  C 76.53 314.24 29.70 376.58 29.68 462.43
  A 0.99 0.99 0.0 0 0 30.62 463.42
  Q 38.93 463.92 47.25 463.94
  C 130.65 464.12 214.05 463.05 297.44 463.35
  Z"
/>
</svg>
