<?xml version="1.0" encoding="UTF-8" ?>
<!DOCTYPE svg PUBLIC "-//W3C//DTD SVG 1.1//EN" "http://www.w3.org/Graphics/SVG/1.1/DTD/svg11.dtd">
<svg width="14pt" height="20pt" viewBox="0 0 14 20" version="1.1" xmlns="http://www.w3.org/2000/svg">
<g id="#000000c5">
<path fill="#000000" opacity="0.77" d=" M 5.31 0.00 L 8.60 0.00 C 11.24 1.62 12.33 4.42 12.28 7.43 C 12.71 7.91 13.57 8.87 14.00 9.35 L 14.00 20.00 L 0.00 20.00 L 0.00 9.39 C 0.43 8.92 1.30 7.97 1.73 7.49 C 1.66 4.49 2.68 1.65 5.31 0.00 M 3.40 7.95 C 5.81 7.94 8.22 7.95 10.63 7.95 C 10.81 5.28 10.23 1.85 7.01 1.41 C 3.75 1.82 3.23 5.28 3.40 7.95 M 1.89 9.43 C 1.75 12.41 1.68 15.39 1.82 18.37 C 5.29 18.38 8.75 18.36 12.22 18.37 C 12.37 15.39 12.28 12.40 12.12 9.42 C 8.72 9.55 5.30 9.55 1.89 9.43 Z" />
<path fill="#000000" opacity="0.77" d=" M 6.97 16.90 C 4.95 15.08 5.00 12.27 7.01 10.45 C 9.02 12.28 9.11 15.14 6.97 16.90 Z" />
</g>
</svg>
