<?xml version="1.0" encoding="UTF-8" standalone="no"?>
<!DOCTYPE svg PUBLIC "-//W3C//DTD SVG 1.1//EN" "http://www.w3.org/Graphics/SVG/1.1/DTD/svg11.dtd">
<svg xmlns="http://www.w3.org/2000/svg" version="1.1" viewBox="0 0 481 518">
<path fill="#000000" d="
  M 214.06 0.00
  L 265.06 0.00
  C 276.00 0.80 287.68 1.45 297.81 4.08
  C 329.96 12.43 356.34 32.59 373.75 61.09
  C 381.65 74.03 386.32 88.73 389.37 103.29
  C 390.08 106.71 390.76 112.14 390.78 115.40
  Q 391.10 157.55 391.03 199.89
  A 1.00 1.00 0.0 0 0 392.03 200.89
  Q 411.15 200.95 430.26 201.14
  C 444.88 201.28 461.13 209.19 469.62 221.07
  C 474.20 227.48 476.89 232.19 478.84 239.95
  Q 479.85 243.96 479.85 249.54
  Q 479.91 340.52 480.01 431.51
  C 480.02 440.04 479.61 452.61 479.87 463.22
  Q 480.10 472.57 479.16 477.29
  Q 475.92 493.50 463.41 504.86
  C 461.36 506.72 457.60 509.57 455.36 510.76
  Q 443.51 517.05 429.93 517.97
  L 54.69 518.00
  Q 42.18 517.07 37.49 515.72
  C 20.68 510.89 7.10 497.31 2.59 480.38
  Q 1.26 475.40 1.26 466.47
  Q 1.24 358.49 1.26 250.50
  C 1.26 238.37 4.52 231.30 11.09 221.63
  C 19.49 209.27 36.62 201.01 51.41 201.01
  Q 70.63 201.00 89.13 200.99
  A 1.00 0.99 -1.9 0 0 90.13 199.93
  Q 89.61 192.18 89.75 184.99
  C 90.12 164.52 89.96 144.06 90.14 123.60
  C 90.30 105.14 94.18 88.38 101.42 71.68
  C 101.77 70.85 102.50 70.24 102.87 69.48
  C 110.81 52.95 124.07 36.81 137.93 26.17
  C 153.63 14.12 174.25 4.62 193.51 2.01
  C 196.24 1.65 198.82 0.98 201.20 1.02
  Q 207.67 1.12 214.06 0.00
  Z
  M 140.28 67.39
  C 139.26 68.93 137.56 70.40 136.51 72.24
  Q 134.00 76.65 131.51 81.09
  C 123.17 95.94 121.06 110.57 121.03 128.14
  Q 120.96 163.13 121.02 198.00
  A 1.00 1.00 0.0 0 0 122.02 199.00
  L 359.02 199.00
  A 1.00 1.00 0.0 0 0 360.02 198.00
  Q 359.88 160.50 360.27 123.01
  Q 360.40 110.45 356.18 96.72
  C 348.99 73.31 331.89 52.85 310.00 41.51
  C 293.41 32.93 278.74 31.02 259.33 31.00
  Q 238.07 30.97 216.81 31.04
  Q 206.85 31.07 200.12 32.04
  C 187.28 33.90 172.99 38.62 161.82 47.17
  C 154.15 53.04 145.90 58.96 140.28 67.39
  Z
  M 52.69 232.00
  C 41.07 232.00 31.25 240.26 31.25 252.25
  Q 31.25 356.24 31.25 460.22
  Q 31.25 470.01 32.76 474.08
  C 36.82 485.04 46.20 487.19 57.00 487.21
  Q 152.05 487.43 247.10 486.99
  Q 247.31 486.98 247.84 487.19
  Q 248.03 487.26 248.25 487.26
  Q 336.80 487.25 425.36 487.25
  Q 432.79 487.25 436.45 485.85
  C 445.39 482.44 449.74 474.70 449.75 465.15
  Q 449.77 361.12 449.73 257.09
  Q 449.73 248.53 448.27 244.74
  C 445.02 236.32 436.81 232.00 427.88 232.00
  Q 240.28 232.00 52.69 232.00
  Z"
/>
<path fill="#000000" d="
  M 241.03 298.23
  C 260.69 300.06 276.03 318.93 273.44 338.83
  Q 270.84 358.74 252.32 367.72
  A 1.00 0.99 77.3 0 0 251.76 368.62
  Q 251.74 386.62 251.76 405.14
  C 251.76 407.40 252.28 409.58 251.27 412.10
  A 1.01 0.99 10.8 0 1 250.34 412.72
  L 222.00 412.77
  A 1.01 1.00 -90.0 0 1 221.00 411.76
  L 221.08 368.43
  A 1.01 0.99 13.7 0 0 220.53 367.54
  C 201.62 357.97 194.05 335.43 204.70 316.73
  Q 216.54 295.97 241.03 298.23
  Z"
/>
</svg>
