<?xml version="1.0" encoding="UTF-8" standalone="no"?>
<!DOCTYPE svg PUBLIC "-//W3C//DTD SVG 1.1//EN" "http://www.w3.org/Graphics/SVG/1.1/DTD/svg11.dtd">
<svg xmlns="http://www.w3.org/2000/svg" version="1.1" viewBox="0.00 0.00 512.00 512.00">
<path fill="#000000" d="
  M 252.32 0.00
  L 259.80 0.00
  C 398.38 3.09 509.07 113.01 512.00 252.07
  L 512.00 259.55
  C 508.94 398.59 398.53 509.69 258.93 512.00
  L 252.71 512.00
  C 113.41 509.27 3.26 398.91 0.00 259.93
  L 0.00 252.18
  Q 2.54 160.43 60.26 91.37
  C 107.92 34.34 178.11 1.44 252.32 0.00
  Z
  M 208.67 151.18
  A 10.82 10.82 0.0 0 0 192.00 160.28
  L 192.00 351.72
  A 10.82 10.82 0.0 0 0 208.67 360.82
  L 357.57 265.10
  A 10.82 10.82 0.0 0 0 357.57 246.90
  L 208.67 151.18
  Z"
/>
</svg>
