<?xml version="1.0" encoding="UTF-8" ?>
<!DOCTYPE svg PUBLIC "-//W3C//DTD SVG 1.1//EN" "http://www.w3.org/Graphics/SVG/1.1/DTD/svg11.dtd">
<svg width="449pt" height="200pt" viewBox="0 0 449 200" version="1.1" xmlns="http://www.w3.org/2000/svg">
<g id="#00000080">
<path fill="#000000" opacity="0.50" d=" M 215.37 34.49 C 227.46 32.98 240.01 34.62 251.07 39.83 C 265.65 46.34 277.66 58.35 284.17 72.93 C 291.71 89.13 292.01 108.53 285.09 125.00 C 281.94 133.17 276.05 139.86 270.16 146.17 C 257.94 158.03 241.10 165.24 224.00 165.03 C 205.96 165.23 188.17 157.24 175.87 144.12 C 170.81 138.32 165.64 132.33 162.91 125.00 C 155.78 108.07 156.32 88.05 164.47 71.57 C 173.78 51.70 193.62 37.29 215.37 34.49 M 214.44 42.68 C 192.97 45.90 174.26 62.40 168.31 83.27 C 164.18 97.22 165.55 112.77 172.30 125.69 C 179.53 139.81 192.79 150.77 208.13 154.93 C 221.38 158.64 235.98 157.41 248.35 151.37 C 259.83 145.85 269.37 136.43 275.04 125.02 C 281.36 112.50 282.70 97.61 278.93 84.13 C 274.71 68.55 263.46 55.12 249.03 47.96 C 238.44 42.60 226.15 40.85 214.44 42.68 Z" />
</g>
<g id="#ffffffff">
<path fill="#ffffff" opacity="1.00" d=" M 214.44 42.68 C 226.15 40.85 238.44 42.60 249.03 47.96 C 263.46 55.12 274.71 68.55 278.93 84.13 C 282.70 97.61 281.36 112.50 275.04 125.02 C 269.37 136.43 259.83 145.85 248.35 151.37 C 235.98 157.41 221.38 158.64 208.13 154.93 C 192.79 150.77 179.53 139.81 172.30 125.69 C 165.55 112.77 164.18 97.22 168.31 83.27 C 174.26 62.40 192.97 45.90 214.44 42.68 M 211.37 78.23 C 208.90 78.95 209.30 81.94 209.17 83.94 C 209.21 94.31 209.21 104.69 209.17 115.06 C 209.34 116.88 208.92 119.24 210.64 120.47 C 212.84 121.80 215.15 120.16 217.05 119.06 C 225.02 114.01 233.00 108.98 241.05 104.05 C 242.74 102.84 245.36 101.62 244.97 99.10 C 244.77 96.99 242.53 96.08 241.05 94.96 C 233.00 90.02 225.02 84.99 217.05 79.93 C 215.32 79.03 213.43 77.46 211.37 78.23 Z" />
</g>
</svg>
