<?xml version="1.0" encoding="UTF-8" standalone="no"?>
<!DOCTYPE svg PUBLIC "-//W3C//DTD SVG 1.1//EN" "http://www.w3.org/Graphics/SVG/1.1/DTD/svg11.dtd">
<svg xmlns="http://www.w3.org/2000/svg" version="1.1" viewBox="0 0 512 512">
<path fill="#b6b7ba" d="
  M 177.79 276.69
  Q 146.99 248.29 141.37 206.66
  C 132.24 139.00 183.88 78.41 251.52 76.13
  C 335.33 73.30 394.44 156.04 363.70 234.77
  C 334.37 309.86 237.00 331.28 177.79 276.69
  Z"
/>
<path fill="#b6b7ba" d="
  M 430.72 512.00
  L 82.19 512.00
  Q 81.89 485.75 81.98 459.49
  Q 82.03 447.45 83.14 439.56
  C 91.96 377.31 134.03 331.19 195.17 316.56
  A 0.99 0.97 -38.2 0 1 195.82 316.63
  Q 242.24 338.39 291.19 325.68
  C 298.73 323.72 306.72 320.55 313.91 317.45
  Q 316.65 316.27 319.53 317.02
  C 387.33 334.52 430.41 390.42 430.99 460.20
  Q 431.20 486.10 430.72 512.00
  Z"
/>
</svg>
