<?xml version="1.0" encoding="UTF-8" ?>
<!DOCTYPE svg PUBLIC "-//W3C//DTD SVG 1.1//EN" "http://www.w3.org/Graphics/SVG/1.1/DTD/svg11.dtd">
<svg width="34pt" height="34pt" viewBox="0 0 34 34" version="1.1" xmlns="http://www.w3.org/2000/svg">
<g id="#000000fe">
<path fill="#000000" opacity="1.00" d=" M 4.81 10.73 C 6.94 4.45 15.41 0.61 20.98 5.01 C 26.80 8.49 28.13 16.95 23.73 22.10 C 26.17 25.26 31.24 27.67 29.78 32.38 C 26.66 30.14 24.49 26.88 21.80 24.19 C 18.84 25.66 15.40 26.93 12.12 25.67 C 6.03 23.90 2.48 16.64 4.81 10.73 M 13.39 6.52 C 7.24 7.70 4.86 16.38 9.42 20.60 C 13.20 25.08 21.06 23.24 22.89 17.81 C 25.57 12.00 19.59 4.81 13.39 6.52 Z" />
</g>
</svg>
