<?xml version="1.0" encoding="UTF-8" ?>
<!DOCTYPE svg PUBLIC "-//W3C//DTD SVG 1.1//EN" "http://www.w3.org/Graphics/SVG/1.1/DTD/svg11.dtd">
<svg width="271pt" height="271pt" viewBox="0 0 271 271" version="1.1" xmlns="http://www.w3.org/2000/svg">
<g id="#646464ff">
<path fill="#646464" opacity="1.00" d=" M 0.00 0.00 L 10.57 0.00 C 84.04 41.09 159.45 78.58 233.55 118.49 C 243.77 124.11 254.19 129.38 264.23 135.31 C 263.50 135.87 262.76 136.43 262.03 136.99 C 178.82 182.80 93.47 224.64 10.56 271.00 L 0.00 271.00 L 0.00 244.63 C 2.88 238.88 4.48 232.64 6.70 226.64 C 15.24 202.63 23.39 178.49 31.37 154.30 C 46.84 151.63 62.52 150.46 78.03 148.04 C 97.50 145.16 117.00 142.53 136.41 139.24 C 141.31 138.31 146.37 138.05 151.10 136.38 C 116.22 131.21 81.12 126.16 47.33 115.72 C 42.86 114.18 37.45 113.69 34.45 109.57 C 19.20 91.16 12.16 67.82 5.77 45.21 C 3.90 38.93 2.47 32.51 0.00 26.43 L 0.00 0.00 Z" />
</g>
</svg>
