<?xml version="1.0" encoding="UTF-8" standalone="no"?>
<!DOCTYPE svg PUBLIC "-//W3C//DTD SVG 1.1//EN" "http://www.w3.org/Graphics/SVG/1.1/DTD/svg11.dtd">
<svg xmlns="http://www.w3.org/2000/svg" version="1.1" viewBox="0 0 512 512">
<path fill="#000000" d="
  M 12.56 0.00
  L 499.31 0.00
  Q 510.56 1.77 512.00 13.06
  L 512.00 499.31
  Q 510.24 510.33 499.19 512.00
  L 12.69 512.00
  Q 1.63 510.27 0.00 499.19
  L 0.00 12.69
  Q 1.65 1.81 12.56 0.00
  Z
  M 168.52 41.71
  C 168.80 36.53 164.56 33.28 159.50 33.27
  Q 130.06 33.22 100.63 33.27
  C 95.55 33.28 92.18 33.94 89.97 38.48
  Q 72.64 74.06 55.33 109.63
  C 52.11 116.25 48.96 121.29 55.74 126.07
  Q 57.06 127.00 58.66 127.00
  Q 90.03 127.01 121.33 126.99
  C 125.62 126.98 128.22 125.79 130.05 122.06
  Q 148.26 84.86 166.43 47.63
  Q 168.42 43.56 168.52 41.71
  Z
  M 201.65 125.95
  Q 203.17 126.99 205.01 126.99
  Q 235.60 127.02 267.06 126.99
  C 271.25 126.98 274.14 125.86 275.93 122.18
  Q 293.62 85.96 311.32 49.75
  C 314.31 43.62 316.96 37.16 309.22 33.83
  Q 307.88 33.25 306.42 33.25
  Q 274.16 33.24 243.31 33.27
  C 240.12 33.27 237.38 35.64 235.90 38.65
  Q 217.88 75.34 200.00 112.12
  C 197.23 117.83 195.83 122.01 201.65 125.95
  Z
  M 374.70 53.22
  Q 360.49 82.04 346.47 110.95
  C 344.98 114.04 343.10 116.93 343.61 120.22
  C 344.45 125.68 348.49 127.00 353.71 127.00
  Q 383.66 127.01 413.60 126.99
  C 416.18 126.99 419.98 125.83 421.02 123.73
  Q 439.97 85.05 458.98 46.40
  Q 463.05 38.13 455.89 34.12
  Q 454.34 33.25 452.56 33.25
  Q 420.75 33.24 390.00 33.33
  Q 384.89 33.34 382.60 37.08
  C 380.06 41.23 377.09 48.37 374.70 53.22
  Z
  M 470.00 168.69
  A 8.19 8.19 0.0 0 0 461.81 160.50
  L 50.19 160.50
  A 8.19 8.19 0.0 0 0 42.00 168.69
  L 42.00 462.31
  A 8.19 8.19 0.0 0 0 50.19 470.50
  L 461.81 470.50
  A 8.19 8.19 0.0 0 0 470.00 462.31
  L 470.00 168.69
  Z"
/>
<path fill="#000000" d="
  M 218.47 223.18
  L 326.48 308.43
  A 11.84 11.84 0.0 0 1 326.45 327.05
  L 218.14 411.93
  A 11.84 11.84 0.0 0 1 199.00 402.59
  L 199.30 232.45
  A 11.84 11.84 0.0 0 1 218.47 223.18
  Z"
/>
</svg>
